<?xml version="1.0" encoding="UTF-8"?>
<svg width="9px" height="19px" viewBox="0 0 9 19" version="1.1" xmlns="http://www.w3.org/2000/svg" xmlns:xlink="http://www.w3.org/1999/xlink">
    <title>Attachment Icon</title>
    <g id="Contact-Form" stroke="none" stroke-width="1" fill="none" fill-rule="evenodd">
        <g id="Contact-Full-Lenght" transform="translate(-740.000000, -2201.000000)" fill="#000000" fill-rule="nonzero">
            <g id="Form" transform="translate(138.000000, 1542.000000)">
                <g id="Input-Fields-+-Buttons---Contact" transform="translate(602.000000, 114.001000)">
                    <g id="Attachment-Input" transform="translate(0.000000, 545.499000)">
                        <path d="M7.77272379,4.09092478 L7.77272379,13.5 C7.77272379,15.3082055 6.30816139,16.7727264 4.5,16.7727264 C2.69183861,16.7727264 1.22723786,15.3082055 1.22723786,13.5 L1.22723786,3.27271681 C1.22723786,2.1436251 2.14359132,1.2272736 3.27268543,1.2272736 C4.40177955,1.2272736 5.31817136,2.1436251 5.31817136,3.27271681 L5.31817136,11.863632 C5.31817136,12.3136195 4.9540922,12.6818016 4.5,12.6818016 C4.0459078,12.6818016 3.68182864,12.3136195 3.68182864,11.863632 L3.68182864,4.09092478 L2.45455243,4.09092478 L2.45455243,11.8636704 C2.45455243,12.9927621 3.37090588,13.9091136 4.5,13.9091136 C5.62909412,13.9091136 6.54544757,12.9927237 6.54544757,11.863632 L6.54544757,3.27271681 C6.54544757,1.46455928 5.08088517,0 3.27272379,0 C1.4645624,0 0,1.46455928 0,3.27271681 L0,13.5 C0,15.9872713 2.0168367,18 4.5,18 C6.9831633,18 9,15.9872713 9,13.5 L9,4.09092478 L7.77272379,4.09092478 Z" id="Attachment-Icon"></path>
                    </g>
                </g>
            </g>
        </g>
    </g>
</svg>