<svg id="Layer_1" data-name="Layer 1" xmlns="http://www.w3.org/2000/svg" viewBox="0 0 220 22"><title>curved-arrow</title><g id="HOME"><g id="HOME-S.2-Variation"><g id="MASTER-Service-Arrow"><path id="Rectangle" d="M176,8.51v5H15.63a16.34,16.34,0,0,1-3.83-.65c-7-2-10.61-8.12-11.8-10.35a23.75,23.75,0,0,0,8.58,6c6.19,2.45,10.39.78,21.23,0H176Z"/><path id="Path" d="M176,11v2.45h33l-4.95,8.43,2.53.12c.48-.83,1.2-2,2.15-3.45,1.82-2.72,2.78-4.1,4.38-5.08a11.68,11.68,0,0,1,4.49-1.56,11.09,11.09,0,0,1,2.37,0l-.08-.89"/><path id="Path-2" data-name="Path" d="M176,11V8.55h33L204.08.12,206.61,0c.48.83,1.2,2,2.15,3.45,1.82,2.72,2.78,4.1,4.38,5.08a11.68,11.68,0,0,0,4.49,1.56,11.09,11.09,0,0,0,2.37,0l-.08.89"/></g></g></g></svg>