<?xml version="1.0" encoding="utf-8"?>
<!-- Generator: Adobe Illustrator 22.0.1, SVG Export Plug-In . SVG Version: 6.00 Build 0)  -->
<svg version="1.1" id="Layer_1" xmlns="http://www.w3.org/2000/svg" xmlns:xlink="http://www.w3.org/1999/xlink" x="0px" y="0px"
	 viewBox="0 0 522.6 125.1" style="enable-background:new 0 0 522.6 125.1;" xml:space="preserve">
<title>footer-curved-text</title>
<path d="M11.8,111.9c-3-0.6-5.7-2.3-7.6-4.7c-0.7-0.9-1.3-1.8-1.9-2.8c-1.4-2.4-2.2-5.2-2.3-8c-0.1-2.7,0.4-5.4,1.5-7.9
	C2.5,86.1,4,84,6,82.4c1-0.8,2-1.5,3.2-2.1c0.9-0.5,1.9-0.8,3-0.9c0.2,0,0.4,0,0.5,0.1c0.2,0.1,0.3,0.3,0.5,0.5l2.9,4.2
	c0.1,0.1,0,0.3-0.1,0.3c-0.1,0.1-0.2,0.1-0.3,0c-1.3-1.5-3.1-2.4-5.1-2.5c-2,0.1-3.8,0.9-5.3,2.2c-1.5,1.2-2.6,2.8-3.2,4.6
	c-0.6,1.9-0.8,4-0.5,6c0.4,2.3,1.2,4.5,2.4,6.5c0.6,1.1,1.4,2.2,2.2,3.2c1.3,1.6,2.9,3,4.8,4c1.6,0.9,3.3,1.4,5.1,1.3
	c1.7,0,3.3-0.7,4.6-1.8c1.4-1.2,2.4-2.8,2.9-4.6c0.5-2.2,0.6-4.6,0.1-6.8c0-0.1,0-0.1,0-0.2c0.1-0.1,0.2-0.1,0.3-0.1
	c0.1,0,0.2,0,0.2,0.1l2.1,4.7c0.1,0.2,0.2,0.5,0.3,0.8c0,0.2-0.1,0.4-0.2,0.6c-1.5,2.4-3.3,4.5-5.4,6.2
	C17.7,111.4,14.7,112.4,11.8,111.9z"/>
<path d="M31.9,78c0.6,0,1.2,0.3,1.5,0.8c0.3,0.3,0.4,0.8,0.3,1.2c-0.1,0.4-0.3,0.8-0.6,1c-0.2,0.2-0.5,0.3-0.8,0.3
	c-0.3,0-0.6-0.1-0.9-0.2c-0.2-0.1-0.4-0.1-0.6-0.1c-0.2,0-0.4,0-0.5,0.1c-0.6,0.4-0.7,1.6-0.4,3.6c0.3,2.3,0.8,4.5,1.5,6.8
	c0.6,2.2,1.4,4.3,2.3,6.4c0.1,0.2,0.1,0.5-0.1,0.7c-0.2,0.3-0.4,0.6-0.7,0.7c-0.2,0.2-0.4,0.3-0.7,0.4c-0.1,0-0.2,0-0.3-0.1l-0.4-1
	l-1-2.3l-3.6-7.8c-0.3-0.7-0.7-1.4-1.1-2.1c-0.8-1.1-1.5-1.5-2.1-1.1c-0.6,0.4-1,1.4-1.3,3l0,0.1c-0.1,0.1-0.2,0.1-0.3,0
	c-0.1-0.1-0.2-0.1-0.2-0.2c0.1-1.2,0.4-2.3,0.8-3.4c0.3-0.8,0.8-1.5,1.5-2c0.4-0.3,1-0.4,1.5-0.3c0.6,0.3,1.2,0.8,1.5,1.4
	c0.6,1,1.2,2,1.7,3.1l2.2,4.8c-0.9-2.8-1.5-5.7-1.9-8.6c-0.2-2.5,0.1-4.1,1.1-4.8C30.7,78.1,31.3,78,31.9,78z"/>
<path d="M45.9,73.9c-0.5,1.5-1.2,2.8-2.2,4.1c-1.1,1.5-2.4,2.9-3.8,4.1c0.3,0.8,0.7,1.5,1.1,2.3c0.8,1.4,2,2.5,3.5,3.2
	c1.3,0.5,2.8,0.3,4-0.5c1.4-0.9,2.5-2.2,3.1-3.7l0.1,0c0.1,0,0.2-0.1,0.3,0c0.1,0,0.2,0.1,0.1,0.2c0,0,0,0,0,0
	c-0.7,2.4-2.2,4.5-4.3,5.8c-1.4,1-3.1,1.3-4.7,0.8c-1.6-0.6-3-1.8-3.8-3.3c-0.4-0.7-0.8-1.4-1.1-2.1c-0.6-1.6-0.9-3.3-0.8-4.9
	c0-1.8,0.5-3.6,1.2-5.2c0.7-1.6,1.8-2.9,3.3-3.8c0.7-0.5,1.5-0.7,2.3-0.8c0.6,0,1.2,0.3,1.5,0.8C46.2,71.8,46.3,72.9,45.9,73.9z
	 M38.8,76.4c-0.1,1.7,0.2,3.5,0.8,5.1c1.4-1.2,2.6-2.6,3.5-4.2c0.7-1.1,0.9-2.4,0.6-3.6c-0.1-0.2-0.2-0.4-0.3-0.6
	c-0.2-0.4-0.7-0.7-1.2-0.7c-0.5,0-1,0.2-1.5,0.5C39.6,73.6,38.9,74.9,38.8,76.4z"/>
<path d="M69.1,72.3c0.1,0,0.2,0,0.3,0c0.1,0.1,0.1,0.1,0.1,0.2c-0.2,1.3-0.6,2.5-1.1,3.7c-0.3,0.8-0.9,1.5-1.6,1.9
	c-0.4,0.2-0.8,0.3-1.3,0.1c-0.5-0.3-0.9-0.7-1.1-1.2c-0.4-0.7-0.7-1.5-0.9-2.3l-1.6-4.6c0.2,2.8-0.1,5.6-0.9,8.3
	c-0.7,2.4-1.8,3.9-3.2,4.7c-1.7,0.9-3,0.4-4.1-1.6c-0.1-0.2-0.3-0.6-0.6-1.3c-0.8-2.2-1.2-4.6-1-6.9c0.1-2.4,0.5-4.8,1.4-7
	c0.6-1.8,1.8-3.3,3.4-4.3c0.5-0.3,1.1-0.5,1.6-0.5c0.6-0.1,1.1,0,1.6,0.2c0.3-0.6,0.3-1.3,0.2-2c0-0.1,0.1-0.2,0.2-0.2
	c0.2-0.1,0.3-0.1,0.3,0l4.7,14.1c0.1,0.4,0.3,0.8,0.5,1.2c0.5,0.8,0.9,1.1,1.4,0.9c0.6-0.3,1.1-1.4,1.6-3.3
	C69.1,72.4,69.1,72.3,69.1,72.3z M60.4,77.4c1.1-3.5,1.1-7.3,0.1-10.8c-0.1-0.3-0.2-0.7-0.4-1c-0.3-0.7-0.9-1.3-1.7-1.6
	c-0.8-0.2-1.6-0.1-2.3,0.3c-1,0.7-1.8,1.7-2.2,2.9c-0.6,1.5-0.8,3.1-0.7,4.7c0,1.9,0.4,3.7,1.1,5.4c0.2,0.6,0.5,1.1,0.8,1.7
	c0.9,1.6,1.9,2.1,3,1.5C59.3,79.8,60.1,78.7,60.4,77.4L60.4,77.4z"/>
<path d="M76.2,53.7c0.1,0.4,0.1,0.7,0,1.1c-0.1,0.4-0.3,0.7-0.6,1c-0.1,0.1-0.7,0.3-1.7,0.6c-1,0.3-2,0.7-2.9,1.1l3.2,11.1
	c0.1,0.4,0.3,0.9,0.5,1.3c0.3,1,1.4,1.6,2.5,1.3c0.2-0.1,0.4-0.2,0.6-0.3c0.7-0.3,1.3-0.8,1.8-1.5c0.5-0.7,1-1.5,1.3-2.3l0,0
	c0.1,0,0.2,0,0.3,0c0.1,0,0.2,0.1,0.1,0.2c-0.6,1.4-1.3,2.7-2.1,3.9c-0.6,0.9-1.4,1.5-2.3,2c-0.7,0.4-1.5,0.5-2.3,0.3
	c-0.8-0.2-1.5-0.8-1.8-1.6c-0.1-0.3-0.3-0.6-0.4-1l-2.9-10.5c-0.1-0.5-0.3-1-0.5-1.4c-0.2-0.4-0.4-0.6-0.7-0.6
	c-0.5,0-0.9,0.2-1.3,0.4c-0.1,0-0.2,0-0.2-0.1c0-0.1,0-0.1,0-0.2c0-0.1,0-0.1,0.1-0.2c0.9-0.4,1.6-1.2,2-2.1c0.4-0.9,0.5-2,0.3-3
	c0-0.1,0.1-0.2,0.3-0.3c0.3-0.1,0.4-0.1,0.4,0l0.9,3.3c1.3-0.7,2.6-1.4,3.7-2.1l1.4-0.8C75.9,53.4,76.1,53.5,76.2,53.7
	C76.2,53.6,76.2,53.7,76.2,53.7z"/>
<path d="M79.6,44.7c-0.5-0.2-0.9-0.6-1.1-1.1c-0.2-0.5-0.3-1-0.1-1.5c0.2-0.5,0.6-0.9,1.1-1c0.5-0.2,1-0.3,1.5-0.1
	c0.5,0.2,0.8,0.6,1,1.1c0.2,0.5,0.3,1,0.1,1.5c-0.2,0.5-0.6,0.9-1.1,1.1C80.7,44.9,80.1,44.9,79.6,44.7z M86.9,67.8
	c-0.5-0.3-0.8-0.8-1-1.3c-0.3-0.8-0.5-1.6-0.7-2.4L83,54.7c-0.1-0.4-0.2-0.8-0.4-1.2c-0.4-0.9-0.9-1.2-1.4-1
	c-0.4,0.3-0.8,0.6-1.1,1.1c-0.4,0.7-0.8,1.4-1,2.1c0,0-0.1,0.1-0.1,0.1c-0.1,0-0.2,0-0.3,0c-0.1-0.1-0.1-0.1-0.1-0.2
	c0.4-1.3,0.9-2.5,1.6-3.6c0.4-0.8,1.1-1.4,1.9-1.8c0.4-0.2,0.9-0.2,1.3-0.1c0.5,0.3,0.8,0.8,1,1.3c0.3,0.7,0.5,1.5,0.7,2.3l2.2,9.6
	c0.1,0.4,0.2,0.8,0.4,1.2c0.4,0.9,0.8,1.2,1.4,1c0.7-0.3,1.4-1.3,2-3.1c0-0.1,0.2-0.2,0.3-0.2c0,0,0.1,0,0.1,0.1
	c0.1,0.1,0.1,0.2,0.1,0.3c-0.4,1.2-0.9,2.4-1.5,3.6c-0.4,0.8-1.1,1.4-1.9,1.8C87.8,68,87.3,68,86.9,67.8L86.9,67.8z"/>
<path d="M111.2,54.1c0.1,0,0.2,0,0.3,0.1c0.1,0.1,0.1,0.2,0.1,0.3c0,0,0,0,0,0c-0.4,1.2-0.9,2.4-1.6,3.5c-0.4,0.7-1.1,1.3-1.9,1.7
	c-0.4,0.2-0.9,0.2-1.3,0c-0.5-0.3-0.8-0.8-0.9-1.3c-0.3-0.8-0.5-1.6-0.6-2.4l-1.4-7.3c-0.1-0.8-0.4-1.6-0.6-2.4
	c-0.6-1.7-1.6-2.2-2.8-1.8c-0.9,0.4-1.7,1.3-2.2,2.9c-0.6,2.1-0.9,4.2-0.8,6.4c0,3,0.4,6,1,8.9c0,0.2-0.1,0.5-0.3,0.6
	c-0.3,0.2-0.6,0.4-0.9,0.5c-0.3,0.1-0.5,0.2-0.8,0.2c-0.1,0-0.2,0-0.3-0.1l-0.2-1.1c-0.1-0.8-0.2-1.6-0.4-2.5l-2-10.2
	c-0.1-0.4-0.2-0.8-0.3-1.2c-0.4-0.9-0.8-1.3-1.4-1c-0.5,0.2-0.8,0.6-1.1,1c-0.4,0.7-0.8,1.4-1.1,2.1c0,0-0.1,0.1-0.1,0.1
	c-0.1,0-0.2,0-0.3-0.1C89,51,89,51,89.1,50.9c0.4-1.2,1-2.4,1.7-3.5c0.5-0.8,1.2-1.4,2-1.7c0.4-0.2,0.9-0.2,1.2,0
	c0.4,0.3,0.7,0.8,0.9,1.3c0.3,0.7,0.5,1.5,0.7,2.3l1.1,5.5c-0.2-2.8,0.1-5.7,0.9-8.4c0.8-2.2,1.9-3.6,3.4-4.2c0.8-0.4,1.6-0.4,2.4,0
	c0.8,0.5,1.4,1.3,1.6,2.2c0.3,0.8,0.5,1.7,0.7,2.5l1.6,8.2c0.1,0.4,0.2,0.8,0.3,1.2c0.3,0.9,0.8,1.2,1.4,1c0.6-0.2,1.3-1.3,2-3.1
	C111.1,54.1,111.2,54.1,111.2,54.1z"/>
<path d="M124.3,35.1c0.1,0.4,0.2,0.8,0.2,1.2c0,0.4-0.1,0.6-0.2,0.6c-0.9-0.1-1.8,0-2.6,0.3c-0.3,0.1-0.6,0.2-0.9,0.3
	c0.9,0.7,1.6,1.7,2,2.8c0.2,0.6,0.3,1.1,0.4,1.7c0.2,1.3,0,2.6-0.4,3.9c-0.4,1.2-1,2.2-1.9,3.1c-0.8,0.8-1.7,1.5-2.8,1.8
	c-0.4,0.1-0.7,0.2-1.1,0.3c-0.2,0.5-0.3,1.1-0.2,1.6c0.2,0.8,0.7,1.4,1.5,1.7c1.2,0.4,2.4,0.7,3.7,0.8c1.3,0.2,2.3,0.4,3.1,0.6
	c0.8,0.2,1.5,0.5,2.2,1c0.7,0.4,1.2,1.1,1.4,1.9c0.4,1.2,0.3,2.4-0.2,3.5c-0.6,1.3-1.5,2.5-2.6,3.5c-1.3,1.1-2.7,1.9-4.3,2.4
	c-1.7,0.7-3.5,0.8-5.2,0.3c-1.3-0.3-2.4-1.3-2.8-2.5c-0.4-1.3-0.2-2.8,0.5-3.9c1-1.7,2.2-3.3,3.6-4.8c-1.1-0.2-2-0.9-2.4-1.9
	c-0.2-0.6-0.2-1.2,0-1.8c0.2-0.8,0.6-1.5,1-2.2c-1,0-1.9-0.4-2.6-1c-0.8-0.7-1.3-1.6-1.6-2.6c-0.7-2.4-0.4-5,0.8-7.2
	c0.9-1.6,2.3-2.8,4.1-3.4c1.1-0.4,2.2-0.4,3.3,0c1.1-1.1,2.4-1.9,3.8-2.5C124,34.6,124.1,34.7,124.3,35.1z M120.7,42.3
	c-0.4-1.3-1.1-2.4-2-3.4c-0.7-0.8-1.8-1.1-2.8-0.8c-0.9,0.4-1.7,1.1-2,2.1c-0.5,1.2-0.6,2.4-0.4,3.7c0.1,0.6,0.2,1.1,0.4,1.7
	c0.4,1.3,1.1,2.4,2,3.3c0.7,0.8,1.8,1,2.8,0.7c0.9-0.3,1.6-1.1,2-2c0.5-1.2,0.6-2.5,0.3-3.7C121,43.4,120.9,42.9,120.7,42.3z
	 M124.9,58.8c-1.4-0.5-2.9-0.9-4.3-1.1c-0.8-0.1-1.7-0.2-2.5-0.4c-0.9,1.1-1.7,2.2-2.4,3.4c-1,2-0.1,4.5,2,5.4
	c0.2,0.1,0.4,0.2,0.6,0.2c1.6,0.4,3.3,0.4,4.9-0.2c1.3-0.3,2.5-1.1,3.3-2.2c0.6-0.9,0.8-2,0.4-3C126.7,60,125.9,59.2,124.9,58.8
	L124.9,58.8z"/>
<path d="M151,28.6c1,0.8,1.8,1.9,2,3.2c0.1,0.5,0.2,1.1,0.3,1.6c0.2,2.1,0,4.1-0.6,6.1c-0.6,1.9-1.5,3.7-2.8,5.2
	c-1.1,1.3-2.5,2.3-4.2,2.7c-0.8,0.2-1.7,0.4-2.6,0.5l0.6,8.4c0,0.4,0.1,0.9,0.2,1.3c0.1,0.4,0.3,0.8,0.7,1.1c0.4,0.2,0.9,0.2,1.3,0
	c0.2,0,0.5-0.2,1-0.4l0,0c0.1,0,0.2,0,0.2,0.2c0.1,0.1,0,0.2-0.1,0.3l-7.4,3.1c-0.1,0.1-0.2,0-0.3-0.2c-0.1-0.2-0.1-0.3,0.1-0.3
	c0.5-0.2,1-0.5,1.4-0.8c0.3-0.3,0.5-0.7,0.5-1.1c0.1-0.7,0-1.5,0-2.2l-1.6-22.1l-1.6,2l-0.1,0.1c-0.1,0-0.2,0-0.3-0.1
	c-0.1-0.1-0.1-0.2-0.1-0.2c0.6-0.9,1.3-1.8,2-2.7l-0.3-3.5c0.1-0.3,0.3-0.6,0.5-0.8c0.3-0.5,0.6-1,0.8-1.5c0.2-0.5,0.3-1,0.3-1.6
	c0-0.1,0-0.2,0.2-0.2c0.1,0,0.1,0,0.2,0c0.1,0,0.1,0.1,0.1,0.1l0.4,4.9c1.5-1.6,3.4-2.8,5.5-3.4C148.6,27.8,149.9,28,151,28.6z
	 M150.8,33.7c-0.7-2.9-2.3-4-4.8-3.3c-1.5,0.4-2.9,1.3-4,2.4l0.9,13.2c1.2,0.2,2.5,0.2,3.7-0.1c1.8-0.4,3.3-1.7,3.9-3.5
	c0.8-2.2,1-4.5,0.6-6.8C151,34.9,150.9,34.3,150.8,33.7L150.8,33.7z"/>
<path d="M159.5,42.6c-1.4-1.2-2.3-2.8-2.5-4.6c-0.2-0.8-0.3-1.7-0.3-2.5c0-1.8,0.3-3.5,0.9-5.1c0.6-1.5,1.5-2.9,2.7-4
	c1.1-1.1,2.5-1.8,3.9-2.1c1.6-0.4,3.4-0.1,4.7,1c1.4,1.2,2.3,2.8,2.5,4.5c0.2,0.9,0.3,1.7,0.3,2.6c0,1.8-0.3,3.6-1,5.3
	c-0.6,1.5-1.6,2.9-2.8,4c-1.1,1-2.4,1.7-3.8,2C162.5,44,160.8,43.7,159.5,42.6z M168.5,39.8c0.8-1.5,1.2-3.2,1.1-5
	c0-0.9-0.1-1.8-0.3-2.7c-0.3-1.9-1.1-3.6-2.3-5.1c-0.9-1.2-2.4-1.8-3.9-1.5c-1.3,0.3-2.5,1.2-3.1,2.4c-0.8,1.5-1.2,3.3-1.2,5
	c0,0.9,0.1,1.9,0.3,2.8c0.3,1.8,1.1,3.5,2.3,4.9c0.9,1.2,2.4,1.8,3.9,1.5C166.8,41.9,167.9,41,168.5,39.8z"/>
<path d="M198.5,22.8c0.1,0.9,0.2,1.8,0.2,2.7c0.1,2.2-0.3,4.3-1,6.4c-0.6,1.7-1.5,3.3-2.7,4.7c-0.8,1-2,1.7-3.2,2
	c-0.8,0.1-1.6-0.1-2.3-0.5c-0.8-0.5-1.4-1.3-1.9-2.1c-0.7,1.1-1.5,2-2.5,2.8c-0.8,0.6-1.7,1.1-2.7,1.3c-1.2,0.2-2.4-0.1-3.2-1
	c-0.9-1-1.5-2.2-1.6-3.5c-0.2-1.2-0.1-2.5,0.2-3.7c0.3-1.4,0.7-3,1.3-4.9c0.1-0.3,0.2-0.6,0.2-0.8c0.1-0.2,0.1-0.4,0.2-0.6
	c0.1-0.2,0.1-0.5,0.1-0.7c0-0.3-0.3-0.4-0.7-0.4l-2.3,0.4c-0.6,0.1-1.2,0.2-1.8,0.4c-0.4,0.2-0.6,0.4-0.8,0.8
	c-0.2,0.5-0.4,1.1-0.5,1.7c0,0.1-0.1,0.2-0.3,0.2c-0.1,0-0.2,0-0.2-0.1c-0.1-0.1-0.1-0.1-0.1-0.2c0.2-1.1,0.4-2.1,0.7-3.2
	c0.2-0.6,0.5-1.1,1-1.4c0.6-0.4,1.3-0.6,2.1-0.6l4-0.6c0.3-0.1,0.5,0,0.5,0.1c0,0.1,0,0.3-0.1,0.4c-0.5,1.8-0.9,3.7-1.2,5.5
	c-0.3,1.6-0.4,3.2-0.4,4.9c0,0.7,0.1,1.2,0.1,1.4c0.1,1.1,0.6,2.1,1.3,3c0.6,0.7,1.5,1,2.4,0.8c0.7-0.1,1.3-0.4,1.9-0.9
	c0.7-0.5,1.3-1.2,1.7-1.9c-0.5-1.2-0.9-2.5-1-3.7c-0.2-1.1-0.2-2.2-0.2-3.3c0-1.8,0.2-3.6,0.7-5.3c0.4-1.4,1-2.2,1.8-2.3
	c0.5-0.1,1.1,0.2,1.4,0.6c0.4,0.6,0.7,1.4,0.7,2.1c0.1,0.6,0.1,1.3,0.1,1.9c0,3.2-0.6,6.3-1.9,9.2c1.2,1.7,2.6,2.4,4.2,2.1
	c0.9-0.2,1.6-0.6,2.2-1.3c0.8-0.9,1.4-1.9,1.8-3c0.5-1.3,0.7-2.6,0.8-4c0-0.7,0-1.4-0.1-2.2c-0.1-0.8-0.3-1.5-0.7-2.2
	c-0.4-0.6-0.8-1.1-1.3-1.5c-0.3-0.2-0.5-0.4-0.7-0.6c-0.2-0.2-0.3-0.5-0.3-0.7c-0.1-0.4,0-0.9,0.4-1.2c0.3-0.3,0.7-0.5,1.2-0.6
	C197.2,18.8,198.1,20,198.5,22.8z M186.8,29.2c0.2,1.4,0.6,2.8,1.3,4.1c0.9-2.1,1.4-4.4,1.3-6.7c0-0.6-0.1-1-0.1-1.2
	c-0.1-0.6-0.2-1.1-0.5-1.6c-0.2-0.3-0.6-0.5-1-0.5c-0.4,0.1-0.7,0.4-0.9,1.1c-0.2,0.8-0.3,1.5-0.3,2.3
	C186.6,27.5,186.6,28.3,186.8,29.2z"/>
<path d="M213.9,21.7c-1.1,1.1-2.3,2-3.7,2.7c-1.7,0.8-3.4,1.5-5.2,2c-0.1,0.8,0,1.7,0,2.5c0.1,1.6,0.7,3.2,1.8,4.4
	c1,1.1,2.4,1.6,3.8,1.3c1.7-0.2,3.2-0.9,4.4-2l0.1,0c0.1,0,0.2,0,0.3,0.1c0.1,0.1,0.1,0.2,0,0.3c0,0,0,0,0,0c-1.7,1.8-3.9,3-6.4,3.4
	c-1.7,0.3-3.3-0.2-4.6-1.4c-1.2-1.3-1.9-2.9-2-4.6c-0.1-0.8-0.1-1.6,0-2.4c0.1-1.7,0.6-3.3,1.4-4.8c0.8-1.6,2-3,3.4-4.1
	c1.3-1.1,2.9-1.8,4.6-2c0.8-0.1,1.6,0,2.4,0.3c0.6,0.3,0.9,0.8,1,1.4C215.2,20,214.7,21,213.9,21.7z M206.5,20.8
	c-0.9,1.5-1.4,3.2-1.5,4.9c1.8-0.4,3.5-1.2,5-2.2c1.1-0.7,1.9-1.7,2.1-3c0-0.2,0-0.4,0-0.6c0-0.5-0.3-0.9-0.8-1.1
	c-0.5-0.2-1-0.3-1.6-0.2C208.5,18.7,207.2,19.6,206.5,20.8L206.5,20.8z"/>
<path d="M231,16.5c0.5,0.3,0.9,0.8,0.9,1.5c0,0.4-0.1,0.8-0.4,1.2c-0.3,0.3-0.6,0.5-1,0.5c-0.3,0-0.6,0-0.8-0.2
	c-0.3-0.2-0.5-0.4-0.7-0.6c-0.1-0.1-0.3-0.3-0.4-0.4c-0.1-0.1-0.3-0.2-0.5-0.2c-0.7,0-1.4,1-2.2,2.8c-0.9,2.1-1.6,4.3-2.2,6.6
	c-0.6,2.2-1,4.4-1.3,6.7c0,0.2-0.2,0.4-0.4,0.5c-0.3,0.2-0.7,0.2-1,0.3c-0.3,0-0.5,0-0.8,0c-0.1,0-0.2-0.1-0.2-0.2l0.2-1.1l0.3-2.5
	l0.9-8.6c0.1-0.8,0.1-1.6,0.1-2.4c-0.1-1.4-0.5-2-1.2-2c-0.7,0-1.6,0.7-2.7,1.9l-0.1,0.1c-0.1,0-0.2-0.1-0.2-0.1
	C217,20.1,217,20,217,20c0.7-0.9,1.5-1.8,2.5-2.5c0.7-0.5,1.4-0.9,2.3-0.9c0.5-0.1,1,0.1,1.4,0.5c0.4,0.6,0.6,1.3,0.6,2
	c0,1.2,0,2.3-0.1,3.5l-0.6,5.3c0.7-2.9,1.6-5.7,2.9-8.3c1.1-2.3,2.2-3.5,3.4-3.5C229.8,15.9,230.5,16.1,231,16.5z"/>
<path d="M248.5,0.6c0.6,0.4,0.9,1,0.9,1.6c0,0.4-0.2,0.8-0.5,1.1c-0.3,0.2-0.6,0.4-1,0.4c-0.4,0-0.7-0.1-1-0.3
	c-0.3-0.4-0.5-0.7-0.7-1.2c-0.2-0.4-0.4-0.8-0.6-1.1c-0.3-0.3-0.6-0.4-1-0.4c-1.2,0-2.2,1.1-3,3.2c-1,3.1-1.6,6.3-1.8,9.5l-0.3,2.9
	l2.9-0.3l1.8-0.2c0.3,0,0.4,0.1,0.3,0.4c-0.1,0.4-0.3,0.7-0.6,1c-0.2,0.3-0.5,0.5-0.9,0.5l-1-0.1c-0.9-0.1-1.8-0.2-2.7-0.2
	l-1.8,17.2c-0.2,2.4-0.6,4.7-1.2,7c-0.3,1.4-1,2.6-1.9,3.7c-0.8,0.8-2,1.2-3.1,1.2c-0.8,0.1-1.6-0.1-2.3-0.5
	c-0.5-0.3-0.7-0.8-0.7-1.4c0-0.4,0.2-0.8,0.5-1.1c0.3-0.3,0.7-0.4,1.1-0.4c0.4,0,0.7,0.1,1,0.3c0.3,0.3,0.5,0.7,0.6,1
	c0.1,0.3,0.2,0.6,0.4,0.9c0.2,0.2,0.4,0.3,0.7,0.2c0.4,0,0.7-0.3,0.9-0.8c0.3-0.9,0.6-1.8,0.7-2.8c0.2-1.4,0.5-3.4,0.8-6.2l1.7-16.3
	c0-0.6,0.1-1,0-1.2c0-0.6-0.2-0.9-0.6-1.1c-0.7-0.2-1.4-0.2-2.1-0.1c-0.1,0-0.1-0.1-0.1-0.2c0-0.1,0-0.1,0.1-0.2
	c0-0.1,0.1-0.1,0.1-0.1c0.8,0,1.6-0.2,2.3-0.6c0.5-0.4,0.8-1,0.8-1.6c0.3-3,0.9-5.9,1.7-8.7c0.4-1.7,1.4-3.2,2.6-4.4
	c1.3-0.9,2.8-1.4,4.4-1.4C246.8-0.1,247.7,0.1,248.5,0.6z"/>
<path d="M264.5,29.7c0.1,0,0.2,0.1,0.2,0.2c0.1,0.1,0.1,0.2,0,0.3c-0.8,1-1.8,1.9-2.9,2.7c-0.7,0.5-1.6,0.8-2.5,0.9
	c-0.4,0-0.9-0.1-1.2-0.5c-0.3-0.5-0.4-1-0.4-1.5c0-0.8,0.1-1.6,0.2-2.4l0.9-5.6c-0.8,2.7-2.1,5.3-3.8,7.5c-1.5,1.8-3.1,2.7-4.7,2.7
	c-2,0-3-1.1-3.1-3.4c0-0.9,0.1-1.8,0.3-2.7l1.6-8.2c0.1-0.4,0.1-0.8,0.1-1.2c0-0.9-0.3-1.4-0.9-1.4c-0.6,0-1.6,0.7-3,2.1
	c-0.1,0.1-0.2,0.1-0.3,0c0,0-0.1-0.1-0.1-0.1c-0.1-0.1,0-0.2,0-0.3c0.8-1,1.8-1.9,2.8-2.7c0.7-0.5,1.5-0.9,2.4-0.9
	c1.1,0,1.6,0.7,1.6,2.1c0,0.8-0.1,1.6-0.3,2.4l-1.4,7.3c-0.2,0.8-0.3,1.7-0.3,2.5c0,1.7,0.7,2.6,2,2.6c1,0,2.1-0.7,3.1-2
	c1.3-1.7,2.3-3.6,3-5.6c1-2.8,1.8-5.7,2.2-8.7c0.1-0.5,0.6-0.7,1.5-0.7c0.7,0,1.1,0.1,1.1,0.3l-0.2,1.1c-0.2,0.7-0.3,1.6-0.5,2.4
	l-1.8,10.3c-0.1,0.4-0.1,0.8-0.1,1.2c0,1,0.3,1.5,0.9,1.5c0.5-0.1,1-0.3,1.4-0.6c0.7-0.5,1.3-1,1.8-1.6
	C264.4,29.7,264.5,29.7,264.5,29.7z"/>
<path d="M268.4,33.4c-0.3-0.5-0.4-1.1-0.3-1.6c0-0.8,0.2-1.6,0.3-2.4l5.3-24.2c0.1-0.3,0.1-0.7,0.1-1c0-0.8-0.3-1.2-0.9-1.2
	c-0.8,0.1-1.5,0.3-2.2,0.6l-0.1,0c-0.1,0-0.2-0.1-0.2-0.2c0-0.2,0-0.2,0.1-0.3l6-2.7l0.1,0c0.1,0,0.2,0.1,0.3,0.1
	c0.1,0.1,0.1,0.2,0.1,0.2l-6.2,28.7c-0.1,0.4-0.2,0.9-0.2,1.3c0,0.4,0,0.7,0.2,1c0.1,0.2,0.4,0.4,0.7,0.4c0.6,0,1.7-0.7,3-2
	c0-0.1,0.1-0.1,0.2-0.1c0.1,0,0.2,0.1,0.2,0.2c0.1,0.1,0,0.2-0.1,0.3c-0.8,1-1.8,1.9-2.9,2.6c-0.7,0.5-1.5,0.8-2.4,0.8
	C269.2,33.9,268.7,33.8,268.4,33.4z"/>
<path d="M306.4,18.7c0.6,1.1,0.9,2.3,0.7,3.5c-0.1,0.7-0.2,1.3-0.4,2c-0.6,2.3-1.8,4.4-3.3,6.2c-1.4,1.6-3.1,2.9-5,3.8
	c-1.5,0.8-3.2,1.1-4.9,1c-1.2,0-2.3-0.5-3.2-1.2c-0.8-0.6-1.1-1.6-1-2.6c0-0.3,0.1-0.5,0.2-0.8l6.8-24.4c0.1-0.5,0.2-0.8,0.2-0.9
	c0.1-0.8-0.2-1.3-0.9-1.3c-0.8,0-1.5,0.2-2.3,0.5l-0.1,0c-0.1,0-0.2-0.1-0.2-0.2c0-0.2,0-0.2,0.2-0.3l6.2-2.4l0.1,0
	c0.1,0,0.2,0.1,0.3,0.2c0.1,0.1,0.1,0.2,0.1,0.2l-6.1,22.5c1.1-2.2,2.7-4.1,4.7-5.6c1.5-1.3,3.5-2,5.5-1.9
	C304.8,17.2,305.8,17.8,306.4,18.7z M304.1,23c0.1-0.9,0-1.9-0.4-2.7c-0.4-0.7-1.2-1.1-2-1.1c-1.3-0.1-2.7,0.3-3.7,1.2
	c-1.4,1-2.6,2.4-3.4,3.9c-1.1,1.9-1.9,3.9-2.5,6c-0.1,0.2-0.1,0.4-0.1,0.6c-0.1,0.9,0.2,1.8,0.8,2.4c0.7,0.7,1.7,1.1,2.7,1.1
	c1.1,0.1,2.2-0.2,3.1-0.9c1.2-0.8,2.2-1.8,2.9-3.1c1-1.5,1.7-3.2,2.1-4.9C303.8,24.6,304,23.8,304.1,23z"/>
<path d="M323.4,20.3c0.5,0.4,0.7,1,0.6,1.6c0,0.4-0.2,0.8-0.6,1.1c-0.3,0.3-0.7,0.4-1.1,0.3c-0.3,0-0.6-0.1-0.8-0.3
	c-0.2-0.2-0.4-0.5-0.5-0.8c-0.1-0.2-0.2-0.3-0.4-0.5c-0.1-0.1-0.3-0.2-0.5-0.3c-0.7-0.1-1.6,0.7-2.7,2.3c-1.3,1.9-2.4,3.9-3.4,6
	c-1,2-1.9,4.2-2.6,6.3c-0.1,0.2-0.3,0.4-0.5,0.4c-0.3,0.1-0.7,0.1-1,0.1c-0.3,0-0.5-0.1-0.8-0.2c-0.1-0.1-0.2-0.1-0.2-0.2l0.4-1
	l0.8-2.4l2.6-8.3c0.3-0.8,0.4-1.5,0.6-2.3c0.2-1.4-0.1-2.1-0.8-2.2c-0.7-0.1-1.7,0.4-3,1.3l-0.1,0c-0.1,0-0.2-0.1-0.2-0.2
	c0-0.1-0.1-0.2,0-0.3c0.9-0.8,1.8-1.5,2.9-2c0.7-0.4,1.6-0.6,2.4-0.5c0.5,0,1,0.3,1.3,0.8c0.3,0.7,0.3,1.4,0.2,2.1
	c-0.2,1.2-0.5,2.3-0.8,3.4l-1.6,5.1c1.2-2.7,2.7-5.2,4.4-7.6c1.5-2,2.8-3,4-2.8C322.4,19.6,323,19.9,323.4,20.3z"/>
<path d="M339.9,37.1c0.1,0,0.2,0.1,0.2,0.2c0,0.1,0,0.2,0,0.2c-1,0.8-2,1.6-3.2,2.2c-0.8,0.4-1.6,0.6-2.5,0.5
	c-0.4,0-0.8-0.3-1.1-0.7c-0.2-0.5-0.3-1.1-0.1-1.6c0.2-0.8,0.4-1.6,0.7-2.4l1.6-4.6c-1.6,2.3-3.5,4.4-5.8,6c-2,1.4-3.8,2-5.4,1.7
	c-1.9-0.3-2.6-1.6-2.3-3.8c0-0.2,0.1-0.7,0.3-1.3c0.7-2.2,1.9-4.3,3.5-6.1c1.5-1.9,3.4-3.4,5.5-4.6c1.6-1,3.4-1.5,5.3-1.3
	c0.6,0.1,1.1,0.3,1.6,0.6c0.5,0.3,0.9,0.7,1.2,1.2c0.6-0.3,1.1-0.8,1.4-1.5c0-0.1,0.2-0.1,0.3,0c0.2,0.1,0.2,0.1,0.2,0.2l-5,14
	c-0.2,0.4-0.3,0.8-0.3,1.2c-0.2,0.9,0,1.5,0.6,1.5c0.7,0.1,1.8-0.4,3.3-1.6C339.8,37.1,339.8,37,339.9,37.1z M329.9,35.7
	c3-2.1,5.4-5,6.8-8.4c0.1-0.3,0.2-0.7,0.3-1c0.2-0.8,0-1.6-0.4-2.2c-0.5-0.6-1.2-1-2-1.1c-1.2-0.1-2.5,0.2-3.5,0.9
	c-1.4,0.8-2.6,2-3.5,3.3c-1.1,1.5-1.9,3.2-2.5,4.9c-0.2,0.6-0.3,1.2-0.4,1.8c-0.3,1.8,0.2,2.8,1.5,3
	C327.5,36.9,328.8,36.5,329.9,35.7z"/>
<path d="M360.7,41.4c0.1,0,0.2,0.1,0.2,0.2c0.1,0.1,0,0.2-0.1,0.3c0,0,0,0,0,0c-1,0.8-2.1,1.5-3.3,2.1c-0.8,0.4-1.6,0.5-2.5,0.4
	c-0.5-0.1-0.9-0.3-1.1-0.7c-0.2-0.5-0.2-1.1-0.1-1.6c0.2-0.8,0.5-1.6,0.8-2.3l2.8-6.9c0.3-0.8,0.6-1.6,0.8-2.4
	c0.4-1.7-0.1-2.7-1.4-3c-1-0.2-2.2,0.2-3.5,1.2c-1.6,1.4-3,3-4.2,4.9c-1.6,2.5-3,5.2-4,8c-0.1,0.2-0.3,0.4-0.6,0.4
	c-0.3,0.1-0.7,0.1-1.1,0c-0.3,0-0.6-0.1-0.8-0.2c-0.1-0.1-0.2-0.2-0.2-0.2l0.4-1c0.3-0.7,0.7-1.4,1-2.3l4-9.6
	c0.2-0.4,0.3-0.8,0.4-1.2c0.2-1,0-1.5-0.6-1.6c-0.5-0.1-1,0-1.5,0.2c-0.7,0.3-1.4,0.7-2.1,1.2c0,0-0.1,0-0.1,0
	c-0.1,0-0.2-0.1-0.2-0.2c-0.1-0.1,0-0.2,0.1-0.2c1-0.8,2.2-1.5,3.4-2c0.8-0.4,1.7-0.5,2.6-0.3c0.4,0.1,0.8,0.3,1,0.7
	c0.2,0.5,0.2,1.1,0,1.6c-0.2,0.8-0.4,1.6-0.7,2.3l-2.1,5.2c1.4-2.5,3.2-4.7,5.4-6.5c1.8-1.4,3.6-2,5.2-1.7c0.8,0.1,1.6,0.6,2,1.3
	c0.4,0.9,0.4,1.8,0.2,2.7c-0.2,0.9-0.5,1.7-0.8,2.5l-3.2,7.7c-0.2,0.4-0.3,0.8-0.4,1.2c-0.2,0.9,0,1.5,0.6,1.6
	c0.6,0.1,1.8-0.4,3.4-1.5C360.6,41.4,360.6,41.3,360.7,41.4z"/>
<path d="M376.6,45c-0.2,0.4-0.3,0.7-0.4,1.1c-0.2,0.9-0.1,1.5,0.5,1.7c0.6,0.2,1.8-0.3,3.5-1.3c0,0,0.1-0.1,0.2-0.1
	c0.1,0,0.2,0.1,0.2,0.2c0.1,0.1,0,0.2-0.1,0.3c0,0,0,0,0,0c-1.1,0.7-2.2,1.4-3.5,1.9c-0.8,0.3-1.7,0.4-2.5,0.2c-1-0.3-1.4-1.1-1-2.4
	c0.3-0.8,0.6-1.6,0.9-2.3l2-4.2c-1.7,2.1-3.8,3.9-6.1,5.4c-1.5,1.1-3.4,1.5-5.3,1.2c-1-0.2-1.8-0.9-2.3-1.7
	c-0.5-1.1-0.6-2.4-0.1-3.6c0.2-0.6,0.4-1.2,0.7-1.8c1-2,2.3-3.9,4-5.4c1.6-1.5,3.5-2.6,5.6-3.3c1.8-0.6,3.7-0.8,5.5-0.3
	c0.8,0.2,1.4,0.6,2,1.1L385,22c0.2-0.5,0.3-0.8,0.3-0.9c0.2-0.8,0-1.2-0.7-1.4c-0.8-0.1-1.6-0.1-2.4,0.1l-0.1,0
	c-0.1,0-0.1-0.1-0.1-0.3c0-0.2,0.1-0.2,0.2-0.2l6.5-1.3l0.1,0c0.1,0,0.2,0.1,0.2,0.2c0.1,0.1,0.1,0.2,0,0.2L376.6,45z M371.5,43.9
	c1.7-1.2,3.2-2.6,4.5-4.2c1.1-1.2,1.9-2.6,2.4-4.2c0.3-0.8,0.2-1.6-0.2-2.3c-0.5-0.7-1.2-1.1-2-1.3c-1.9-0.5-4-0.1-5.6,1
	c-2,1.4-3.6,3.4-4.5,5.7c-0.3,0.6-0.5,1.3-0.7,2c-0.3,1-0.3,2-0.1,3c0.3,0.7,0.9,1.3,1.7,1.5C368.6,45.3,370.3,44.9,371.5,43.9
	L371.5,43.9z"/>
<path d="M381.5,50.4c-0.6-0.6-0.8-1.5-0.4-2.3c0.1-0.3,0.4-0.6,0.7-0.8c0.3-0.1,0.7-0.2,1-0.1c0.2,0.1,0.4,0.2,0.6,0.5
	c0.1,0.3,0.3,0.7,0.3,1.1c0.1,0.6,0.4,1.2,0.7,1.7c0.4,0.5,0.9,0.9,1.5,1c1.6,0.5,2.8-0.1,3.6-1.8c0.1-0.2,0.2-0.4,0.2-0.6
	c0.3-0.8,0.3-1.6,0-2.4c-0.4-1-0.9-1.9-1.5-2.8c-0.6-0.9-1.1-1.8-1.5-2.8c-0.3-0.8-0.3-1.6-0.1-2.4c0.1-0.2,0.2-0.5,0.3-0.7
	c0.6-1.2,1.7-2.1,3.1-2.5c1.3-0.4,2.8-0.4,4.1,0c0.9,0.2,1.7,0.7,2.3,1.4c0.5,0.4,0.7,1.1,0.6,1.8c-0.1,0.4-0.4,0.7-0.7,0.9
	c-0.3,0.1-0.7,0.2-1.1,0.1c-0.3-0.1-0.6-0.3-0.7-0.5c-0.2-0.3-0.4-0.7-0.5-1c-0.1-0.5-0.3-0.9-0.6-1.3c-0.3-0.4-0.7-0.6-1.2-0.7
	c-0.6-0.2-1.3-0.2-1.9,0.1c-0.6,0.3-1,0.9-1.2,1.5c-0.2,0.8-0.2,1.6,0.1,2.4c0.4,1,0.9,1.9,1.5,2.8c0.6,1,1.1,2,1.5,3
	c0.3,0.8,0.3,1.7,0,2.5c-0.3,1-0.9,1.8-1.7,2.5c-0.8,0.7-1.9,1.2-3,1.5c-1.1,0.3-2.3,0.2-3.4-0.1C383.2,51.8,382.3,51.2,381.5,50.4z
	"/>
<path d="M421.9,46.4c-0.2,0.3-0.5,0.6-0.8,0.7c-0.3,0.2-0.7,0.3-1.1,0.2c-0.1-0.1-0.7-0.3-1.6-0.8c-0.9-0.5-1.9-1-2.8-1.3l-6,9.9
	c-0.2,0.4-0.4,0.8-0.6,1.2c-0.5,0.9-0.2,2.1,0.7,2.7c0.2,0.1,0.4,0.2,0.6,0.2c0.7,0.3,1.5,0.4,2.3,0.3c0.9-0.1,1.7-0.3,2.6-0.6l0,0
	c0.1,0,0.2,0.1,0.2,0.2c0.1,0.1,0,0.2-0.1,0.2c-1.4,0.5-2.8,0.9-4.3,1.1c-1,0.1-2.1,0-3.1-0.3c-0.8-0.3-1.4-0.8-1.8-1.4
	c-0.4-0.7-0.4-1.6,0-2.4c0.1-0.3,0.3-0.6,0.4-0.9l5.7-9.3c0.3-0.4,0.5-0.9,0.7-1.3c0.2-0.3,0.1-0.6,0-0.9c-0.3-0.3-0.8-0.6-1.2-0.7
	c-0.1,0-0.1-0.1,0-0.3c0-0.1,0.1-0.1,0.1-0.2c0.1-0.1,0.1-0.1,0.1-0.1c0.9,0.4,2,0.4,2.9,0c1-0.4,1.8-1,2.4-1.8
	c0.1-0.1,0.2-0.1,0.4,0c0.3,0.1,0.4,0.2,0.3,0.3l-1.8,3c1.4,0.5,2.8,0.9,4.1,1.3l1.5,0.5C421.8,46,421.9,46.2,421.9,46.4
	C421.9,46.4,421.9,46.4,421.9,46.4z"/>
<path d="M418.5,62.3c-0.4-1.8-0.2-3.6,0.6-5.3c0.3-0.8,0.7-1.5,1.2-2.2c1-1.5,2.2-2.7,3.7-3.7c1.4-0.9,2.9-1.5,4.5-1.8
	c1.5-0.2,3,0,4.4,0.6c1.6,0.6,2.8,1.9,3.3,3.5c0.4,1.7,0.3,3.6-0.5,5.2c-1.1,2.5-2.9,4.6-5.2,6.1c-1.4,0.9-3,1.5-4.6,1.7
	c-1.5,0.2-2.9,0-4.3-0.6C420.1,65.2,418.9,63.9,418.5,62.3z M427.4,65.2c1.6-0.8,2.9-1.9,3.8-3.4c0.5-0.8,0.9-1.5,1.3-2.4
	c0.8-1.7,1.2-3.6,1-5.5c0-1.5-0.9-2.9-2.3-3.5c-1.3-0.5-2.7-0.5-3.9,0.2c-1.6,0.8-2.9,2-3.8,3.4c-0.5,0.8-1,1.6-1.4,2.5
	c-0.8,1.7-1.1,3.5-0.9,5.4c0.1,1.5,1,2.9,2.4,3.5C424.8,65.9,426.2,65.8,427.4,65.2L427.4,65.2z"/>
<path d="M455.6,61.7c-0.2,0.4-0.4,0.7-0.7,1c-0.3,0.3-0.5,0.4-0.6,0.3c-0.5-0.7-1.3-1.3-2.1-1.6c-0.3-0.1-0.6-0.3-0.8-0.4
	c0.2,1.2,0,2.4-0.6,3.4c-0.3,0.5-0.6,1-0.9,1.5c-0.8,1.1-1.8,1.9-3,2.5c-1.1,0.6-2.3,0.9-3.6,0.9c-1.1,0.1-2.3-0.2-3.3-0.7
	c-0.3-0.2-0.6-0.4-0.9-0.6c-0.5,0.2-1,0.6-1.3,1c-0.4,0.7-0.5,1.5-0.1,2.2c0.6,1.1,1.2,2.2,2,3.2c0.8,1.1,1.4,1.9,1.8,2.6
	c0.4,0.7,0.7,1.4,0.9,2.2c0.2,0.8,0.1,1.6-0.3,2.3c-0.6,1.1-1.5,1.9-2.7,2.4c-1.4,0.5-2.8,0.8-4.3,0.6c-1.6-0.1-3.2-0.6-4.7-1.3
	c-1.6-0.7-3-1.9-3.9-3.5c-0.7-1.1-0.8-2.6-0.2-3.8c0.6-1.2,1.8-2.1,3.1-2.5c1.9-0.5,3.9-0.8,5.9-0.9c-0.6-0.9-0.7-2-0.3-3
	c0.3-0.6,0.7-1,1.3-1.3c0.7-0.4,1.5-0.7,2.3-0.9c-0.7-0.7-1.1-1.6-1.1-2.6c-0.1-1,0.2-2.1,0.6-3c1.2-2.2,3.2-3.9,5.6-4.6
	c1.8-0.5,3.6-0.3,5.3,0.5c1,0.5,1.8,1.3,2.3,2.3c1.5,0,3.1,0.3,4.5,0.9C455.8,61.1,455.8,61.3,455.6,61.7z M439.4,79
	c-0.6-1.4-1.4-2.6-2.3-3.8c-0.5-0.6-1-1.3-1.4-2.1c-1.4,0.1-2.8,0.4-4.1,0.8c-2.1,0.8-3.2,3.1-2.4,5.3c0.1,0.2,0.2,0.4,0.3,0.6
	c0.8,1.5,2.1,2.6,3.7,3.3c1.2,0.7,2.6,0.9,3.9,0.8c1-0.2,1.9-0.8,2.4-1.8C439.8,81.1,439.8,80,439.4,79L439.4,79z M448,64.3
	c0.6-1.2,0.9-2.5,1-3.8c0.1-1-0.5-2-1.4-2.5c-0.9-0.4-2-0.4-2.9,0.1c-1.2,0.5-2.1,1.3-2.8,2.4c-0.3,0.5-0.6,1-0.9,1.5
	c-0.6,1.2-0.9,2.5-0.9,3.8c0,1,0.5,2,1.5,2.5c0.9,0.4,1.9,0.4,2.8,0c1.2-0.5,2.2-1.4,2.9-2.4C447.4,65.3,447.7,64.9,448,64.3
	L448,64.3z"/>
<path d="M465.1,71.6c-1.5,0.3-3.1,0.3-4.6,0c-1.8-0.3-3.7-0.7-5.4-1.4c-0.5,0.7-1,1.4-1.4,2.1c-0.9,1.4-1.3,3-1.1,4.6
	c0.2,1.4,1.1,2.6,2.3,3.3c1.4,0.8,3.1,1.1,4.8,0.9l0.1,0c0.1,0.1,0.1,0.1,0.2,0.2c0,0.1,0,0.2-0.1,0.2c0,0,0,0,0,0
	c-2.4,0.6-5,0.2-7.2-0.9c-1.5-0.7-2.6-2.1-2.9-3.8c-0.2-1.7,0.1-3.5,1-4.9c0.4-0.7,0.9-1.4,1.4-2c1.1-1.3,2.4-2.3,3.9-3.1
	c1.6-0.8,3.3-1.3,5.1-1.4c1.7-0.1,3.4,0.2,4.9,1c0.7,0.4,1.4,0.9,1.8,1.6c0.3,0.5,0.3,1.2,0,1.7C467.2,70.9,466.2,71.5,465.1,71.6z
	 M459.6,66.6c-1.6,0.7-3,1.8-4.1,3.2c1.7,0.7,3.5,1,5.4,1.1c1.3,0.1,2.5-0.3,3.5-1.2c0.1-0.2,0.3-0.3,0.4-0.5c0.3-0.4,0.3-0.9,0-1.3
	c-0.3-0.5-0.7-0.8-1.1-1.1C462.4,66,460.9,66,459.6,66.6z"/>
<path d="M480.8,76.9c-0.2,0.3-0.6,0.5-0.9,0.6c-0.4,0.2-0.8,0.2-1.1,0c-0.1-0.1-0.6-0.5-1.4-1.1c-0.8-0.7-1.7-1.3-2.5-1.9l-7.7,8.6
	c-0.3,0.3-0.6,0.7-0.8,1.1c-0.7,0.8-0.6,2.1,0.2,2.8c0.2,0.1,0.3,0.2,0.5,0.3c0.7,0.4,1.4,0.7,2.2,0.7c0.9,0.1,1.8,0,2.6-0.1l0,0
	c0.1,0.1,0.2,0.2,0.2,0.3c0,0.1,0,0.2-0.1,0.2c-1.5,0.3-3,0.4-4.4,0.3c-1-0.1-2-0.4-2.9-0.9c-0.7-0.4-1.2-1-1.5-1.8
	c-0.2-0.8-0.1-1.7,0.4-2.3c0.2-0.3,0.4-0.6,0.6-0.8l7.3-8.1c0.3-0.4,0.7-0.7,0.9-1.2c0.2-0.3,0.3-0.6,0.1-0.9
	c-0.3-0.4-0.6-0.7-1.1-0.9c-0.1,0-0.1-0.1,0-0.3c0-0.1,0.1-0.1,0.2-0.1c0.1,0,0.1-0.1,0.2,0c0.8,0.5,1.9,0.7,2.8,0.6
	c1-0.2,1.9-0.6,2.7-1.3c0.1,0,0.2,0,0.4,0.1c0.3,0.2,0.3,0.3,0.2,0.3l-2.3,2.6c1.3,0.7,2.6,1.4,3.8,2.1l1.4,0.7
	C480.9,76.5,480.9,76.6,480.8,76.9C480.9,76.8,480.8,76.8,480.8,76.9z"/>
<path d="M489.4,99.5c0.1,0.1,0.1,0.2,0.1,0.3c0,0.1-0.1,0.2-0.2,0.2c-1.3,0.4-2.5,0.6-3.8,0.6c-0.9,0-1.7-0.2-2.4-0.7
	c-0.4-0.2-0.7-0.6-0.7-1.1c0-0.6,0.2-1.1,0.6-1.5c0.5-0.7,1-1.3,1.6-1.8l5.3-5.2c0.6-0.6,1.2-1.2,1.7-1.9c1-1.5,1-2.6-0.1-3.3
	c-0.8-0.6-2-0.6-3.6-0.2c-2,0.6-3.9,1.5-5.6,2.7c-2.4,1.6-4.7,3.5-6.8,5.6l-0.3,0.3c-0.2,0.1-0.4,0.2-0.7,0.1
	c-0.3-0.1-0.7-0.2-1-0.4c-0.6-0.4-0.8-0.7-0.7-0.8l0.8-0.8c0.6-0.5,1.2-1.1,1.8-1.7l18.3-17.8c0.3-0.4,0.5-0.6,0.6-0.7
	c0.5-0.7,0.4-1.2-0.1-1.6c-0.7-0.4-1.4-0.6-2.2-0.7l-0.1-0.1c-0.1-0.1-0.1-0.2-0.1-0.3c0-0.1,0.1-0.2,0.2-0.2l6.5,1.1l0.1,0.1
	c0.1,0.1,0.2,0.2,0.2,0.3c0,0.1,0,0.2,0,0.3L481,87.6c2.2-1.7,4.7-2.9,7.4-3.7c2.2-0.6,4-0.4,5.3,0.6c0.7,0.4,1.2,1.2,1.3,2
	c0,0.9-0.3,1.9-0.9,2.6c-0.5,0.7-1.1,1.3-1.7,1.9l-6,5.8c-0.3,0.3-0.6,0.6-0.8,0.9c-0.5,0.8-0.6,1.3-0.1,1.7c0.6,0.4,1.8,0.4,3.7,0
	C489.2,99.4,489.3,99.4,489.4,99.5z"/>
<path d="M506.9,101c-1.5,0-3.1-0.2-4.5-0.8c-1.8-0.6-3.5-1.4-5.1-2.3c-0.6,0.6-1.2,1.2-1.8,1.8c-1.1,1.2-1.8,2.7-1.9,4.4
	c-0.1,1.4,0.6,2.8,1.7,3.6c1.3,1.1,2.9,1.7,4.5,1.7l0.1,0.1c0.1,0.1,0.1,0.2,0.1,0.3c0,0.1-0.1,0.2-0.2,0.2c0,0,0,0,0,0
	c-2.5,0.1-4.9-0.7-6.9-2.2c-1.4-1-2.2-2.5-2.2-4.2c0.1-1.7,0.7-3.4,1.9-4.7c0.5-0.6,1.1-1.2,1.7-1.7c1.3-1.1,2.8-1.9,4.4-2.4
	c1.7-0.5,3.5-0.7,5.3-0.5c1.7,0.2,3.3,0.8,4.6,1.9c0.7,0.5,1.2,1.1,1.5,1.9c0.2,0.6,0.1,1.2-0.3,1.7
	C509.1,100.6,508,101.1,506.9,101z M502.4,95.1c-1.7,0.4-3.3,1.3-4.6,2.4c1.6,0.9,3.3,1.6,5.1,2c1.2,0.3,2.6,0.1,3.6-0.6
	c0.2-0.1,0.3-0.3,0.5-0.4c0.3-0.4,0.4-0.9,0.2-1.3c-0.2-0.5-0.5-0.9-0.9-1.3C505.2,95,503.7,94.7,502.4,95.1z"/>
<path d="M522.6,109.9c0.1,0.6,0,1.2-0.4,1.7c-0.3,0.3-0.7,0.5-1.1,0.5c-0.4,0-0.8-0.1-1.1-0.4c-0.2-0.2-0.4-0.4-0.4-0.7
	c0-0.3,0-0.6,0-0.9c0-0.2,0-0.4,0-0.6c0-0.2-0.1-0.4-0.2-0.5c-0.5-0.5-1.7-0.4-3.6,0.3c-2.2,0.8-4.3,1.8-6.3,2.9
	c-2,1.1-3.9,2.3-5.8,3.6c-0.2,0.1-0.4,0.2-0.7,0.1c-0.3-0.1-0.6-0.3-0.9-0.6c-0.2-0.2-0.4-0.4-0.5-0.6c-0.1-0.1-0.1-0.2,0-0.3
	l0.9-0.6l2-1.5l6.9-5.2c0.7-0.5,1.3-1,1.8-1.6c0.9-1,1.1-1.8,0.6-2.3c-0.5-0.5-1.6-0.7-3.2-0.7l-0.1,0c-0.1-0.1-0.1-0.2-0.1-0.3
	c0-0.1,0.1-0.2,0.1-0.2c1.2-0.1,2.4-0.1,3.5,0.1c0.8,0.1,1.6,0.5,2.3,1c0.4,0.3,0.6,0.8,0.6,1.4c-0.2,0.7-0.6,1.3-1.1,1.8
	c-0.8,0.8-1.7,1.6-2.6,2.3l-4.3,3.2c2.6-1.5,5.2-2.7,8-3.6c2.4-0.8,4-0.7,4.9,0C522.2,108.7,522.5,109.3,522.6,109.9z"/>
</svg>
