<svg id="Layer_1" data-name="Layer 1" xmlns="http://www.w3.org/2000/svg" viewBox="0 0 107.8659 7.76713"><defs><style>.cls-1{fill:#dadada;}</style></defs><title>gird-arrow</title><g id="HOME"><g id="iPhone-12"><g id="iPhone-12-Hero-_-Safari-UI" data-name="iPhone-12-Hero-+-Safari-UI"><g id="Extended-HERO-Btn"><g id="gird-custom-arrow"><g id="Arrow-Head"><path id="Rectangle" class="cls-1" d="M111.99247,1.7875l4.31765,3.35516h0l-.24269.41452a.4.4,0,0,1-.60249.13492l-4.67746-3.63476h0A.8.8,0,0,1,111.99247,1.7875Z" transform="translate(-9.06705 -1.61644)"/><path id="Rectangle-2" data-name="Rectangle" class="cls-1" d="M111.99247,9.2125l4.31765-3.35516h0l-.24269-.41452a.4.4,0,0,0-.60249-.13492l-4.67746,3.63476h0A.8.8,0,0,0,111.99247,9.2125Z" transform="translate(-9.06705 -1.61644)"/><polygon id="Triangle" class="cls-1" points="107.866 3.882 106.998 4.382 106.998 3.382 107.866 3.882"/></g><path id="Rectangle-3" data-name="Rectangle" class="cls-1" d="M9.57885,2.45027q.34329,1.04082.74833,2.367c.09182.30062.3688.42237.80058.3718a4.77992,4.77992,0,0,1,.99586-.19072H115.57051a.47052.47052,0,0,1,.434.5.47052.47052,0,0,1-.434.5H10.461a.90266.90266,0,0,1-.844-.76641L9.07443,2.62969a.3095.3095,0,0,1,.19537-.36742A.25926.25926,0,0,1,9.57885,2.45027Z" transform="translate(-9.06705 -1.61644)"/></g></g></g></g></g></svg>