<?xml version="1.0" encoding="UTF-8"?>
<svg width="126px" height="11px" viewBox="0 0 126 11" version="1.1" xmlns="http://www.w3.org/2000/svg" xmlns:xlink="http://www.w3.org/1999/xlink">
    <title>gird-custom-arrow</title>
    <g id="HOME" stroke="none" stroke-width="1" fill="none" fill-rule="evenodd">
        <g id="iPhone-12" transform="translate(-131.000000, -710.000000)" fill="#DADADA">
            <g id="iPhone-12-Hero-+-Safari-UI" transform="translate(-37.000000, 0.000000)">
                <g id="Extended-HERO-Btn" transform="translate(137.000000, 679.000000)">
                    <g id="gird-custom-arrow" transform="translate(31.000000, 31.000000)">
                        <g id="Arrow-Head" transform="translate(117.670851, 1.838928)">
                            <path d="M1,2 L7,2 L7,2 L7,2.5 C7,2.77614237 6.77614237,3 6.5,3 L0,3 L0,3 C-6.76353751e-17,2.44771525 0.44771525,2 1,2 Z" id="Rectangle" transform="translate(3.500000, 2.500000) rotate(34.000000) translate(-3.500000, -2.500000) "></path>
                            <path d="M1,5.8 L7,5.8 L7,5.8 L7,6.3 C7,6.57614237 6.77614237,6.8 6.5,6.8 L0,6.8 L0,6.8 C-6.76353751e-17,6.24771525 0.44771525,5.8 1,5.8 Z" id="Rectangle" transform="translate(3.500000, 6.300000) scale(1, -1) rotate(34.000000) translate(-3.500000, -6.300000) "></path>
                            <polygon id="Triangle" transform="translate(6.898772, 4.398306) rotate(90.000000) translate(-6.898772, -4.398306) " points="6.89877204 3.89830605 7.39877204 4.89830605 6.39877204 4.89830605"></polygon>
                        </g>
                        <path d="M1.39039619,3.18919659 C1.65405997,3.88308107 1.94143378,4.67206789 2.25251762,5.55615704 C2.35829798,5.85678106 2.6774084,5.9785251 3.17484348,5.92795685 C3.4362693,5.90138083 3.79227202,5.73723444 4.32214427,5.73723444 C5.34754498,5.73723444 6.24684643,5.73723444 7.0200486,5.73723444 L123.5,5.73723444 C123.776142,5.73723444 124,5.96109207 124,6.23723444 C124,6.51337682 123.776142,6.73723444 123.5,6.73723444 L2.4067404,6.73723444 C1.94443611,6.73723444 1.54239463,6.42033886 1.43440513,5.97082409 L0.80926213,3.36861722 C0.76995604,3.20500253 0.870728071,3.04050274 1.03434276,3.00119665 C1.18340932,2.96538554 1.33586837,3.04591367 1.39039619,3.18919659 Z" id="Rectangle"></path>
                    </g>
                </g>
            </g>
        </g>
    </g>
</svg>