<svg id="Layer_1" data-name="Layer 1" xmlns="http://www.w3.org/2000/svg" viewBox="0 0 571.04503 110.348"><defs><style>.cls-1{fill:#faebd7;}.cls-2{fill:none;stroke:#faebd7;stroke-miterlimit:10;stroke-width:3.528px;}</style></defs><title>gridbase-cream-s</title><path class="cls-1" d="M254.12249,110.9c0,11.4-10.8,13.7-26.1,13.7-16.2,0-27.1-4.9-27.1-14.9,0-3.2,3-7.5,10-7.9a9.69631,9.69631,0,0,1-8-9.7c0-2.7,2.6-7.2,9.4-7.1a17.15076,17.15076,0,0,1-6.9-14c0-11.6,8.3-19,22.8-19a24.78383,24.78383,0,0,1,13.8,3.8c2.9-2.9,8.1-8,11.7-11l3.1,8.2c-2.7,1.5-8.2,4.6-10.8,6.1a16.94524,16.94524,0,0,1,4.6,11.9c0,12-10.1,18.5-22.5,18.5a32.72282,32.72282,0,0,1-5.4-.4,27.43588,27.43588,0,0,1-3.9-.9c-4-.3-6.8,1.4-6.8,3.8,0,4.8,11.7,4.5,16,4.5C247.8225,96.7,254.12249,101.1,254.12249,110.9Zm-9.1.1c0-3.6-2.7-7.3-17-7.3a67.85982,67.85982,0,0,1-12.7-.9,7.5525,7.5525,0,0,0-5.7,6.8c0,5.9,7.1,7.9,18.4,7.9C240.12249,117.6,245.02248,114.6,245.02248,111Zm-30.5-39.9c0,6.8,4.6,11,13.7,11,11.8,0,13.4-6.9,13.4-11,0-4-1.6-11.5-13.4-11.5C219.22249,59.6,214.52248,64,214.52248,71.1Z" transform="translate(-42.47749 -25.226)"/><path class="cls-1" d="M264.02248,53.1h8.9a24.32793,24.32793,0,0,1,.3,3.8,25.08756,25.08756,0,0,1-1.4,8.1l1,.3a15.3017,15.3017,0,0,1,14.6-13.2,10.974,10.974,0,0,1,6.4,1.4V63.7a10.32389,10.32389,0,0,0-7.5-2.8c-8.2,0-13.6,6.4-13.3,20.6v24h-9.1V53.1Z" transform="translate(-42.47749 -25.226)"/><path class="cls-1" d="M311.52248,34V46.6h-11.3V34Zm-1.2,19.1v52.4h-9.1V53.1Z" transform="translate(-42.47749 -25.226)"/><path class="cls-1" d="M319.12249,79.2c0-14.9,9.1-27.1,23.3-27.1a17.39447,17.39447,0,0,1,16.7,10V34h9.1v66.4a15.329,15.329,0,0,0,.4,4.3v.8h-9.4a11.27982,11.27982,0,0,1-.5-4.1,9.14489,9.14489,0,0,1,1.4-5.8l-1-.3a17.42049,17.42049,0,0,1-16.7,11.3C328.22249,106.5,319.12249,94.4,319.12249,79.2Zm41,.1a17.83953,17.83953,0,0,0-16.2-19.4h-.2c-10.4,0-15.4,8.2-15.4,19.4,0,11.3,5,19.4,15.4,19.4a17.90541,17.90541,0,0,0,16.3-19.3.098.098,0,0,0,.1-.1Z" transform="translate(-42.47749 -25.226)"/><path class="cls-1" d="M386.92248,95.2l-1,.3a10.83967,10.83967,0,0,1,1.4,5.8,13.9456,13.9456,0,0,1-.4,4.1h-9.4v-.8a15.59542,15.59542,0,0,0,.3-4.3V34h9.1V62.1a17.552,17.552,0,0,1,16.7-10c13.2,0,22.3,12.2,22.3,27.1,0,15.2-9.1,27.3-22.3,27.3A16.444,16.444,0,0,1,386.92248,95.2Zm29.9-15.9c0-11.5-5.2-19.4-14.6-19.4a17.15368,17.15368,0,0,0-16.4,18c0,.5.1,1,.1,1.4a17.22768,17.22768,0,0,0,14.9,19.3,7.08482,7.08482,0,0,0,1.4.1C411.52248,98.7,416.8225,90.8,416.8225,79.3Z" transform="translate(-42.47749 -25.226)"/><path class="cls-1" d="M478.22249,104.7v.8h-9.1a9.525,9.525,0,0,1-.6-4.1,9.18361,9.18361,0,0,1,1.6-5.6l-1-.3a17.19267,17.19267,0,0,1-16.8,11.2,16.86793,16.86793,0,0,1-18.6-15c0-.4-.1-.8-.1-1.2,0-11,6.3-13.6,22.1-15.4,12.8-1.5,12.8-5.2,12.8-5.2v-.6c0-3-.8-10.6-13.1-10.6-9.2,0-13.7,5-13.7,10.9l-9.1,2.4a20.55318,20.55318,0,0,1,20.2-20.9h1.5c20,0,23.2,11.8,23.2,20.3v29A12.91,12.91,0,0,0,478.22249,104.7Zm-9.6-30c0,2,0,6.4-13.2,7.9-10.2,1.1-12.7,2.4-12.7,7.8a8.70609,8.70609,0,0,0,8.8,8.6,2.76856,2.76856,0,0,0,.9-.1c7,0,16.2-2.4,16.2-9.6V74.7Z" transform="translate(-42.47749 -25.226)"/><path class="cls-1" d="M529.62249,72l-9.1-1.3a10.90713,10.90713,0,0,0-10.3-11.6h-1.8c-7.1,0-12,2.2-12,6.8,0,4.2,2.4,6.4,9.4,8.2l3.2.8c10.7,2.6,20.1,4.7,20.1,16.3,0,10.2-9.4,15.4-20.8,15.4a19.40452,19.40452,0,0,1-21-17.7,14.05836,14.05836,0,0,1,0-2.9l9.1,1.3a10.87682,10.87682,0,0,0,9.8,11.8,8.095,8.095,0,0,0,2.2,0c6.8,0,11.7-2.7,11.7-7.9,0-5.1-5.3-6.2-13.7-8.3l-2.1-.5c-16.9-4.5-16.9-12-16.9-16.5,0-7.9,6.7-14.4,21.1-14.4a19.49694,19.49694,0,0,1,21.1,17.7Z" transform="translate(-42.47749 -25.226)"/><path class="cls-1" d="M582.22246,90.2a20.66247,20.66247,0,0,1-22.2,16.3c-14.6,0-24.9-9.9-24.9-27.9,0-14.2,5.5-27.1,23.6-27.1a21.28632,21.28632,0,0,1,23.2,19.1,28.11046,28.11046,0,0,1,.1,2.9,19.761,19.761,0,0,1-.7,7.3l-36.7.3c.8,11.5,7.6,17.7,15.4,17.7a13.55048,13.55048,0,0,0,14-11.1Zm-37.4-16.8,28.6-.2a13.97744,13.97744,0,0,0-13.9-14.1h-.8C549.52251,59.1,545.72246,64.6,544.8225,73.4Z" transform="translate(-42.47749 -25.226)"/><path class="cls-1" d="M589.22246,29.7h8.9V32h-3.2v9.7h-2.5V32h-3.2Zm24.30005,11.9h-2.6l-.4-9.3-2.5,9.3h-3.6l-2.6-9-.4,9h-2.6l.7-11.9h3.9l2.69989,9.3h.1l2.6-9.3h3.9Z" transform="translate(-42.47749 -25.226)"/><path class="cls-2" d="M44.36749,110.92a27.965,27.965,0,0,1,55.93-.07v.07" transform="translate(-42.47749 -25.226)"/><path class="cls-1" d="M42.47749,110.29l.49,23.45a1.7514,1.7514,0,0,0,3.5,0l-.49-23.45a1.69309,1.69309,0,0,0-1.82-1.68,1.80549,1.80549,0,0,0-1.68,1.68Z" transform="translate(-42.47749 -25.226)"/><path class="cls-2" d="M155.87749,105.81a27.965,27.965,0,1,1-55.93.07v-.07" transform="translate(-42.47749 -25.226)"/><path class="cls-1" d="M157.76749,106.37l-.49-23.45a1.7514,1.7514,0,0,0-3.5,0l.49,23.45a1.7514,1.7514,0,0,0,3.5,0Z" transform="translate(-42.47749 -25.226)"/><path class="cls-2" d="M44.36749,103.92a27.965,27.965,0,0,1,55.93-.07v.07" transform="translate(-42.47749 -25.226)"/><path class="cls-1" d="M42.47749,103.29l.49,23.45a1.7514,1.7514,0,0,0,3.5,0l-.49-23.45a1.69309,1.69309,0,0,0-1.82-1.68,1.86593,1.86593,0,0,0-1.68,1.68Z" transform="translate(-42.47749 -25.226)"/><path class="cls-2" d="M155.87749,98.81a27.965,27.965,0,0,1-55.93,0" transform="translate(-42.47749 -25.226)"/><path class="cls-1" d="M157.76749,99.44l-.49-23.45a1.7514,1.7514,0,0,0-3.5,0l.49,23.45a1.69309,1.69309,0,0,0,1.82,1.68A1.80666,1.80666,0,0,0,157.76749,99.44Z" transform="translate(-42.47749 -25.226)"/><path class="cls-2" d="M44.36749,96.92a27.965,27.965,0,0,1,55.93,0" transform="translate(-42.47749 -25.226)"/><path class="cls-1" d="M42.47749,96.36l.49,23.45a1.7514,1.7514,0,0,0,3.5,0l-.49-23.45a1.69309,1.69309,0,0,0-1.82-1.68,1.75013,1.75013,0,0,0-1.68,1.68Z" transform="translate(-42.47749 -25.226)"/><path class="cls-2" d="M155.87749,91.81a27.965,27.965,0,1,1-55.93.07v-.07" transform="translate(-42.47749 -25.226)"/><path class="cls-1" d="M157.76749,92.44l-.49-23.45a1.7514,1.7514,0,0,0-3.5,0l.49,23.45a1.69309,1.69309,0,0,0,1.82,1.68A1.75231,1.75231,0,0,0,157.76749,92.44Z" transform="translate(-42.47749 -25.226)"/><path class="cls-2" d="M44.36749,89.92a27.965,27.965,0,0,1,55.93-.07v.07" transform="translate(-42.47749 -25.226)"/><path class="cls-1" d="M42.47749,89.36l.49,23.45a1.7514,1.7514,0,0,0,3.5,0l-.49-23.45a1.69309,1.69309,0,0,0-1.82-1.68A1.75014,1.75014,0,0,0,42.47749,89.36Z" transform="translate(-42.47749 -25.226)"/><path class="cls-2" d="M155.87749,84.81a27.965,27.965,0,1,1-55.93.07v-.07" transform="translate(-42.47749 -25.226)"/><path class="cls-1" d="M157.76749,85.44l-.49-23.45a1.7514,1.7514,0,0,0-3.5,0l.49,23.45a1.69309,1.69309,0,0,0,1.82,1.68A1.75231,1.75231,0,0,0,157.76749,85.44Z" transform="translate(-42.47749 -25.226)"/><path class="cls-2" d="M44.36749,82.99a27.965,27.965,0,0,1,55.93,0" transform="translate(-42.47749 -25.226)"/><path class="cls-1" d="M42.47749,82.36l.49,23.45a1.7514,1.7514,0,0,0,3.5,0l-.49-23.45a1.69309,1.69309,0,0,0-1.82-1.68A1.80549,1.80549,0,0,0,42.47749,82.36Z" transform="translate(-42.47749 -25.226)"/><path class="cls-2" d="M155.87749,77.81a27.965,27.965,0,1,1-55.93.07v-.07" transform="translate(-42.47749 -25.226)"/><path class="cls-1" d="M157.76749,78.44l-.49-23.45a1.7514,1.7514,0,0,0-3.5,0l.49,23.45a1.69309,1.69309,0,0,0,1.82,1.68A1.75231,1.75231,0,0,0,157.76749,78.44Z" transform="translate(-42.47749 -25.226)"/><path class="cls-2" d="M44.36749,75.99a27.965,27.965,0,0,1,55.93-.07v.07" transform="translate(-42.47749 -25.226)"/><path class="cls-1" d="M42.47749,75.36l.49,23.45a1.7514,1.7514,0,0,0,3.5,0l-.49-23.45a1.69309,1.69309,0,0,0-1.82-1.68,1.80549,1.80549,0,0,0-1.68,1.68Z" transform="translate(-42.47749 -25.226)"/><path class="cls-2" d="M155.87749,70.81a27.965,27.965,0,1,1-55.93.07v-.07" transform="translate(-42.47749 -25.226)"/><path class="cls-1" d="M157.76749,71.44l-.49-23.45a1.7514,1.7514,0,0,0-3.5,0l.49,23.45a1.69309,1.69309,0,0,0,1.82,1.68,1.75231,1.75231,0,0,0,1.68-1.68Z" transform="translate(-42.47749 -25.226)"/><path class="cls-2" d="M44.36749,68.99a27.965,27.965,0,0,1,55.93-.07v.07" transform="translate(-42.47749 -25.226)"/><path class="cls-1" d="M42.47749,68.36l.49,23.45a1.7514,1.7514,0,0,0,3.5,0l-.49-23.45a1.69309,1.69309,0,0,0-1.82-1.68,1.80549,1.80549,0,0,0-1.68,1.68Z" transform="translate(-42.47749 -25.226)"/><path class="cls-2" d="M155.87749,63.88a27.965,27.965,0,0,1-55.93,0" transform="translate(-42.47749 -25.226)"/><path class="cls-1" d="M157.76749,64.44l-.49-23.45a1.7514,1.7514,0,0,0-3.5,0l.49,23.45a1.7514,1.7514,0,0,0,3.5,0Z" transform="translate(-42.47749 -25.226)"/><path class="cls-2" d="M44.36749,61.99a27.965,27.965,0,0,1,55.93,0" transform="translate(-42.47749 -25.226)"/><path class="cls-1" d="M42.47749,61.36l.49,23.45a1.7514,1.7514,0,0,0,3.5,0l-.49-23.45a1.69309,1.69309,0,0,0-1.82-1.68,1.80549,1.80549,0,0,0-1.68,1.68Z" transform="translate(-42.47749 -25.226)"/><path class="cls-2" d="M155.87749,56.88a27.965,27.965,0,1,1-55.93.07v-.07" transform="translate(-42.47749 -25.226)"/><path class="cls-1" d="M157.76749,57.44l-.49-23.45a1.7514,1.7514,0,0,0-3.5,0l.49,23.45a1.7514,1.7514,0,0,0,3.5,0Z" transform="translate(-42.47749 -25.226)"/><path class="cls-2" d="M44.36749,54.99a27.965,27.965,0,1,1,55.93-.07v.07" transform="translate(-42.47749 -25.226)"/><path class="cls-1" d="M42.47749,54.36l.49,23.45a1.7514,1.7514,0,0,0,3.5,0l-.49-23.45a1.69309,1.69309,0,0,0-1.82-1.68,1.80549,1.80549,0,0,0-1.68,1.68Z" transform="translate(-42.47749 -25.226)"/><path class="cls-2" d="M155.87749,49.88a27.965,27.965,0,0,1-55.93,0" transform="translate(-42.47749 -25.226)"/><path class="cls-1" d="M157.76749,50.51l-.49-23.45a1.7514,1.7514,0,0,0-3.5,0l.49,23.45a1.69309,1.69309,0,0,0,1.82,1.68A1.80666,1.80666,0,0,0,157.76749,50.51Z" transform="translate(-42.47749 -25.226)"/></svg>