<svg id="gridbase-single" xmlns="http://www.w3.org/2000/svg" viewBox="0 0 19.60002 18.76314"><defs><style>.cls-1{fill:none;stroke:#2c1608;stroke-miterlimit:10;stroke-width:0.6px;}.cls-2{fill:#2c1608;}</style></defs><title>gridbase-single</title><g id="logo-element"><path class="cls-1" d="M16.08988,30.18631a4.75538,4.75538,0,0,1,9.51075-.01338q0,.00669,0,.01338" transform="translate(-15.7725 -15.61349)"/><path class="cls-2" d="M15.77252,30.08225l.08465,3.98736a.30018.30018,0,0,0,.6,0l-.08467-3.98736a.30018.30018,0,0,0-.6,0Z" transform="translate(-15.7725 -15.61349)"/><path class="cls-1" d="M35.05517,29.31423a4.75538,4.75538,0,1,1-9.51075.01405q0-.007,0-.01405" transform="translate(-15.7725 -15.61349)"/><path class="cls-2" d="M35.37252,29.4183l-.08467-3.98736a.30018.30018,0,0,0-.6,0l.08467,3.98736a.30018.30018,0,0,0,.6,0Z" transform="translate(-15.7725 -15.61349)"/><path class="cls-1" d="M16.08988,28.99747a4.75538,4.75538,0,0,1,9.51075-.01338q0,.00669,0,.01338" transform="translate(-15.7725 -15.61349)"/><path class="cls-2" d="M15.77252,28.8934l.08465,3.98736a.30018.30018,0,0,0,.6,0L16.3725,28.8934a.30018.30018,0,0,0-.6,0Z" transform="translate(-15.7725 -15.61349)"/><path class="cls-1" d="M35.05517,28.12539a4.75538,4.75538,0,0,1-9.51075,0" transform="translate(-15.7725 -15.61349)"/><path class="cls-2" d="M35.37252,28.22945l-.08467-3.98736a.30018.30018,0,0,0-.6,0l.08467,3.98736a.30018.30018,0,0,0,.6,0Z" transform="translate(-15.7725 -15.61349)"/><path class="cls-1" d="M16.08988,27.80867a4.75538,4.75538,0,0,1,9.51075,0" transform="translate(-15.7725 -15.61349)"/><path class="cls-2" d="M15.77252,27.70456l.08465,3.98736a.30018.30018,0,0,0,.6,0l-.08467-3.98736a.30018.30018,0,0,0-.6,0Z" transform="translate(-15.7725 -15.61349)"/><path class="cls-1" d="M35.05517,26.93654a4.75538,4.75538,0,1,1-9.51075.014q0-.007,0-.014" transform="translate(-15.7725 -15.61349)"/><path class="cls-2" d="M35.37252,27.04061l-.08467-3.98736a.30018.30018,0,0,0-.6,0l.08467,3.98736a.30018.30018,0,0,0,.6,0Z" transform="translate(-15.7725 -15.61349)"/><path class="cls-1" d="M16.08988,26.61978a4.75538,4.75538,0,0,1,9.51075-.01338q0,.00669,0,.01338" transform="translate(-15.7725 -15.61349)"/><path class="cls-2" d="M15.77252,26.51567l.08465,3.98741a.30018.30018,0,0,0,.6,0l-.08465-3.98741a.30018.30018,0,0,0-.6,0Z" transform="translate(-15.7725 -15.61349)"/><path class="cls-1" d="M35.05517,25.74767a4.75538,4.75538,0,0,1-9.51075.01405q0-.007,0-.01405" transform="translate(-15.7725 -15.61349)"/><path class="cls-2" d="M35.37252,25.85176l-.08467-3.98736a.30018.30018,0,0,0-.6,0l.08467,3.98736a.30018.30018,0,0,0,.6,0Z" transform="translate(-15.7725 -15.61349)"/><path class="cls-1" d="M16.08988,25.43093a4.75538,4.75538,0,0,1,9.51075,0" transform="translate(-15.7725 -15.61349)"/><path class="cls-2" d="M15.77252,25.32687l.08465,3.98736a.30018.30018,0,0,0,.6,0l-.08465-3.98736a.30018.30018,0,0,0-.6,0Z" transform="translate(-15.7725 -15.61349)"/><path class="cls-1" d="M35.05517,24.55885a4.75538,4.75538,0,0,1-9.51075.01405q0-.007,0-.01405" transform="translate(-15.7725 -15.61349)"/><path class="cls-2" d="M35.37252,24.66292l-.08467-3.98736a.30018.30018,0,0,0-.6,0l.08467,3.98736a.30018.30018,0,0,0,.6,0Z" transform="translate(-15.7725 -15.61349)"/><path class="cls-1" d="M16.08988,24.24209a4.75538,4.75538,0,0,1,9.51075-.01338q0,.00669,0,.01338" transform="translate(-15.7725 -15.61349)"/><path class="cls-2" d="M15.77252,24.138l.08465,3.98736a.30018.30018,0,0,0,.6,0L16.3725,24.138a.30018.30018,0,0,0-.6,0Z" transform="translate(-15.7725 -15.61349)"/><path class="cls-1" d="M35.05517,23.37a4.75538,4.75538,0,0,1-9.51075.01405q0-.007,0-.01405" transform="translate(-15.7725 -15.61349)"/><path class="cls-2" d="M35.37252,23.47408l-.08467-3.98741a.30018.30018,0,0,0-.6,0l.08467,3.98737a.30018.30018,0,0,0,.6,0Z" transform="translate(-15.7725 -15.61349)"/><path class="cls-1" d="M16.08988,23.05325a4.75538,4.75538,0,0,1,9.51075-.01338q0,.00669,0,.01338" transform="translate(-15.7725 -15.61349)"/><path class="cls-2" d="M15.77252,22.94918l.08465,3.98736a.30018.30018,0,0,0,.6,0l-.08467-3.98736a.30018.30018,0,0,0-.6,0Z" transform="translate(-15.7725 -15.61349)"/><path class="cls-1" d="M35.05517,22.18117a4.75538,4.75538,0,0,1-9.51075,0" transform="translate(-15.7725 -15.61349)"/><path class="cls-2" d="M35.37252,22.28523l-.08467-3.98736a.30018.30018,0,0,0-.6,0l.08467,3.98736a.30018.30018,0,0,0,.6,0Z" transform="translate(-15.7725 -15.61349)"/><path class="cls-1" d="M16.08988,21.8644a4.75538,4.75538,0,0,1,9.51075,0" transform="translate(-15.7725 -15.61349)"/><path class="cls-2" d="M15.77252,21.76034l.08465,3.98733a.30018.30018,0,0,0,.6,0l-.08467-3.98736a.30018.30018,0,0,0-.6,0Z" transform="translate(-15.7725 -15.61349)"/><path class="cls-1" d="M35.05517,20.99232a4.75538,4.75538,0,0,1-9.51075.01405q0-.007,0-.01405" transform="translate(-15.7725 -15.61349)"/><path class="cls-2" d="M35.37252,21.09639,35.28785,17.109a.30018.30018,0,0,0-.6,0l.08467,3.98736a.30018.30018,0,0,0,.6,0Z" transform="translate(-15.7725 -15.61349)"/><path class="cls-1" d="M16.08988,20.67556a4.75538,4.75538,0,0,1,9.51075-.01338q0,.00669,0,.01338" transform="translate(-15.7725 -15.61349)"/><path class="cls-2" d="M15.77252,20.57149l.08465,3.98736a.30018.30018,0,0,0,.6,0l-.08467-3.98736a.30018.30018,0,0,0-.6,0Z" transform="translate(-15.7725 -15.61349)"/><path class="cls-1" d="M35.05517,19.80348a4.75538,4.75538,0,0,1-9.51075,0" transform="translate(-15.7725 -15.61349)"/><path class="cls-2" d="M35.37252,19.90754l-.08467-3.98736a.30018.30018,0,0,0-.6,0l.08467,3.98736a.30018.30018,0,0,0,.6,0Z" transform="translate(-15.7725 -15.61349)"/></g></svg>