<svg id="Layer_1" data-name="Layer 1" xmlns="http://www.w3.org/2000/svg" viewBox="0 0 426.11429 406.13797"><title>menu-curved-text</title><path d="M87.79443,300.86133q-5.01708,6.15087-13.895,7.748a36.70669,36.70669,0,0,1-5.91211.47949,31.08515,31.08515,0,0,1-14.62548-3.49317,32.08712,32.08712,0,0,1-11.0459-9.30273,29.22772,29.22772,0,0,1-5.5249-12.41992,31.86866,31.86866,0,0,1-.47071-6.78907,16.02817,16.02817,0,0,1,1.00049-5.55371,1.44487,1.44487,0,0,1,.57715-.72851,3.5482,3.5482,0,0,1,1.24365-.26563l9.69776-.74414q.33764.02344.40966.42578c.04834.27051-.03466.42285-.25.46192q-5.98755,1.91015-8.36914,6.0459a14.199,14.199,0,0,0-1.35009,9.86621,17.30235,17.30235,0,0,0,4.27734,8.72851,21.13485,21.13485,0,0,0,8.7207,5.6377,32.56184,32.56184,0,0,0,12.05469,1.707,40.89459,40.89459,0,0,0,6.88086-.6543,31.04292,31.04292,0,0,0,10.41406-3.70605,17.1782,17.1782,0,0,0,6.54395-6.46778,12.21861,12.21861,0,0,0,1.30273-8.27343,15.377,15.377,0,0,0-4.60107-8.21289,32.0295,32.0295,0,0,0-10.6333-6.54395.47186.47186,0,0,1-.21924-.29394.55787.55787,0,0,1,.08887-.43262.26964.26964,0,0,1,.3081-.13867l9.29834.74414a4.7786,4.7786,0,0,1,1.419.24414,1.53072,1.53072,0,0,1,.69873.874,44.71632,44.71632,0,0,1,5.019,14.01172Q92.81177,294.70947,87.79443,300.86133Z" transform="translate(-36.29897 -55.19989)"/><path d="M56.8252,236.82764a3.59464,3.59464,0,0,1,2.91552-1.47071,3.12256,3.12256,0,0,1,2.146.92578,2.81528,2.81528,0,0,1,.87744,2.2002,2.68115,2.68115,0,0,1-.41309,1.46436,6.20442,6.20442,0,0,1-1.14355,1.19628q-.42187.39844-.80469.83692a1.57677,1.57677,0,0,0-.39941,1.01367q-.04981,1.64063,4.51123,4.11475a78.94309,78.94309,0,0,0,10.93164,4.75879,102.57451,102.57451,0,0,0,11.25928,3.415,1.57911,1.57911,0,0,1,.99511,1.01465,5.48778,5.48778,0,0,1,.30225,2.22412q-.06446,2.13135-.6377,2.11329-.49-.09522-2.5249-.60938-2.03466-.51123-3.58545-.80469l-16.0581-3.43652a20.33358,20.33358,0,0,0-3.43262-.43164q-3.27685-.09814-3.33252,1.7041-.052,1.72266,2.96875,4.92969a.33268.33268,0,0,1,.07471.249.47345.47345,0,0,1-.29932.40137c-.19385.10351-.34375.09961-.45068-.01367a24.08757,24.08757,0,0,1-4.32129-4.97071,7.97711,7.97711,0,0,1-1.30371-4.3872,3.0077,3.0077,0,0,1,1.14209-2.50879,6.06045,6.06045,0,0,1,3.63086-.71094,34.01047,34.01047,0,0,1,5.06689.64453l9.53809,2.00977a68.738,68.738,0,0,1-13.71924-6.19629q-5.35474-3.3186-5.26172-6.43408A5.219,5.219,0,0,1,56.8252,236.82764Z" transform="translate(-36.29897 -55.19989)"/><path d="M61.03857,208.8623a3.14962,3.14962,0,0,1,2.979-1.04834q3.79467.68116,5.90869,6.76709a42.57933,42.57933,0,0,1,2.083,14.16163,25.9311,25.9311,0,0,0,4.13867,1.07568,13.50881,13.50881,0,0,0,8.29346-.71924,7.32134,7.32134,0,0,0,4.10888-5.71924,12.51463,12.51463,0,0,0-1.25879-8.30713l.01465-.08056a.58625.58625,0,0,1,.32178-.40039.37853.37853,0,0,1,.4917.04638q3.895,6.61524,2.76514,12.90918-.95582,5.32691-4.74268,7.397a13.42656,13.42656,0,0,1-9.0332,1.12793,23.50521,23.50521,0,0,1-3.96338-1.12745,22.32513,22.32513,0,0,1-7.562-4.981,22.96577,22.96577,0,0,1-5.32862-7.9126A16.03515,16.03515,0,0,1,59.24805,213.04,8.04553,8.04553,0,0,1,61.03857,208.8623Zm3.15528,5.39844a2.46617,2.46617,0,0,0-2.2793.63233,4.16953,4.16953,0,0,0-1.16846,2.33105,6.92737,6.92737,0,0,0,2.25537,6.23633,22.193,22.193,0,0,0,7.90674,4.918q-.0996-11.51441-5.69384-13.76807A7.20961,7.20961,0,0,0,64.19385,214.26074Z" transform="translate(-36.29897 -55.19989)"/><path d="M97.36035,180.53809a.47624.47624,0,0,1,.41113-.28565q.32667-.0542.42286.15576a29.18772,29.18772,0,0,1,2.80224,6.27393,7.34319,7.34319,0,0,1,.02783,4.5542,2.89628,2.89628,0,0,1-1.75927,1.93017,5.01166,5.01166,0,0,1-3.19336-.3457A27.87273,27.87273,0,0,1,92.52,191.07666L85.6626,187.1543a38.99185,38.99185,0,0,1,8.27685,11.69726q2.49243,5.8125.99073,9.88916a4.845,4.845,0,0,1-2.74073,3.0542,6.794,6.794,0,0,1-4.81543-.33105q-.69213-.25488-2.1748-.9751a31.399,31.399,0,0,1-9.373-8.12549,36.08659,36.08659,0,0,1-6.29248-11.27246q-1.94531-5.87036-.47217-9.87305A7.39043,7.39043,0,0,1,73.06543,176.75a6.92667,6.92667,0,0,0-1.957-2.99219.47292.47292,0,0,1-.04053-.36474,1.09346,1.09346,0,0,1,.28516-.41895c.13379-.12549.21728-.15234.249-.083l22.67383,13.41455a11.42152,11.42152,0,0,0,1.99267.99561q2.15553.79322,2.63624-.51514.59546-1.61573-1.55225-5.98925A.33238.33238,0,0,1,97.36035,180.53809Zm-6.20947,16.63134a29.169,29.169,0,0,0-4.874-7.64843,29.43449,29.43449,0,0,0-6.73047-5.92871,10.52787,10.52787,0,0,0-1.99268-.99561,5.4972,5.4972,0,0,0-3.96435-.14893A4.45489,4.45489,0,0,0,71.063,185.2749a8.87447,8.87447,0,0,0,.18994,6.01172,19.233,19.233,0,0,0,4.13867,6.6792,28.01625,28.01625,0,0,0,7.34766,5.67529q2.35034,1.21583,3.11865,1.49756,4.77173,1.75709,5.96045-1.47558Q92.7815,201.04833,91.15088,197.16943Z" transform="translate(-36.29897 -55.19989)"/><path d="M88.64111,146.21826a.69233.69233,0,0,1,.53907.21338,5.34367,5.34367,0,0,1,1.03808,1.81982,2.24154,2.24154,0,0,1,.04151,1.91211q-.20434.35744-1.88086,2.46729a44.62609,44.62609,0,0,0-3.13135,4.49121l15.65723,13.09522a11.40675,11.40675,0,0,0,1.80078,1.31152,3.98477,3.98477,0,0,0,3.08691.62939,4.37822,4.37822,0,0,0,2.36426-2.23828,8.39336,8.39336,0,0,0,1.10205-3.667,21.21276,21.21276,0,0,0-.31152-4.66309l.04052-.07129a.70858.70858,0,0,1,.45752-.30517c.22412-.061.35645-.0166.397.13183a32.60839,32.60839,0,0,1,.96875,8.06006,11.77741,11.77741,0,0,1-1.42188,5.46729,6.766,6.766,0,0,1-3.21826,3.07275q-1.91675.79542-4.55176-.71045-.427-.24389-1.62744-1.11816L85.606,163.93652a11.25526,11.25526,0,0,0-2.04492-1.54541,1.58931,1.58931,0,0,0-1.64258-.18213,5.57964,5.57964,0,0,0-1.54,1.95313c-.08154.14258-.24024.14648-.478.01025a1.09263,1.09263,0,0,1-.3667-.35058c-.10156-.15283-.13916-.25244-.11181-.3003a8.10163,8.10163,0,0,0,1.0205-5.50781,10.24874,10.24874,0,0,0-2.48877-5.15039q-.21313-.12231.07129-.6206a1.5541,1.5541,0,0,1,.41162-.47315c.166-.125.25977-.1499.27979-.07617l4.91406,4.12744q.90528-1.749,1.6919-3.37695.78735-1.62671,1.44873-2.9502.96533-2.18628,1.41259-2.97021A.55278.55278,0,0,1,88.64111,146.21826Z" transform="translate(-36.29897 -55.19989)"/><path d="M87.32178,128.77979a3.818,3.818,0,0,1-2.87989-.8711,3.57093,3.57093,0,0,1-1.55517-2.44043,4.55944,4.55944,0,0,1,3.38525-4.53369,3.5776,3.5776,0,0,1,2.78174.79785,3.91491,3.91491,0,0,1,1.67774,2.481,4.47191,4.47191,0,0,1-3.40967,4.56641Zm28.227,28.18945a19.53547,19.53547,0,0,1-2.92529-2.79834l-11.65479-12.89844a11.094,11.094,0,0,0-1.561-1.47266q-1.97167-1.47216-2.90332-.22363a4.4673,4.4673,0,0,0-.61816,2.40381,19.15743,19.15743,0,0,0,.31982,4.02588.33374.33374,0,0,1-.08105.24609.56463.56463,0,0,1-.5.18946c-.23486-.0044-.34668-.105-.33691-.30274q-1.88673-8.16284.61523-11.51416a2.96389,2.96389,0,0,1,2.20264-1.374,4.52187,4.52187,0,0,1,2.79883,1.11767,17.7236,17.7236,0,0,1,2.77685,2.58545l11.98389,13.14356a11.06309,11.06309,0,0,0,1.561,1.47265q1.9065,1.42383,2.78858.24024,1.12792-1.511.33105-6.2002a.336.336,0,0,1,.08154-.24609.53424.53424,0,0,1,.52442-.22217c.21924.02735.32324.13867.312.33545a26.84883,26.84883,0,0,1,.84277,6.82031,7.74611,7.74611,0,0,1-1.37646,4.44776Q118.76831,159.37378,115.54883,156.96924Z" transform="translate(-36.29897 -55.19989)"/><path d="M146.82178,118.15869a.55928.55928,0,0,1,.86474.30371,28.55826,28.55826,0,0,1-.23,6.95508,7.56365,7.56365,0,0,1-2.03955,4.14209,2.83748,2.83748,0,0,1-2.36474.97607,5.02779,5.02779,0,0,1-2.66846-1.69628,28.05454,28.05454,0,0,1-2.5-3.17286L130.52588,114.644a22.13415,22.13415,0,0,0-2.61182-3.40625q-3.0791-3.18237-5.37744-.958-1.88672,1.82518-1.55078,6.17919a35.31188,35.31188,0,0,0,3.01465,10.66211,82.90576,82.90576,0,0,0,7.66211,13.69532,1.578,1.578,0,0,1,.00586,1.42089A5.491,5.491,0,0,1,130.334,144.042q-1.59081,1.53956-1.99023,1.127l-.90479-1.40625q-1.9204-3.04615-2.48828-3.86817L114.65039,124.416a10.83192,10.83192,0,0,0-1.249-1.64405q-1.76661-1.82592-2.88721-.74316-1.4143,1.36817-1.37988,6.356a.33311.33311,0,0,1-.12012.23.47264.47264,0,0,1-.49414.0791c-.21191-.06055-.31592-.16846-.31348-.32422a25.49062,25.49062,0,0,1,.34766-7.06885,8.41317,8.41317,0,0,1,2.21631-4.313,2.837,2.837,0,0,1,2.36474-.97607,4.867,4.867,0,0,1,2.61182,1.63721,24.7381,24.7381,0,0,1,2.27148,2.937l5.09424,7.62207a39.461,39.461,0,0,1-3.74658-13.77588q-.279-5.94873,2.84375-8.97119a5.09115,5.09115,0,0,1,4-1.70313,7.10685,7.10685,0,0,1,4.27979,2.477,24.984,24.984,0,0,1,2.78271,3.583l8.20606,12.37012a10.79812,10.79812,0,0,0,1.24853,1.64453q1.71095,1.76733,2.83057.68408a3.77688,3.77688,0,0,0,.8457-2.07373,32.35373,32.35373,0,0,0,.35547-3.9956A.45638.45638,0,0,1,146.82178,118.15869Z" transform="translate(-36.29897 -55.19989)"/><path d="M160.2666,79.88477a7.84272,7.84272,0,0,1,.97412,2.15625q.345,1.19678-.02,1.23925a10.612,10.612,0,0,0-5.86084,2.27881A10.03254,10.03254,0,0,1,160.04,89.54932a13.6757,13.6757,0,0,1,1.436,2.78466,15.39324,15.39324,0,0,1-.78613,13.21973,12.72,12.72,0,0,1-4.13672,4.53076,13.78,13.78,0,0,1-1.667.89844,4.83062,4.83062,0,0,0,.77637,2.8252,4.01416,4.01416,0,0,0,3.21728,1.76269,35.13176,35.13176,0,0,0,6.30176-.26318,33.56828,33.56828,0,0,1,8.31445-.26026,6.88775,6.88775,0,0,1,5.106,3.21973,9.08306,9.08306,0,0,1,1.30859,6.3999,16.7128,16.7128,0,0,1-2.95019,7.23487,22.799,22.799,0,0,1-6.36572,6.1416q-4.86768,3.19629-8.98243,3.05273a6.974,6.974,0,0,1-6.00537-3.021,8.69806,8.69806,0,0,1-1.00879-6.98926,40.28642,40.28642,0,0,1,3.92237-9.63867q-3.59327-.09375-4.94287-2.14991a2.84787,2.84787,0,0,1-.38184-.73047,7.0625,7.0625,0,0,1-.34228-3.061,22.89074,22.89074,0,0,1,.8247-4.12207,7.32622,7.32622,0,0,1-5.11377-.46826,10.37314,10.37314,0,0,1-4.18066-3.82715,19.66047,19.66047,0,0,1-1.34619-2.64746,14.54471,14.54471,0,0,1-.55664-9.88623,13.4444,13.4444,0,0,1,5.63818-7.77246A8.54541,8.54541,0,0,1,153.77,85.22949a19.48964,19.48964,0,0,1,5.56885-6.01074Q159.6809,78.9939,160.2666,79.88477ZM156.64111,94.2334a16.07456,16.07456,0,0,0-4.65136-4.84278,4.00207,4.00207,0,0,0-4.66065-.22607q-1.91967,1.26049-2.10058,4.42041a13.92182,13.92182,0,0,0,1.40918,6.62793,19.94278,19.94278,0,0,0,1.50488,2.73975,13.22513,13.22513,0,0,0,4.65332,4.54687,4.20688,4.20688,0,0,0,4.5708.08887,5.2404,5.2404,0,0,0,2.15625-4.26026,13.35831,13.35831,0,0,0-1.48877-6.67431A17.13036,17.13036,0,0,0,156.64111,94.2334Zm15.1543,26.59033a39.97416,39.97416,0,0,0-7.85937.20654,33.34983,33.34983,0,0,1-4.34668.40186,23.17151,23.17151,0,0,0-2.01124,6.27441,7.47125,7.47125,0,0,0,1.271,5.29639,7.16768,7.16768,0,0,0,5.8335,3.28174,12.85825,12.85825,0,0,0,7.96582-2.43457,9.77811,9.77811,0,0,0,4.34521-5.10938,6.09875,6.09875,0,0,0-5.19824-7.917Z" transform="translate(-36.29897 -55.19989)"/><path d="M210.15332,62.34473q2.63526,1.467,3.85791,5.46582a20.06916,20.06916,0,0,1,.62744,2.895A26.696,26.696,0,0,1,209.46,91.06738a14.92057,14.92057,0,0,1-7.31641,5.2378,30.968,30.968,0,0,1-4.1499,1.01171l1.80615,14.88184a13.73064,13.73064,0,0,0,.436,2.26758,2.64553,2.64553,0,0,0,1.21484,1.72949,2.91419,2.91419,0,0,0,2.14014-.01123q.47022-.14355,1.834-.73193c.19239-.1167.37305-.043.53907.2207.1665.2627.15234.45361-.04.56982l-13.28711,6.46289c-.19238.11524-.36328.0254-.51172-.272-.14746-.29785-.125-.50586.06738-.62109a7.48857,7.48857,0,0,0,2.25782-1.59033,3.20075,3.20075,0,0,0,.68457-1.96729,27.33919,27.33919,0,0,0-.26416-3.94922l-4.7461-39.36426q-.375.45777-2.79248,3.769l-.13281.12646a.52641.52641,0,0,1-.57813-.20947c-.17724-.20264-.20214-.37988-.07763-.5332a51.24888,51.24888,0,0,1,3.39111-4.89551l-.75488-6.11475a5.47,5.47,0,0,1,.98584-1.54443,16.53409,16.53409,0,0,0,1.73242-2.8877A5.94228,5.94228,0,0,0,192.479,59.645q-.0183-.33618.4375-.39111.45484-.052.47315.28418l1.05762,8.50879a22.56041,22.56041,0,0,1,9.22851-5.99415A8.09509,8.09509,0,0,1,210.15332,62.34473Zm-.65967,9.7622q-2.34888-7.68456-8.85791-5.69482a15.94766,15.94766,0,0,0-5.95068,3.53418l2.85058,23.90918a15.55088,15.55088,0,0,0,6.34327-.56738,8.76732,8.76732,0,0,0,6.08545-6.31934q1.459-4.90356.21191-12.06934Q209.75659,72.96948,209.49365,72.10693Z" transform="translate(-36.29897 -55.19989)"/><path d="M224.8667,87.59619a14.19692,14.19692,0,0,1-3.76025-8.68945,29.40756,29.40756,0,0,1-.09668-4.44629,23.004,23.004,0,0,1,2.47363-9.03174,19.37141,19.37141,0,0,1,5.54639-6.70166,15.12311,15.12311,0,0,1,7.49218-3.04541q5.21265-.59692,8.41162,2.46191a13.59008,13.59008,0,0,1,3.83252,8.59913,22.29422,22.29422,0,0,1,.02442,4.53662,23.5364,23.5364,0,0,1-2.76221,9.395,19.60931,19.60931,0,0,1-5.72314,6.59814,15.37,15.37,0,0,1-7.26172,2.895A9.38537,9.38537,0,0,1,224.8667,87.59619ZM240.978,84.1416a18.04842,18.04842,0,0,0,2.52-8.62451,27.97752,27.97752,0,0,0-.09864-5.18848,20.47326,20.47326,0,0,0-3.07373-9.18115q-2.44042-3.63941-6.105-3.22119a7.33286,7.33286,0,0,0-5.27636,3.6582,17.87384,17.87384,0,0,0-2.55127,8.71094,30.77059,30.77059,0,0,0,.05468,5.52344,18.64406,18.64406,0,0,0,3.127,8.92724q2.502,3.47022,6.08642,3.05811A7.28594,7.28594,0,0,0,240.978,84.1416Z" transform="translate(-36.29897 -55.19989)"/><path d="M299.52344,60.5459a12.752,12.752,0,0,1,.35156,5.48193q-.13476,1.22315-.79688,4.28516a32.55933,32.55933,0,0,1-4.50976,10.72656,24.17694,24.17694,0,0,1-6.88086,7.12793,10.787,10.787,0,0,1-6.94922,2.08887,5.98143,5.98143,0,0,1-3.75781-1.853,10.08058,10.08058,0,0,1-2.332-4.33691,18.15083,18.15083,0,0,1-5.33008,3.50244,10.47443,10.47443,0,0,1-5.12891.88476,6.556,6.556,0,0,1-5.18554-3.12207,10.39859,10.39859,0,0,1-1.2461-6.73437,14.146,14.146,0,0,1,.5293-2.582,26.945,26.945,0,0,1,2.60351-6.10889q1.78419-3.14649,4.457-7.227a3.25033,3.25033,0,0,0,.55859-1.34131q.07909-.73389-.98047-.84912l-4.07422-.44385a7.97211,7.97211,0,0,0-4.24267.32129,6.20442,6.20442,0,0,0-2.30713,3.00684q-.10914.23583-.51563.1914a.42839.42839,0,0,1-.34912-.20312.42306.42306,0,0,1,.00342-.41162,43.98864,43.98864,0,0,1,2.7959-5.22217,5.42107,5.42107,0,0,1,2.5039-2.16065,8.48515,8.48515,0,0,1,3.86524-.27978l7.33789.79932c.59766.06494.88476.207.86133.42334a1.95672,1.95672,0,0,1-.31641.62548q-2.44335,4.27149-4.41016,8.67579a50.68535,50.68535,0,0,0-2.8164,7.69384q-.36036,1.77612-.42969,2.42823a9.32457,9.32457,0,0,0,.89453,5.78857,4.87522,4.87522,0,0,0,3.89453,2.48633q3.09962.33765,6.46094-2.51319a29.1955,29.1955,0,0,1-.00586-6.76416,35.67841,35.67841,0,0,1,1.27149-6.37793,28.72213,28.72213,0,0,1,3.61914-8.59668q2.10643-3.06883,4.30859-2.83007a2.54692,2.54692,0,0,1,2.13086,1.63427,7.63515,7.63515,0,0,1,.39844,3.92041,31.34318,31.34318,0,0,1-.69141,3.30664,40.295,40.295,0,0,1-7.38476,14.78516q2.12109,4.76807,6.35937,5.22949a6.92812,6.92812,0,0,0,4.28516-1.10058,14.17155,14.17155,0,0,0,4.18945-3.99756,19.03886,19.03886,0,0,0,2.91211-6.28174,21.92579,21.92579,0,0,0,.57227-2.98975,10.159,10.159,0,0,0-.22071-4.02441,11.34793,11.34793,0,0,0-1.63281-3.18848,12.055,12.055,0,0,1-1.12695-1.77246,2.8647,2.8647,0,0,1-.23829-1.59326,2.79738,2.79738,0,0,1,1.32032-2.28955,4.32947,4.32947,0,0,1,2.69336-.49023A3.07533,3.07533,0,0,1,299.52344,60.5459ZM276.541,71.23975a19.31015,19.31015,0,0,0,.5039,7.47851,25.62057,25.62057,0,0,0,5.1582-10.24365q.32227-1.44946.38477-2.02a4.92341,4.92341,0,0,0-.28516-2.6709,1.83869,1.83869,0,0,0-1.5332-1.07422,2.16165,2.16165,0,0,0-2.02148,1.14112,10.7456,10.7456,0,0,0-1.44532,3.43017A21.557,21.557,0,0,0,276.541,71.23975Z" transform="translate(-36.29897 -55.19989)"/><path d="M331.63281,70.22021a3.14668,3.14668,0,0,1,.59082,3.10254q-1.24073,3.64966-7.57519,4.82862a42.57891,42.57891,0,0,1-14.31348-.061,25.89041,25.89041,0,0,0-1.68359,3.93115,13.5,13.5,0,0,0-.53028,8.30762,7.3206,7.3206,0,0,0,5.03907,4.919,12.5117,12.5117,0,0,0,8.40136-.001l.07813.02637a.588.588,0,0,1,.34765.37842.37882.37882,0,0,1-.11914.479q-7.125,2.86084-13.17871.80127-5.12256-1.74243-6.60254-5.79688a13.42813,13.42813,0,0,1,.23731-9.10058,23.47,23.47,0,0,1,1.708-3.74951,22.32555,22.32555,0,0,1,6.05664-6.731A22.96558,22.96558,0,0,1,318.71,67.4707a16.03311,16.03311,0,0,1,9.06152.35352A8.043,8.043,0,0,1,331.63281,70.22021Zm-5.80957,2.31153a2.46718,2.46718,0,0,0-.2832-2.34863,4.17451,4.17451,0,0,0-2.13086-1.50391,6.92543,6.92543,0,0,0-6.50293,1.2959,22.194,22.194,0,0,0-6.04687,7.08105q11.3994,1.626,14.46582-3.56836A7.26751,7.26751,0,0,0,325.82324,72.53174Z" transform="translate(-36.29897 -55.19989)"/><path d="M360.4668,85.3208a3.59378,3.59378,0,0,1,.042,3.26514,3.125,3.125,0,0,1-1.77441,1.522,2.8161,2.8161,0,0,1-2.36133-.17773,2.68557,2.68557,0,0,1-1.13477-1.01416,6.1739,6.1739,0,0,1-.57226-1.55225q-.17433-.55445-.39942-1.09082a1.57443,1.57443,0,0,0-.73535-.80371q-1.45165-.76466-5.67676,2.24707a78.96961,78.96961,0,0,0-9.07519,7.73291,102.683,102.683,0,0,0-8.01075,8.61719,1.5791,1.5791,0,0,1-1.34863.44873,5.48878,5.48878,0,0,1-2.13086-.70459q-1.88819-.9939-1.61914-1.501.3003-.39771,1.65528-2.00146,1.35351-1.60327,2.29785-2.86768L339.75977,84.521a20.34255,20.34255,0,0,0,1.89453-2.89454q1.52783-2.90185-.06836-3.74316-1.52344-.802-5.73242.50391a.33422.33422,0,0,1-.25586-.042.47321.47321,0,0,1-.2295-.44482q-.01317-.33032.21-.39941a24.07294,24.07294,0,0,1,6.36329-1.70069,7.97811,7.97811,0,0,1,4.51367.7544,3.00524,3.00524,0,0,1,1.75293,2.12744,6.05372,6.05372,0,0,1-.95508,3.57471,33.98439,33.98439,0,0,1-2.80371,4.26953l-5.99219,7.6875a68.70738,68.70738,0,0,1,11.58985-9.606q5.332-3.35523,8.09082-1.90332A5.2171,5.2171,0,0,1,360.4668,85.3208Z" transform="translate(-36.29897 -55.19989)"/><path d="M404.5127,83.437a3.22622,3.22622,0,0,1-.63965,3.42578,3.16142,3.16142,0,0,1-2.10352.96436,3.26666,3.26666,0,0,1-2.07226-.62744,2.62106,2.62106,0,0,1-1.3125-1.89942,7.44088,7.44088,0,0,1,.46191-2.54443,8.232,8.232,0,0,0,.40332-2.18213,1.758,1.758,0,0,0-.874-1.3833q-2.40089-1.71972-7.36621,1.48-4.9673,3.19995-12.7959,11.30908l-3.56153,3.70264q2.04639,1.36743,4.70411,2.86719l2.29492,1.44287q.46581.33326.085.86767a3.22263,3.22263,0,0,1-1.76074.90723,2.41715,2.41715,0,0,1-2.04395-.103,7.40427,7.40427,0,0,1-.81836-.6875q-.4204-.40064-.9043-.8501-.9917-1.0122-3.06543-2.90234L351.77539,119.439a69.92877,69.92877,0,0,1-9.43555,8.52149,14.73432,14.73432,0,0,1-6.88281,2.98682,8.62726,8.62726,0,0,1-5.87793-1.79151,7.69754,7.69754,0,0,1-3.06445-3.6084,2.80453,2.80453,0,0,1,.55762-3.03027,2.61242,2.61242,0,0,1,1.97949-1.00244,3.54775,3.54775,0,0,1,2.26269.71387,2.4552,2.4552,0,0,1,1.23633,1.79394,6.44572,6.44572,0,0,1-.48926,2.37256,6.27921,6.27921,0,0,0-.42187,1.71533,1.27484,1.27484,0,0,0,.64648,1.06836,1.83507,1.83507,0,0,0,2.04-.10156,24.09505,24.09505,0,0,0,3.918-3.144q2.67774-2.46973,7.89063-7.91407l20.26074-21.09179q1.08691-1.23706,1.375-1.63721a1.84911,1.84911,0,0,0,.36523-2.05859A10.61224,10.61224,0,0,0,365.376,90.749c-.13379-.0957-.1211-.2539.03808-.47656a1.09938,1.09938,0,0,1,.38672-.32861q.24317-.12817.31055-.08057a8.00443,8.00443,0,0,0,3.78613,1.75537,3.85422,3.85422,0,0,0,2.91406-1.39209A83.00561,83.00561,0,0,1,384.81445,79.8125q4.79443-3.17139,8.584-3.18018a13.66989,13.66989,0,0,1,7.92187,2.95362A8.02524,8.02524,0,0,1,404.5127,83.437Z" transform="translate(-36.29897 -55.19989)"/><path d="M391.79492,144.4668a.47719.47719,0,0,1,.08594.49267q-.08788.31933-.31836.31885a26.39716,26.39716,0,0,1-7.10352-.207,8.16919,8.16919,0,0,1-4.25976-2.11865,2.89993,2.89993,0,0,1-1.043-2.31983,4.67036,4.67036,0,0,1,1.56738-2.6084,24.7029,24.7029,0,0,1,2.958-2.37548l7.77344-5.44629a39.83551,39.83551,0,0,1-13.91895,4.10937q-6.03077.40137-9.10156-2.67236-3.8833-3.8877.52637-8.29151a26.96793,26.96793,0,0,1,3.65429-2.83886l12.41309-8.22657a10.7934,10.7934,0,0,0,1.624-1.2749q1.74171-1.73877.63965-2.84082a3.60207,3.60207,0,0,0-2.05761-.78369,36.86854,36.86854,0,0,0-3.97168-.26318.42575.42575,0,0,1-.43458-.60938.40275.40275,0,0,1,.43458-.31836,32.98728,32.98728,0,0,1,6.958.11963,7.20848,7.20848,0,0,1,4.11621,1.916q2.26026,2.26245-.583,5.102a21.40093,21.40093,0,0,1-3.19043,2.49121l-11.0791,7.35791a21.90569,21.90569,0,0,0-3.30665,2.60742q-3.19043,3.1875-.87207,5.50781,1.853,1.856,6.20313,1.45313a34.69513,34.69513,0,0,0,10.584-3.2124,85.53348,85.53348,0,0,0,13.543-7.90723,1.57594,1.57594,0,0,1,1.4209-.02783,5.7465,5.7465,0,0,1,1.88379,1.36328q1.50587,1.50805,1.10059,1.91406l-1.39258.92725q-3.01611,1.97021-3.82813,2.54883L387.50684,138.898a9.90831,9.90831,0,0,0-1.56641,1.333q-1.79883,1.79662-.75488,2.84033a4.50575,4.50575,0,0,0,2.34765,1.01611,19.21309,19.21309,0,0,0,4.0293.26319A.33572.33572,0,0,1,391.79492,144.4668Z" transform="translate(-36.29897 -55.19989)"/><path d="M390.0498,153.37891a4.68031,4.68031,0,0,1,1.97852-2.4419,21.33336,21.33336,0,0,1,3.54492-1.95556l39.23242-18.65284a10.82964,10.82964,0,0,0,1.80567-1.00195q1.72706-1.24878.7666-2.57812a9.44374,9.44374,0,0,0-3.207-2.33594l-.04785-.0669a.523.523,0,0,1,.05273-.6958q.293-.36329.55176-.14648l11.083,5.95117.0957.13281a.79037.79037,0,0,1,.1377.60938c-.03711.229-.11719.353-.23633.373l-47.25586,22.53125a11.11192,11.11192,0,0,0-1.87207,1.04981q-1.92774,1.39453-1.0625,2.58935a3.77847,3.77847,0,0,0,1.93261,1.13282,32.37771,32.37771,0,0,0,3.9043.92138.42461.42461,0,0,1,.332.66993.40467.40467,0,0,1-.47949.24609,29.58012,29.58012,0,0,1-6.82715-1.18555,7.38358,7.38358,0,0,1-3.78515-2.57568A3.01907,3.01907,0,0,1,390.0498,153.37891Z" transform="translate(-36.29897 -55.19989)"/><path d="M445.83594,191.21387a3.14693,3.14693,0,0,1-1.95313,2.481q-3.56835,1.45826-8.61523-2.54785a42.57221,42.57221,0,0,1-9.3457-10.84131,25.9535,25.9535,0,0,0-4.07129,1.30909,13.51132,13.51132,0,0,0-6.61719,5.05127,7.32066,7.32066,0,0,0-.4043,7.03027,12.51,12.51,0,0,0,5.5127,6.33935l.03125.07618a.58559.58559,0,0,1-.05664.51025.37862.37862,0,0,1-.44043.22412q-6.83351-3.498-9.251-9.41846-2.04784-5.00976.041-8.78613a13.43029,13.43029,0,0,1,7.02343-5.793,23.48988,23.48988,0,0,1,3.9502-1.1709,22.325,22.325,0,0,1,9.05371.15381,22.96467,22.96467,0,0,1,8.73828,3.82617,16.03168,16.03168,0,0,1,5.67871,7.06934A8.04244,8.04244,0,0,1,445.83594,191.21387Zm-5.55567-2.86768a2.46758,2.46758,0,0,0,1.58594-1.75537,4.17179,4.17179,0,0,0-.26269-2.59424,6.928,6.928,0,0,0-5.2461-4.05713,22.19208,22.19208,0,0,0-9.31054.0835q6.25341,9.66943,12.18457,8.57471A7.26014,7.26014,0,0,0,440.28027,188.34619Z" transform="translate(-36.29897 -55.19989)"/><path d="M454.48535,228.88525a3.61135,3.61135,0,0,1-2.4707,1.96,2.61746,2.61746,0,0,1-2.04785-.35449,2.71666,2.71666,0,0,1-1.18653-1.79931,3.2906,3.2906,0,0,1,.54-2.54932,2.94059,2.94059,0,0,0,.4209-1.93652q-.3296-1.52344-2.82226-2.57813l-7.89747-3.15967-10.19043,5.64161a6.82462,6.82462,0,0,0-2.81054,2.32714,3.30315,3.30315,0,0,0-.30274,2.28858q.4673,2.16357,4.02149,4.248a.33574.33574,0,0,1,.13281.22315.53528.53528,0,0,1-.17676.5415.47522.47522,0,0,1-.52148.1128,36.50161,36.50161,0,0,1-5.708-4.09375,7.22506,7.22506,0,0,1-2.33984-3.647,4.09805,4.09805,0,0,1,.48144-3.208,10.77455,10.77455,0,0,1,3.63672-2.96729l7.39844-4.19922-8.28125-2.99267a26.43775,26.43775,0,0,1-5.53028-2.4961,4.37075,4.37075,0,0,1-1.72265-2.73193,4.53011,4.53011,0,0,1,.67773-3.46045,3.72851,3.72851,0,0,1,2.77735-1.90039,2.49363,2.49363,0,0,1,1.76269.58447,2.883,2.883,0,0,1,.99024,1.67334,2.96225,2.96225,0,0,1,.03711,1.33447,5.41672,5.41672,0,0,1-.4961,1.19776,5.751,5.751,0,0,0-.37988.96289,2.10342,2.10342,0,0,0-.02344,1.05371q.32813,1.52124,2.72461,2.51514l8.90039,3.53027,8.89649-5.02637a7.664,7.664,0,0,0,3.23437-2.50244,3.34394,3.34394,0,0,0,.40625-2.395q-.43359-2.00391-4.04-4.32861a.33477.33477,0,0,1-.13183-.22315.56633.56633,0,0,1,.18554-.50146c.15723-.17432.30664-.1919.44922-.05518a32.5619,32.5619,0,0,1,5.7002,4.0542,7.39918,7.39918,0,0,1,2.34863,3.687,4.36482,4.36482,0,0,1-.53613,3.34571,10.67841,10.67841,0,0,1-3.93164,3.15625l-6.21973,3.4414,7.39258,2.76514a25.10439,25.10439,0,0,1,5.43359,2.43311,4.36817,4.36817,0,0,1,1.72266,2.73193A4.69121,4.69121,0,0,1,454.48535,228.88525Z" transform="translate(-36.29897 -55.19989)"/><path d="M454.82227,263.47949q-2.11816,2.14746-6.29786,2.25879a19.93944,19.93944,0,0,1-2.957-.168,26.69806,26.69806,0,0,1-18.24121-10.42578,14.91457,14.91457,0,0,1-3.09472-8.44873,30.86161,30.86161,0,0,1,.13281-4.269L409.54,240.19482a13.7197,13.7197,0,0,0-2.30176-.185,2.64848,2.64848,0,0,0-1.99121.709,2.91651,2.91651,0,0,0-.56055,2.06543q.01319.49218.21582,1.96289c.06153.21631-.05761.37109-.35644.46094-.29785.08984-.47754.02539-.53809-.19092L401.3252,230.4873q-.08937-.32445.39941-.42089c.32617-.0625.52051.01416.58008.23047a7.48867,7.48867,0,0,0,.93066,2.60058,3.19914,3.19914,0,0,0,1.71289,1.18506,27.37019,27.37019,0,0,0,3.876.79932l39.20312,5.9331q-.34131-.48339-2.88672-3.69678l-.08593-.16211a.52607.52607,0,0,1,.35547-.50146c.24316-.1167.42089-.09326.53515.06787a51.33735,51.33735,0,0,1,3.8125,4.57471l6.09375.90478q.16407-.00439,1.22559,1.36182a16.52042,16.52042,0,0,0,2.32129,2.44043,5.93673,5.93673,0,0,0,2.74218,1.36279q.32959.07178.26075.52588c-.04785.30127-.18067.42822-.40039.37988l-8.48243-1.25146a22.561,22.561,0,0,1,3.31348,10.49316A8.09551,8.09551,0,0,1,454.82227,263.47949Zm-9.23243-3.24121q8.03175-.21387,7.85254-7.0166a15.96377,15.96377,0,0,0-1.81738-6.67822l-23.80273-3.63428a15.54087,15.54087,0,0,0-1.14649,6.26465,8.76805,8.76805,0,0,0,4.46582,7.55127q4.33595,2.71509,11.5752,3.42529Q444.68848,260.26172,445.58984,260.23828Z" transform="translate(-36.29897 -55.19989)"/><path d="M452.50879,296.1709a3.14712,3.14712,0,0,1-2.93945,1.15332q-3.81592-.54492-6.14649-6.55176a42.59579,42.59579,0,0,1-2.58594-14.07812,25.98437,25.98437,0,0,0-4.1748-.92774,13.51052,13.51052,0,0,0-8.2627,1.01465,7.32134,7.32134,0,0,0-3.90136,5.8623,12.51066,12.51066,0,0,0,1.55371,8.25684l-.01172.08106a.59107.59107,0,0,1-.30762.4121.37893.37893,0,0,1-.49219-.02929q-4.12939-6.47314-3.22461-12.80274.76612-5.35693,4.47657-7.56054a13.42146,13.42146,0,0,1,8.9873-1.4502,23.59844,23.59844,0,0,1,4.001.98535,22.31611,22.31611,0,0,1,7.73437,4.709,22.96186,22.96186,0,0,1,5.60743,7.71679,16.03776,16.03776,0,0,1,1.32812,8.96973A8.04459,8.04459,0,0,1,452.50879,296.1709Zm-3.3457-5.28223a2.46825,2.46825,0,0,0,2.25586-.71387,4.1633,4.1633,0,0,0,1.084-2.37109,6.92754,6.92754,0,0,0-2.47559-6.15234,22.20657,22.20657,0,0,0-8.07714-4.63282q.50976,11.5049,6.18164,13.55665A7.21391,7.21391,0,0,0,449.16309,290.88867Z" transform="translate(-36.29897 -55.19989)"/><path d="M443,327.31152a3.59508,3.59508,0,0,1-3.20117.64551,3.12969,3.12969,0,0,1-1.82324-1.46289,2.81248,2.81248,0,0,1-.26172-2.35449,2.67951,2.67951,0,0,1,.78711-1.30176,6.16212,6.16212,0,0,1,1.41894-.84961q.5127-.27246.99805-.59375a1.57511,1.57511,0,0,0,.6543-.87109q.48339-1.56885-3.25782-5.16406a78.83137,78.83137,0,0,0-9.27734-7.48926,102.5649,102.5649,0,0,0-9.94922-6.28028,1.58037,1.58037,0,0,1-.69043-1.24218,5.48529,5.48529,0,0,1,.29883-2.22461q.62841-2.03907,1.17578-1.86817.44678.22119,2.27344,1.25684,1.82518,1.03272,3.24316,1.72754l14.57031,7.57422a20.31539,20.31539,0,0,0,3.19434,1.32714q3.13476.96387,3.666-.75878.50684-1.64649-1.55469-5.541a.33346.33346,0,0,1-.00586-.25879.47058.47058,0,0,1,.39453-.30762c.21484-.0498.3584-.00488.43164.13282a24.0465,24.0465,0,0,1,2.84766,5.93847,7.98389,7.98389,0,0,1,.09277,4.57618,3.00713,3.00713,0,0,1-1.7666,2.11523,6.05811,6.05811,0,0,1-3.68945-.27734,34.07175,34.07175,0,0,1-4.71485-1.9668l-8.66211-4.46777a68.69175,68.69175,0,0,1,11.583,9.61425q4.28174,4.62012,3.36523,7.59961A5.21109,5.21109,0,0,1,443,327.31152Z" transform="translate(-36.29897 -55.19989)"/><path d="M413.917,323.86914a19.47767,19.47767,0,0,1,3.44043,2.13281l14.07129,10.209a11.03423,11.03423,0,0,0,1.832,1.11718q2.23242,1.03272,2.88672-.38183a4.47685,4.47685,0,0,0,.10742-2.47949,19.11626,19.11626,0,0,0-1.14648-3.87207.33567.33567,0,0,1,.0293-.25782.56474.56474,0,0,1,.44921-.28906c.23145-.04394.36133.03125.39258.22656q3.53467,7.59669,1.78028,11.39258a2.9634,2.9634,0,0,1-1.8711,1.79981,4.52122,4.52122,0,0,1-2.96972-.51465,17.69727,17.69727,0,0,1-3.252-1.95508l-14.44336-10.38086a11.10977,11.10977,0,0,0-1.83105-1.11719q-2.16064-.999-2.77832.3418-.791,1.71094.958,6.13379a.33557.33557,0,0,1-.02832.25781.53307.53307,0,0,1-.4668.32617c-.2207.01856-.34473-.06836-.375-.26367a26.87536,26.87536,0,0,1-2.23535-6.498,7.749,7.749,0,0,1,.42675-4.63672Q410.26905,322.18359,413.917,323.86914Zm33.44727,21.74121a3.81618,3.81618,0,0,1,2.998.25684,3.5703,3.5703,0,0,1,2.02637,2.06543,4.55833,4.55833,0,0,1-2.375,5.13574,3.575,3.575,0,0,1-2.88574-.20508,3.91368,3.91368,0,0,1-2.15527-2.08008,4.4743,4.4743,0,0,1,2.3916-5.17285Z" transform="translate(-36.29897 -55.19989)"/><path d="M418.6377,373.34277a3.148,3.148,0,0,1-3.1543-.16211q-3.252-2.06982-2.89551-8.5039a42.55634,42.55634,0,0,1,3.45117-13.89063,25.87245,25.87245,0,0,0-3.4209-2.56738,13.50662,13.50662,0,0,0-7.94531-2.48437,7.32365,7.32365,0,0,0-5.97265,3.73046,12.51679,12.51679,0,0,0-1.99024,8.16309l-.04394.06836a.58955.58955,0,0,1-.4502.249.3782.3782,0,0,1-.43652-.23047q-1.09131-7.59814,2.34375-12.99218,2.90771-4.56446,7.19726-5.041a13.42547,13.42547,0,0,1,8.78516,2.38672,23.47561,23.47561,0,0,1,3.2373,2.54785,22.33808,22.33808,0,0,1,5.1045,7.47949,22.96549,22.96549,0,0,1,1.92382,9.34375,16.03742,16.03742,0,0,1-2.49023,8.71875A8.04949,8.04949,0,0,1,418.6377,373.34277Zm-.86915-6.19238a2.46889,2.46889,0,0,0,2.34961.28125,4.18079,4.18079,0,0,0,1.96582-1.71289,6.93081,6.93081,0,0,0,.28223-6.626A22.20008,22.20008,0,0,0,416.919,351.541q-4.28028,10.689.03906,14.89843A7.27712,7.27712,0,0,0,417.76855,367.15039Z" transform="translate(-36.29897 -55.19989)"/><path d="M372.18066,387.98633a.5589.5589,0,0,1-.8789-.25879,28.5353,28.5353,0,0,1-.12891-6.958,7.56158,7.56158,0,0,1,1.82324-4.24121,2.83479,2.83479,0,0,1,2.31055-1.09668,5.0298,5.0298,0,0,1,2.75293,1.55664,28.02518,28.02518,0,0,1,2.66016,3.03906l7.917,10.62891a22.18505,22.18505,0,0,0,2.7832,3.2666q3.24024,3.019,5.41992.67969,1.79-1.9204,1.23047-6.251a35.33,35.33,0,0,0-3.56054-10.49218,82.88611,82.88611,0,0,0-8.3584-13.28223,1.57883,1.57883,0,0,1-.0791-1.41895,5.50483,5.50483,0,0,1,1.23925-1.87109q1.51026-1.62012,1.92969-1.22852l.97656,1.3584q2.07423,2.94288,2.6836,3.73438l11.08593,14.92675a10.82591,10.82591,0,0,0,1.33106,1.57715q1.85889,1.73292,2.92187.59375,1.34181-1.43994,1.05079-6.41894a.33374.33374,0,0,1,.10742-.23633.47219.47219,0,0,1,.48926-.10352q.32226.07325.33007.30665a25.4664,25.4664,0,0,1,.01758,7.07812,8.40863,8.40863,0,0,1-1.99121,4.42188,2.84206,2.84206,0,0,1-2.31055,1.09667,4.86865,4.86865,0,0,1-2.69336-1.501,24.73441,24.73441,0,0,1-2.41992-2.81543l-5.48047-7.34961A39.44732,39.44732,0,0,1,399.792,390.292q.58594,5.9253-2.377,9.10547a5.08859,5.08859,0,0,1-3.90723,1.90723,7.10022,7.10022,0,0,1-4.40136-2.25293,24.92373,24.92373,0,0,1-2.96387-3.43457l-8.833-11.93067a10.83272,10.83272,0,0,0-1.332-1.57714q-1.8003-1.67725-2.86231-.53809a3.77653,3.77653,0,0,0-.7373,2.11523,32.273,32.273,0,0,0-.14941,4.00782A.45133.45133,0,0,1,372.18066,387.98633Z" transform="translate(-36.29897 -55.19989)"/><path d="M364.95117,388.292a15.2695,15.2695,0,0,1,7.59473,5.80957,22.6372,22.6372,0,0,1,2.42676,4.12012,20.18492,20.18492,0,0,1,.10449,17.54883,16.043,16.043,0,0,1-4.83789,6.01269,9.97143,9.97143,0,0,1-4.87988,2.01856,3.83145,3.83145,0,0,1-3.76856-1.44922,3.59513,3.59513,0,0,1-.751-2.40039,2.92229,2.92229,0,0,1,1.33008-2.20313q2.04639-1.50879,4.3916.42969a3.81838,3.81838,0,0,0,5.01758.17188,6.67063,6.67063,0,0,0,2.67969-5.89942,20.62181,20.62181,0,0,0-2.48047-8.61328,32.44391,32.44391,0,0,0-2.75-4.69727,14.56414,14.56414,0,0,0-6.79394-5.48339,7.543,7.543,0,0,0-7.24415,1.36816q-3.2329,2.3833-4.60449,7.57227l-.083.16308a.56584.56584,0,0,1-.55761.00391c-.23926-.0957-.34864-.21875-.3252-.3711q1.62744-8.436,6.83985-12.27832Q360.61621,386.9043,364.95117,388.292Z" transform="translate(-36.29897 -55.19989)"/><path d="M337.76074,439.16211a3.14747,3.14747,0,0,1-2.64941-1.71875q-1.77833-3.4204,1.751-8.81152a42.60478,42.60478,0,0,1,9.94336-10.2959,25.806,25.806,0,0,0-1.6748-3.93457,13.505,13.505,0,0,0-5.63379-6.12891,7.3192,7.3192,0,0,0-7.03809.23828,12.51,12.51,0,0,0-5.80957,6.06836l-.07324.03809a.58312.58312,0,0,1-.51367-.01074.3766.3766,0,0,1-.2627-.417q2.85938-7.125,8.53516-10.07226,4.80175-2.4961,8.75293-.76074a13.42639,13.42639,0,0,1,6.40918,6.46582,23.47658,23.47658,0,0,1,1.52734,3.82714,22.32238,22.32238,0,0,1,.67286,9.0293,22.9603,22.9603,0,0,1-3.01368,9.05176,16.03709,16.03709,0,0,1-6.52148,6.2998A8.04469,8.04469,0,0,1,337.76074,439.16211Zm2.34864-5.79492a2.46738,2.46738,0,0,0,1.89257,1.41992,4.16768,4.16768,0,0,0,2.55957-.499q2.98389-1.54981,3.56153-5.59375a22.20171,22.20171,0,0,0-.93262-9.26368q-9.05859,7.10889-7.42773,12.915A7.13783,7.13783,0,0,0,340.10938,433.36719Z" transform="translate(-36.29897 -55.19989)"/><path d="M320.043,412.77148q2.67627.5962,3.31738,2.458a3.01736,3.01736,0,0,1-.06738,2.45117,2.92266,2.92266,0,0,1-1.71094,1.45508,2.08107,2.08107,0,0,1-1.56836-.02344,9.64664,9.64664,0,0,1-1.91894-1.291,8.8573,8.8573,0,0,0-2.6875-1.76367,4.42236,4.42236,0,0,0-3.085.10742q-3.72217,1.28027-2.82422,5.6543a4.89452,4.89452,0,0,0,.26953,1.03418,6.44368,6.44368,0,0,0,2.6123,3.4375,28.09137,28.09137,0,0,0,5.22364,2.45214,28.85866,28.85866,0,0,1,5.15722,2.3877,6.30661,6.30661,0,0,1,2.65137,3.42383,8.08826,8.08826,0,0,1,.0625,5.09472,10.97106,10.97106,0,0,1-2.89844,4.68262,12.885,12.885,0,0,1-4.89844,3.0293,10.07523,10.07523,0,0,1-5.3623.54394,3.07462,3.07462,0,0,1-2.71973-2.35937,3.28267,3.28267,0,0,1,.38086-2.16895,2.725,2.725,0,0,1,1.47949-1.24609,2.772,2.772,0,0,1,1.96973-.07031,8.08848,8.08848,0,0,1,1.87891,1.1748,8.05673,8.05673,0,0,0,2.24316,1.35254,3.75267,3.75267,0,0,0,2.51367-.12793,4.00518,4.00518,0,0,0,2.17578-1.61523,3.19141,3.19141,0,0,0,.4043-2.48047,4.88469,4.88469,0,0,0-.26953-1.03516,6.19162,6.19162,0,0,0-2.55957-3.28125,28.49972,28.49972,0,0,0-5.041-2.42871,31.67517,31.67517,0,0,1-5.47168-2.66992,6.81728,6.81728,0,0,1-2.75683-3.60449,9.36559,9.36559,0,0,1-.11524-5.25,12.75589,12.75589,0,0,1,2.749-5.36817,11.68984,11.68984,0,0,1,5.24316-3.53808A10.223,10.223,0,0,1,320.043,412.77148Z" transform="translate(-36.29897 -55.19989)"/><path d="M261.48828,456.05664a.695.695,0,0,1-.13281-.56445,5.34307,5.34307,0,0,1,.90137-1.8916,2.24019,2.24019,0,0,1,1.54589-1.126q.41016-.03661,3.09961.13574a44.69992,44.69992,0,0,0,5.47461.00488l1.8086-20.33105a11.34371,11.34371,0,0,0,.04785-2.22656,3.97709,3.97709,0,0,0-1.2461-2.89356,4.37814,4.37814,0,0,0-3.1875-.66308,8.40055,8.40055,0,0,0-3.63964,1.18945,21.21942,21.21942,0,0,0-3.64942,2.91895l-.082.00683a.70529.70529,0,0,1-.51172-.20117q-.26659-.22266-.11816-.40039a32.57689,32.57689,0,0,1,6.06347-5.39844,11.77929,11.77929,0,0,1,5.29981-1.95508,6.76287,6.76287,0,0,1,4.36035.8877q1.74756,1.11913,2.01563,4.1416.04394.49072.01171,1.97461l-1.7832,18.76465a11.18974,11.18974,0,0,0-.10058,2.56152,1.59044,1.59044,0,0,0,.78808,1.45313,5.592,5.592,0,0,0,2.48242.14843c.16407-.01465.25782.11328.28223.38672a1.0884,1.0884,0,0,1-.0791.501c-.06738.1709-.12793.25781-.18262.26269a8.09811,8.09811,0,0,0-5.10351,2.3086,10.24864,10.24864,0,0,0-2.80762,4.9834c.01465.16406-.168.26269-.54981.29589a1.547,1.547,0,0,1-.623-.06738c-.19825-.06445-.27149-.12793-.22266-.18555l.582-6.3916q-1.95264.2549-3.73828.53907-1.78564.2827-3.249.49609-2.34669.45557-3.24512.53613A.55338.55338,0,0,1,261.48828,456.05664Z" transform="translate(-36.29897 -55.19989)"/><path d="M256.02344,427.22266a14.20389,14.20389,0,0,1,2.13965,9.22363,29.43726,29.43726,0,0,1-.70313,4.39062,22.99981,22.99981,0,0,1-4.05517,8.44141,19.37015,19.37015,0,0,1-6.65918,5.59766,15.12135,15.12135,0,0,1-7.917,1.65039q-5.23534-.34863-7.83349-3.93164a13.59187,13.59187,0,0,1-2.22608-9.14746,22.28619,22.28619,0,0,1,.79-4.4668,23.53314,23.53314,0,0,1,4.40381-8.74707,19.61333,19.61333,0,0,1,6.81494-5.46387,15.36974,15.36974,0,0,1,7.66358-1.54394A9.38347,9.38347,0,0,1,256.02344,427.22266Zm-16.46973.50683a18.04315,18.04315,0,0,0-4.02734,8.03223,27.95908,27.95908,0,0,0-.834,5.12207,20.46729,20.46729,0,0,0,1.37549,9.583q1.74756,4.01807,5.42774,4.26465a7.33013,7.33013,0,0,0,5.84716-2.65137,17.87049,17.87049,0,0,0,4.07325-8.11133,30.74446,30.74446,0,0,0,.938-5.44336,18.63879,18.63879,0,0,0-1.47412-9.34375q-1.83837-3.86279-5.43847-4.10156A7.2843,7.2843,0,0,0,239.55371,427.72949Z" transform="translate(-36.29897 -55.19989)"/><path d="M191.79443,445.91113a7.83524,7.83524,0,0,1,.9209-2.17968q.64453-1.06641.92285-.82715a10.61788,10.61788,0,0,0,5.65381,2.7539,10.033,10.033,0,0,1-.25049-6.1455,13.682,13.682,0,0,1,1.06836-2.94532A15.39031,15.39031,0,0,1,210.3457,428.165a12.71989,12.71989,0,0,1,6.13526-.042,13.82827,13.82827,0,0,1,1.791.61328,4.82927,4.82927,0,0,0,1.54688-2.48926,4.01264,4.01264,0,0,0-.89209-3.55762,35.02257,35.02257,0,0,0-4.47364-4.44629,33.565,33.565,0,0,1-5.83837-5.92578,6.888,6.888,0,0,1-1.10547-5.93457,9.08262,9.08262,0,0,1,3.80859-5.30664,16.71242,16.71242,0,0,1,7.31348-2.749,22.78681,22.78681,0,0,1,8.83105.5q5.65211,1.40186,8.3418,4.51855a6.97445,6.97445,0,0,1,1.86182,6.46,8.69342,8.69342,0,0,1-4.44434,5.48731,40.33521,40.33521,0,0,1-9.73779,3.66894q2.37158,2.69972,1.77978,5.08692a2.85843,2.85843,0,0,1-.27685.77637,7.06174,7.06174,0,0,1-2.01416,2.33105,22.8609,22.8609,0,0,1-3.58545,2.19434,7.32339,7.32339,0,0,1,3.12988,4.07129,10.37612,10.37612,0,0,1,.03076,5.668,19.64913,19.64913,0,0,1-1.02832,2.78614,14.54253,14.54253,0,0,1-6.87793,7.123,13.44417,13.44417,0,0,1-9.53369,1.14258,8.54788,8.54788,0,0,1-4.978-3.09277,19.48129,19.48129,0,0,1-8.19384-.00488C191.6709,446.97852,191.62354,446.59961,191.79443,445.91113Zm12.99317-7.085a16.07824,16.07824,0,0,0-.39453,6.70215,4.00172,4.00172,0,0,0,3,3.57422q2.22876.55371,4.67041-1.46094a13.90727,13.90727,0,0,0,3.90771-5.53613,19.94022,19.94022,0,0,0,.98828-2.96485,13.22982,13.22982,0,0,0,.17676-6.5039,4.20818,4.20818,0,0,0-3.03955-3.415,5.24161,5.24161,0,0,0-4.5918,1.31152,13.36131,13.36131,0,0,0-3.8872,5.626A17.147,17.147,0,0,0,204.7876,438.82617Zm9.22168-29.18359a39.98037,39.98037,0,0,0,5.48974,5.62695,33.32749,33.32749,0,0,1,3.24756,2.918,23.19482,23.19482,0,0,0,5.97071-2.78613,7.46827,7.46827,0,0,0,3.02441-4.53028,7.17053,7.17053,0,0,0-1.55371-6.51074,12.86532,12.86532,0,0,0-7.19776-4.19238,9.78015,9.78015,0,0,0-6.70166.28125,6.10007,6.10007,0,0,0-2.27929,9.19336Z" transform="translate(-36.29897 -55.19989)"/><path d="M166.71533,435.60938a3.14769,3.14769,0,0,1-.356-3.1377q1.51245-3.54639,7.917-4.24707a42.60893,42.60893,0,0,1,14.26855,1.13672,25.98607,25.98607,0,0,0,1.97412-3.79395,13.51069,13.51069,0,0,0,1.15284-8.24414,7.32066,7.32066,0,0,0-4.65626-5.2832,12.50875,12.50875,0,0,0-8.37792-.63086l-.0752-.03223a.58582.58582,0,0,1-.31836-.40332.3787.3787,0,0,1,.15479-.46875q7.31909-2.31738,13.20117.19141,4.97827,2.12256,6.14892,6.27637a13.42569,13.42569,0,0,1-.91992,9.05664,23.5652,23.5652,0,0,1-1.98486,3.61132,22.3292,22.3292,0,0,1-6.5459,6.25684,22.95856,22.95856,0,0,1-8.90332,3.42383,16.02944,16.02944,0,0,1-9.00879-1.03223A8.05518,8.05518,0,0,1,166.71533,435.60938Zm5.9668-1.86817a2.46426,2.46426,0,0,0,.10693,2.36231,4.16292,4.16292,0,0,0,2.01074,1.66015q3.09448,1.31982,6.583-.80371a22.1925,22.1925,0,0,0,6.561-6.60742q-11.24561-2.47705-14.69287,2.47168A7.2853,7.2853,0,0,0,172.68213,433.74121Z" transform="translate(-36.29897 -55.19989)"/><path d="M141.2832,420.00879a.69408.69408,0,0,1,.2295-.53223,5.34725,5.34725,0,0,1,1.85009-.9834,2.24275,2.24275,0,0,1,1.9126.01563q.35083.21533,2.40967,1.9541a44.78544,44.78544,0,0,0,4.39648,3.26367l13.55567-15.25976a11.36733,11.36733,0,0,0,1.36474-1.76172,3.98233,3.98233,0,0,0,.72119-3.06641,4.3739,4.3739,0,0,0-2.167-2.42969,8.38037,8.38037,0,0,0-3.63232-1.21093,21.24437,21.24437,0,0,0-4.67041.17187l-.06983-.042a.70874.70874,0,0,1-.2915-.4668c-.05469-.22558-.00586-.35644.14355-.39258a32.63077,32.63077,0,0,1,8.08545-.72851,11.78505,11.78505,0,0,1,5.42237,1.585,6.76277,6.76277,0,0,1,2.97558,3.30859q.73755,1.93946-.8457,4.52832-.25709.419-1.1665,1.59375l-12.60352,14.01563a11.17846,11.17846,0,0,0-1.60547,1.99805,1.58959,1.58959,0,0,0-.23144,1.63671,5.59779,5.59779,0,0,0,1.90625,1.59766q.21019.12744-.00391.47754a1.0807,1.0807,0,0,1-.36133.35547c-.15576.09766-.25635.13183-.30322.10351a8.10328,8.10328,0,0,0-5.4751-1.18457,10.25214,10.25214,0,0,0-5.22265,2.334c-.08545.13965-.291.11035-.61817-.08985a1.54893,1.54893,0,0,1-.46045-.4248c-.12012-.16992-.14209-.26465-.06787-.28223l4.27246-4.78906q-1.72119-.95654-3.32519-1.792-1.60254-.835-2.90577-1.53516-2.157-1.03125-2.92675-1.501A.55329.55329,0,0,1,141.2832,420.00879Z" transform="translate(-36.29897 -55.19989)"/><path d="M128.69482,377.17578a.56966.56966,0,0,1-.15185-.51269.37237.37237,0,0,1,.38086-.375,28.57372,28.57372,0,0,1,6.94922-.36621,7.56708,7.56708,0,0,1,4.30127,1.67773,2.83455,2.83455,0,0,1,1.1748,2.27246,5.02236,5.02236,0,0,1-1.46142,2.80371,28.018,28.018,0,0,1-2.94727,2.7627l-10.35254,8.27441a22.11221,22.11221,0,0,0-3.16992,2.89356q-2.907,3.33984-.49414,5.43945,1.98047,1.72411,6.28955,1.0166a35.329,35.329,0,0,0,10.36426-3.916,82.90085,82.90085,0,0,0,12.98925-8.80664,1.5801,1.5801,0,0,1,1.41553-.12695,5.46556,5.46556,0,0,1,1.91211,1.17481q1.67065,1.45313,1.29346,1.88574l-1.32373,1.02246q-2.87109,2.17383-3.64112,2.80957l-35.03759,27.77441a8.94357,8.94357,0,0,0-1.36182,1.31446q-1.50659,1.73144-.2085,2.8623a9.43918,9.43918,0,0,0,3.65332,1.54883l.06153.05371a.533.533,0,0,1,.10205.63184q-.14355.41748-.50049.32617L106.78857,428.333l-.12353-.10742a.7886.7886,0,0,1-.27149-.5625c-.01611-.23145.03321-.37012.14551-.417l34.02832-27.23828a39.54157,39.54157,0,0,1-13.293,4.84571q-5.844.78369-9.12353-2.06934a5.03048,5.03048,0,0,1-2.03516-3.78223,7.24046,7.24046,0,0,1,2.15918-4.47949,23.8776,23.8776,0,0,1,3.26953-3.13379l11.62305-9.23437a10.8134,10.8134,0,0,0,1.53125-1.38477q1.61425-1.85595.43945-2.87891a3.78571,3.78571,0,0,0-2.13867-.665,32.44688,32.44688,0,0,0-4.01123-.01172A.458.458,0,0,1,128.69482,377.17578Z" transform="translate(-36.29897 -55.19989)"/><path d="M92.15527,371.65332a3.1461,3.1461,0,0,1,1.17432-2.93164q3.01245-2.40674,8.9834.01367a42.57807,42.57807,0,0,1,12.0249,7.76367,25.87332,25.87332,0,0,0,3.53662-2.40429,13.508,13.508,0,0,0,4.92334-6.71289,7.32288,7.32288,0,0,0-1.59521-6.85938,12.51781,12.51781,0,0,0-7.07813-4.52637l-.05127-.06347a.5891.5891,0,0,1-.08935-.50586.37954.37954,0,0,1,.35888-.33985q7.54321,1.42969,11.53321,6.42579,3.37719,4.229,2.439,8.4414a13.42718,13.42718,0,0,1-5.103,7.53906,23.528,23.528,0,0,1-3.45947,2.23829,22.3286,22.3286,0,0,1-8.72949,2.40625,22.9759,22.9759,0,0,1-9.46289-1.20508,16.03055,16.03055,0,0,1-7.44238-5.17969A8.048,8.048,0,0,1,92.15527,371.65332Zm6.13965,1.18262a2.46666,2.46666,0,0,0-1.02637,2.13183,4.17186,4.17186,0,0,0,.98389,2.415,6.9271,6.9271,0,0,0,6.17725,2.41211,22.19079,22.19079,0,0,0,8.90869-2.707q-8.7268-7.51319-14.1084-4.78906A7.38483,7.38483,0,0,0,98.29492,372.83594Z" transform="translate(-36.29897 -55.19989)"/><path d="M75.96045,343.3877a3.59331,3.59331,0,0,1,1.72168-2.77442,3.1267,3.1267,0,0,1,2.31445-.32812,2.8179,2.8179,0,0,1,1.895,1.42089,2.68386,2.68386,0,0,1,.41065,1.46485,6.19324,6.19324,0,0,1-.353,1.61719q-.15162.55956-.25049,1.13379a1.5796,1.5796,0,0,0,.187,1.07324q.813,1.42529,5.99463,1.16113a78.97262,78.97262,0,0,0,11.81006-1.63574,102.3953,102.3953,0,0,0,11.38965-2.95215,1.57923,1.57923,0,0,1,1.37793.34766,5.49211,5.49211,0,0,1,1.4165,1.74023q1.05688,1.8545.55713,2.13672-.46728.17431-2.47217.7959-2.00244.624-3.48,1.18066L92.9834,355.20508a20.26473,20.26473,0,0,0-3.1543,1.41992q-2.84838,1.62451-1.956,3.19141.85254,1.49706,5.10254,2.66015a.33561.33561,0,0,1,.19336.17383.47409.47409,0,0,1-.04639.498q-.167.28564-.39209.22363a24.11189,24.11189,0,0,1-6.27832-1.99023,7.98588,7.98588,0,0,1-3.39844-3.06543,3.00615,3.00615,0,0,1-.333-2.73633,6.05929,6.05929,0,0,1,2.72852-2.499,33.99986,33.99986,0,0,1,4.66064-2.08984l9.188-3.25488a68.83747,68.83747,0,0,1-14.938,1.86035q-6.29955-.04248-7.84375-2.75A5.21358,5.21358,0,0,1,75.96045,343.3877Z" transform="translate(-36.29897 -55.19989)"/><path d="M103.28955,328.0791a3.96185,3.96185,0,0,1-2.22217,2.085,3.46591,3.46591,0,0,1-2.81494.1084,3.91789,3.91789,0,0,1-2.03174-2.20117,3.87644,3.87644,0,0,1-.24853-2.93262,3.52086,3.52086,0,0,1,2.05078-1.96679,4.03741,4.03741,0,0,1,3.06152-.25977,3.68673,3.68673,0,0,1,2.05323,2.14746A3.74419,3.74419,0,0,1,103.28955,328.0791Z" transform="translate(-36.29897 -55.19989)"/><path d="M173.54736,341.18262q.14576-.21827.29053-.1211a4.16642,4.16642,0,0,0,2.45459.72559,8.18145,8.18145,0,0,0,3.51123-1.24512l22.69922-12.417c.08838-.08008.25439-.03906.49561.12207q.36254.24316.30175.41211l-4.47607,11.70312,12.01562-6.65429a.62808.62808,0,0,1,.53223.14551q.39916.26807.33789.43652l-8.74512,22.54687a5.75758,5.75758,0,0,0-.53125,2.5586,2.1631,2.1631,0,0,0,1.05567,1.52051q.10839.07323-.03711.29c-.09717.14551-.18164.19336-.2544.14454l-1.46191-1.03125q-.96533-.75147-1.47363-1.0918-.97853-.65478-2.25977-1.4082l-1.3291-.83692c-.09619-.06445-.09668-.16992.00049-.31543q.14575-.21679.29053-.12011a2.70413,2.70413,0,0,0,1.5415.55957,1.60663,1.60663,0,0,0,1.23-.85645,3.68787,3.68787,0,0,0,.41309-.77344l7.26123-18.9209-9.09668,5.03907-3.68555,9.66015a6.15865,6.15865,0,0,0-.62207,2.49707,1.86154,1.86154,0,0,0,.92871,1.43555c.07227.04883.06006.14551-.03711.291-.09668.14453-.18164.19238-.25439.14453l-1.353-.959q-.96534-.75146-1.40137-1.043-.761-.50976-1.67969-1.01953l-.93066-.57129q-.18091-.1201-.03564-.33886.14574-.2168.32714-.09571a1.74479,1.74479,0,0,0,.8584.36426.72951.72951,0,0,0,.58155-.39746,12.25179,12.25179,0,0,0,.76562-1.69238l2.51758-6.50489-5.77783,3.21875a6.09831,6.09831,0,0,0-2.07227,1.60547q-.60645.90528.58936,1.707.10913.07325-.03662.29c-.09717.14551-.18213.19336-.2544.14551l-.88183-.64355q-.676-.55811-1.32911-.99512-.616-.41161-1.4624-.874l-1.293-.8125q-.14429-.09669.001-.31543c.09668-.14453.19433-.18457.29053-.12012a3.62411,3.62411,0,0,0,2.27929.63379,9.18249,9.18249,0,0,0,3.46924-1.29981l7.001-3.86914,4.25683-11.0625-18.49609,10.29492a4.29936,4.29936,0,0,0-1.59961,1.292q-.89794,1.34033,1.0957,2.67578.145.09814-.00048.31445-.14576.21827-.291.1211l-1.28027-.91016q-1.03858-.80127-1.94532-1.40723-.65257-.438-1.5708-.94726l-1.438-.91016C173.4502,341.43262,173.4502,341.32715,173.54736,341.18262Z" transform="translate(-36.29897 -55.19989)"/><path d="M173.5127,323.66211a1.67542,1.67542,0,0,1,.51074-1.60059q1.50659-1.39159,4.76758-.33593a22.63759,22.63759,0,0,1,6.67773,3.65918,13.71971,13.71971,0,0,0,1.78467-1.41114,7.18493,7.18493,0,0,0,2.35547-3.75,3.89452,3.89452,0,0,0-1.10889-3.5791,6.66064,6.66064,0,0,0-3.92871-2.13086l-.02979-.03222a.31316.31316,0,0,1-.06689-.26465.20131.20131,0,0,1,.17773-.19336,9.864,9.864,0,0,1,6.36573,2.96777,5.21133,5.21133,0,0,1,1.6167,4.38574,7.14294,7.14294,0,0,1-2.41895,4.19532,12.44876,12.44876,0,0,1-1.75049,1.32031,11.88884,11.88884,0,0,1-4.53955,1.61133,12.22182,12.22182,0,0,1-5.06738-.27735,8.53288,8.53288,0,0,1-4.14746-2.46386A4.28669,4.28669,0,0,1,173.5127,323.66211Zm3.30322.39258a1.31353,1.31353,0,0,0-.46289,1.1709,2.21665,2.21665,0,0,0,.61426,1.24316,3.68446,3.68446,0,0,0,3.37011,1.04395,11.81638,11.81638,0,0,0,4.62354-1.77735q-4.91821-3.65186-7.66944-2.001A3.915,3.915,0,0,0,176.81592,324.05469Z" transform="translate(-36.29897 -55.19989)"/><path d="M168.92188,289.94727a.253.253,0,0,1,.03906-.2627c.06543-.09766.13672-.13379.21435-.10742a15.49654,15.49654,0,0,1,3.45362,1.19922,3.90745,3.90745,0,0,1,1.77588,1.64746,1.54251,1.54251,0,0,1,.10742,1.38574,2.67072,2.67072,0,0,1-1.29737,1.11231,14.84332,14.84332,0,0,1-1.97021.74121l-4.01856,1.23046a20.74961,20.74961,0,0,1,7.5503,1.05176,7.09037,7.09037,0,0,1,4.19531,3.21778,2.58,2.58,0,0,1,.186,2.17578,3.61651,3.61651,0,0,1-1.88232,1.74609q-.35155.17579-1.17041.48828a16.70154,16.70154,0,0,1-6.56494.67383,19.19059,19.19059,0,0,1-6.6626-1.666A7.95887,7.95887,0,0,1,158.877,301.168a3.93437,3.93437,0,0,1-.27343-3.18067,3.69784,3.69784,0,0,0-1.87305-.33105.24944.24944,0,0,1-.15625-.11719.5773.5773,0,0,1-.0586-.26269c0-.09766.02-.13965.0586-.127l13.46045-3.90527a6.13013,6.13013,0,0,0,1.11181-.40918q1.09278-.54784.76075-1.21-.41016-.82032-2.8877-1.58008A.17718.17718,0,0,1,168.92188,289.94727Zm4.18652,8.46679a15.47994,15.47994,0,0,0-4.74072-.89648,15.67852,15.67852,0,0,0-4.75049.44922,5.66773,5.66773,0,0,0-1.11182.41015,2.92247,2.92247,0,0,0-1.50195,1.4834,2.36916,2.36916,0,0,0,.17578,2.00879,4.71833,4.71833,0,0,0,2.40039,2.11621,10.21837,10.21837,0,0,0,4.09717.82813,14.88706,14.88706,0,0,0,4.87695-.78125q1.32716-.46875,1.7168-.66309,2.41918-1.21143,1.59912-2.84863A4.72331,4.72331,0,0,0,173.1084,298.41406Z" transform="translate(-36.29897 -55.19989)"/><path d="M152.13086,279.37793a1.9166,1.9166,0,0,1,1.23047-1.22656,1.66549,1.66549,0,0,1,1.23828.11328,1.49917,1.49917,0,0,1,.8081.9668,1.42569,1.42569,0,0,1,.03321.80859,3.30482,3.30482,0,0,1-.37988.79492q-.14722.271-.26807.55566a.83772.83772,0,0,0-.03418.57911q.24682.83788,2.96191,1.333a41.94452,41.94452,0,0,0,6.31494.59571,54.53079,54.53079,0,0,0,6.25782-.1377.83788.83788,0,0,1,.6709.34864,2.91038,2.91038,0,0,1,.52148,1.07421q.32007,1.08839.02734,1.17383-.26294.03369-1.37744.11035-1.11328.07911-1.9458.18653l-8.6875.92187a10.74472,10.74472,0,0,0-1.80713.34961q-1.67284.49365-1.40283,1.41406.25927.87891,2.31738,2a.18229.18229,0,0,1,.0791.11328.25382.25382,0,0,1-.085.25293c-.08105.085-.15722.10743-.23.06739a12.80167,12.80167,0,0,1-3.00781-1.79688,4.24406,4.24406,0,0,1-1.38574-2.002,1.60051,1.60051,0,0,1,.16211-1.458,3.222,3.222,0,0,1,1.71777-.96094,18.05036,18.05036,0,0,1,2.66846-.51269l5.15478-.56348a36.50112,36.50112,0,0,1-7.96191-.86133q-3.25635-.791-3.72559-2.38086A2.77951,2.77951,0,0,1,152.13086,279.37793Z" transform="translate(-36.29897 -55.19989)"/><path d="M149.64844,264.50586a1.67624,1.67624,0,0,1,1.334-1.02148q2.03173-.28125,4.10449,2.44921a22.64621,22.64621,0,0,1,3.38721,6.81934,13.7414,13.7414,0,0,0,2.271-.1377,7.18678,7.18678,0,0,0,4.07666-1.73144,3.89443,3.89443,0,0,0,1.13574-3.56934,6.66346,6.66346,0,0,0-2.00586-3.99511l-.00635-.043a.31566.31566,0,0,1,.09668-.25586.20137.20137,0,0,1,.25635-.05664,9.8641,9.8641,0,0,1,3.52686,6.07324,5.21133,5.21133,0,0,1-1.18018,4.52344,7.14036,7.14036,0,0,1-4.38281,2.05957,12.45806,12.45806,0,0,1-2.19092.083,11.86717,11.86717,0,0,1-4.646-1.27343,12.21844,12.21844,0,0,1-3.99951-3.124,8.53064,8.53064,0,0,1-1.99463-4.3916A4.2763,4.2763,0,0,1,149.64844,264.50586Zm2.48584,2.21a1.31367,1.31367,0,0,0-1.04883.69531,2.21778,2.21778,0,0,0-.20654,1.37207,3.68634,3.68634,0,0,0,2.16845,2.78321,11.80625,11.80625,0,0,0,4.81006,1.18359q-1.94824-5.80663-5.14941-6.02539A3.89627,3.89627,0,0,0,152.13428,266.71582Z" transform="translate(-36.29897 -55.19989)"/><path d="M165.11572,234.22412a.25343.25343,0,0,1,.18213-.19433q.16407-.06446.23731.03417a15.54886,15.54886,0,0,1,2.15429,2.95313,3.90583,3.90583,0,0,1,.51953,2.3667,1.54013,1.54013,0,0,1-.70068,1.19922,2.666,2.666,0,0,1-1.70019.1748,14.80785,14.80785,0,0,1-2.04151-.51367l-4.00293-1.27978a20.7566,20.7566,0,0,1,5.60449,5.16748,7.09522,7.09522,0,0,1,1.6128,5.03564,2.57875,2.57875,0,0,1-1.08692,1.89307,3.61455,3.61455,0,0,1-2.542.3623q-.38892-.05567-1.24023-.26611a16.70268,16.70268,0,0,1-5.77832-3.1875,19.19447,19.19447,0,0,1-4.52491-5.16651,7.96043,7.96043,0,0,1-1.3413-5.08447,3.93172,3.93172,0,0,1,1.5874-2.769,3.68458,3.68458,0,0,0-1.3501-1.33984.24778.24778,0,0,1-.06152-.18506.58068.58068,0,0,1,.10156-.24952c.05566-.08056.09619-.10351.1206-.07128l13.28565,4.46337a6.035,6.035,0,0,0,1.14746.29688q1.20923.17358,1.31445-.56055.12965-.90673-1.47265-2.94336A.17838.17838,0,0,1,165.11572,234.22412Zm-1.38525,9.34229A17.11807,17.11807,0,0,0,156.186,237.79a5.58709,5.58709,0,0,0-1.14747-.29688,2.92484,2.92484,0,0,0-2.0791.36231,2.37067,2.37067,0,0,0-1.00049,1.75146,4.72122,4.72122,0,0,0,.76563,3.10694,10.23533,10.23533,0,0,0,2.89453,3.01562,14.9114,14.9114,0,0,0,4.45313,2.1377q1.35717.37134,1.78857.4331,2.67774.38452,2.9375-1.4292A4.726,4.726,0,0,0,163.73047,243.56641Z" transform="translate(-36.29897 -55.19989)"/><path d="M169.38232,232.186a2.48955,2.48955,0,0,1-1.67089-.05372,11.35391,11.35391,0,0,1-1.96827-.87451l-20.5166-10.63769a5.74177,5.74177,0,0,0-1.00537-.44385q-1.084-.33033-1.33935.50391a5.02829,5.02829,0,0,0,.04052,2.10986l-.01269.042a.27953.27953,0,0,1-.3125.20117c-.165-.00488-.24512-.06689-.23926-.187l-1.03906-6.61084.02588-.08349a.41729.41729,0,0,1,.21386-.25391c.10938-.05811.187-.06445.23438-.02l24.73926,12.793a5.89726,5.89726,0,0,0,1.04687.45605q1.2107.36988,1.439-.38183a2.00675,2.00675,0,0,0-.14063-1.18311,17.21956,17.21956,0,0,0-.86426-1.95117.25052.25052,0,0,1-.03222-.19238.2533.2533,0,0,1,.20947-.16407.21531.21531,0,0,1,.2583.12452,15.71617,15.71617,0,0,1,1.69189,3.27539,3.9314,3.9314,0,0,1,.12452,2.43261A1.60692,1.60692,0,0,1,169.38232,232.186Z" transform="translate(-36.29897 -55.19989)"/><path d="M168.11133,195.81982a6.78932,6.78932,0,0,1,2.7749.91651q.57715.30908,1.95606,1.24512a17.31881,17.31881,0,0,1,4.39648,4.35839,12.86317,12.86317,0,0,1,2.14893,4.812,5.73686,5.73686,0,0,1-.35157,3.84472,3.181,3.181,0,0,1-1.66113,1.48584,5.36739,5.36739,0,0,1-2.604.28858,9.65876,9.65876,0,0,1,.66845,3.32666,5.56675,5.56675,0,0,1-.583,2.70605,3.4868,3.4868,0,0,1-2.57178,1.93848,5.537,5.537,0,0,1-3.57129-.72412,7.57107,7.57107,0,0,1-1.16846-.77442,14.34785,14.34785,0,0,1-2.49707-2.49951q-1.19751-1.50659-2.6792-3.63672a1.73111,1.73111,0,0,0-.55078-.54248q-.34644-.1853-.61426.31494l-1.02929,1.92285a4.23586,4.23586,0,0,0-.68506,2.15674,3.297,3.297,0,0,0,1.02539,1.73633c.063.06738.06006.16455-.0083.29248a.23074.23074,0,0,1-.16992.13233.22627.22627,0,0,1-.20215-.084,23.31061,23.31061,0,0,1-2.021-2.418,2.88344,2.88344,0,0,1-.56836-1.665,4.51529,4.51529,0,0,1,.63086-1.96338l1.853-3.46142c.15088-.28174.27832-.395.38037-.34033a1.04279,1.04279,0,0,1,.24609.27978,51.44836,51.44836,0,0,0,3.40381,3.90088,26.8859,26.8859,0,0,0,3.23633,2.92041q.80493.531,1.11279.69483a4.96555,4.96555,0,0,0,3.03418.70947,2.59324,2.59324,0,0,0,2.00147-1.42774,4.59484,4.59484,0,0,0,.04443-3.6875,15.46371,15.46371,0,0,1-3.33887-1.34228,18.95857,18.95857,0,0,1-2.894-1.896,15.28066,15.28066,0,0,1-3.523-3.49414q-1.095-1.65015-.53955-2.689a1.35434,1.35434,0,0,1,1.23047-.72657,4.05983,4.05983,0,0,1,2.01318.583,16.53526,16.53526,0,0,1,1.49463.99805,21.44892,21.44892,0,0,1,5.82715,6.584,4.1563,4.1563,0,0,0,3.84522-2.09814,3.68915,3.68915,0,0,0,.30908-2.3335,7.54418,7.54418,0,0,0-1.14014-2.86181,10.103,10.103,0,0,0-2.52051-2.68555,11.56974,11.56974,0,0,0-1.36133-.877,5.39681,5.39681,0,0,0-2.02978-.69141,6.03522,6.03522,0,0,0-1.898.17139,6.32926,6.32926,0,0,1-1.09863.20361,1.52458,1.52458,0,0,1-.834-.19873,1.489,1.489,0,0,1-.8667-1.10742,2.30407,2.30407,0,0,1,.29346-1.42627A1.63529,1.63529,0,0,1,168.11133,195.81982Zm.707,13.4668a10.2753,10.2753,0,0,0,3.79053,1.23779,13.62663,13.62663,0,0,0-4.0293-4.582q-.65112-.44678-.91992-.59131a2.62113,2.62113,0,0,0-1.375-.39013.97689.97689,0,0,0-.835.543,1.15068,1.15068,0,0,0,.16113,1.22412,5.74308,5.74308,0,0,0,1.40527,1.396A11.55389,11.55389,0,0,0,168.81836,209.28662Z" transform="translate(-36.29897 -55.19989)"/><path d="M192.32324,187.62646a.25436.25436,0,0,1,.25928-.06054q.17213.03735.17871.15967a15.53026,15.53026,0,0,1,.15674,3.65234,3.90786,3.90786,0,0,1-.87842,2.25781,1.54071,1.54071,0,0,1-1.24853.61035,2.6682,2.6682,0,0,1-1.51172-.79687,14.83253,14.83253,0,0,1-1.415-1.5586l-2.62305-3.28369a20.7446,20.7446,0,0,1,1.80176,7.40723,7.09206,7.09206,0,0,1-1.44727,5.08545,2.57747,2.57747,0,0,1-1.9541.97363,3.61452,3.61452,0,0,1-2.31689-1.10693q-.29225-.26148-.88477-.90869a16.69867,16.69867,0,0,1-3.04394-5.855,19.21312,19.21312,0,0,1-.90381-6.8086,7.96017,7.96017,0,0,1,1.70068-4.97558,3.93213,3.93213,0,0,1,2.856-1.4253,3.68114,3.68114,0,0,0-.38184-1.86328.2525.2525,0,0,1,.05127-.18847.58714.58714,0,0,1,.22363-.15137c.09082-.03613.13721-.03272.13916.00781l8.58643,11.07715a6.074,6.074,0,0,0,.79053.88281q.91113.81446,1.40478.26172.61085-.68262.40576-3.2666A.17814.17814,0,0,1,192.32324,187.62646Zm-6.33008,7.00977a17.11688,17.11688,0,0,0-3.0791-8.98926,5.63148,5.63148,0,0,0-.79052-.88281,2.92525,2.92525,0,0,0-1.93213-.8501,2.36989,2.36989,0,0,0-1.80323.90332,4.71771,4.71771,0,0,0-1.084,3.01074,10.23729,10.23729,0,0,0,.73828,4.11426,14.91106,14.91106,0,0,0,2.52246,4.24658q.92432,1.062,1.249,1.35206,2.01636,1.80321,3.23731.4375A4.72511,4.72511,0,0,0,185.99316,194.63623Z" transform="translate(-36.29897 -55.19989)"/><path d="M198.5874,166.28809a3.34553,3.34553,0,0,1,1.53418,1.24951q2.06544,2.759,3.27051,10.08447a60.58113,60.58113,0,0,1,.72754,14.11328q-.47827,6.78663-2.81787,8.53858a2.45667,2.45667,0,0,1-1.436.55712,1.49016,1.49016,0,0,1-1.2251-.69043l-.20019-.34082a1.81719,1.81719,0,0,1,.74414-2.35449q.34937-.2622,1.16992-.7666.75-.45337,1.1001-.71435a3.81016,3.81016,0,0,0,1.47607-2.03174,15.59624,15.59624,0,0,0,.48487-4.88526l-1.32422-1.84228a49.72644,49.72644,0,0,0-8.72852-9.51465q-3.76171-2.87769-5.543-1.54541a1.9832,1.9832,0,0,0-.67285.99414,3.10966,3.10966,0,0,0-.08838,1.48291q.04322.1311-.13134.26172-.24463.18311-.36621-.05274a6.95076,6.95076,0,0,1,.02929-3.23681,3.87946,3.87946,0,0,1,1.37207-2.1709,3.66354,3.66354,0,0,1,3.69043-.20166,16.41052,16.41052,0,0,1,4.93067,3.312,42.82884,42.82884,0,0,1,5.312,5.96875q.91479,1.22241,1.3501,1.87695-.24024-3.30615-.76123-6.29589a24.226,24.226,0,0,0-1.06885-4.37647,9.37992,9.37992,0,0,0-.8711-1.52783,5.87485,5.87485,0,0,0-1.16748-1.19629,12.83162,12.83162,0,0,0-1.45654-.92627q-.40063-.2439-.77148-.48486a2.2043,2.2043,0,0,1-.57959-.52,1.58393,1.58393,0,0,1-.313-1.29151,1.92285,1.92285,0,0,1,.79541-1.19433A1.58858,1.58858,0,0,1,198.5874,166.28809Z" transform="translate(-36.29897 -55.19989)"/><path d="M210.56689,178.21143a2.1611,2.1611,0,0,1-1.93115-1.04493,1.60585,1.60585,0,0,1-.14892-1.29589,1.55606,1.55606,0,0,1,.7915-.89551,1.11064,1.11064,0,0,1,.82813-.105,5.12,5.12,0,0,1,1.10742.53564,4.72558,4.72558,0,0,0,1.54834.72705,2.35433,2.35433,0,0,0,1.6167-.28808q1.864-.95435,1.0625-3.19043a2.62568,2.62568,0,0,0-.21924-.52442,3.42418,3.42418,0,0,0-1.63477-1.61377,14.91263,14.91263,0,0,0-2.93457-.89941,15.3147,15.3147,0,0,1-2.896-.87061,3.35549,3.35549,0,0,1-1.65381-1.60351,4.3058,4.3058,0,0,1-.415-2.6792,5.83362,5.83362,0,0,1,1.1748-2.68359,6.8583,6.8583,0,0,1,2.35205-1.96338,5.36767,5.36767,0,0,1,2.7837-.68946,1.637,1.637,0,0,1,1.60937,1.03858,1.74552,1.74552,0,0,1-.0376,1.1709,1.45012,1.45012,0,0,1-.68554.76757,1.47615,1.47615,0,0,1-1.03223.18506,4.31026,4.31026,0,0,1-1.07764-.47754,4.29731,4.29731,0,0,0-1.2832-.54394,1.998,1.998,0,0,0-1.31445.25586,2.13,2.13,0,0,0-1.02442,1.01465,1.69747,1.69747,0,0,0-.02685,1.33642,2.61174,2.61174,0,0,0,.21972.5249,3.29881,3.29881,0,0,0,1.59473,1.53614,15.11957,15.11957,0,0,0,2.8374.90039,16.82909,16.82909,0,0,1,3.082.99511,3.62657,3.62657,0,0,1,1.72315,1.69141,4.9772,4.9772,0,0,1,.45459,2.75635,6.78275,6.78275,0,0,1-1.04444,3.03369,6.22647,6.22647,0,0,1-2.4956,2.25732A5.4368,5.4368,0,0,1,210.56689,178.21143Z" transform="translate(-36.29897 -55.19989)"/><path d="M231.2832,168.29883a7.55408,7.55408,0,0,1-2.417-4.41944,15.64319,15.64319,0,0,1-.269-2.35058,12.23232,12.23232,0,0,1,.86865-4.90576,10.30229,10.30229,0,0,1,2.60986-3.82129,8.04693,8.04693,0,0,1,3.82032-1.98,5.27426,5.27426,0,0,1,4.57617.89258,7.229,7.229,0,0,1,2.45117,4.36767,11.86719,11.86719,0,0,1,.23486,2.40186,12.51545,12.51545,0,0,1-1.00341,5.1123,10.4323,10.4323,0,0,1-2.709,3.77539,8.1811,8.1811,0,0,1-3.70508,1.88916A4.99337,4.99337,0,0,1,231.2832,168.29883Zm8.36621-2.61865a9.60833,9.60833,0,0,0,.9126-4.69239,14.88094,14.88094,0,0,0-.30615-2.74365,10.8904,10.8904,0,0,0-2.07764-4.71289,3.31214,3.31214,0,0,0-3.3916-1.40771,3.90031,3.90031,0,0,0-2.61621,2.1958,9.50925,9.50925,0,0,0-.92529,4.73925,16.38926,16.38926,0,0,0,.29931,2.92383,9.91277,9.91277,0,0,0,2.09375,4.57569,3.37424,3.37424,0,0,0,3.37354,1.32226A3.87591,3.87591,0,0,0,239.64941,165.68018Z" transform="translate(-36.29897 -55.19989)"/><path d="M260.14844,150.23193a4.68842,4.68842,0,0,1,1.19726,3.352,10.728,10.728,0,0,1-.09179,1.57325,14.19935,14.19935,0,0,1-5.5625,9.6958,7.9345,7.9345,0,0,1-4.49707,1.63916,16.40291,16.40291,0,0,1-2.271-.07422l-1.19971,7.88476a7.28615,7.28615,0,0,0-.10058,1.22461,1.40926,1.40926,0,0,0,.37549,1.05957,1.55193,1.55193,0,0,0,1.09863.29981q.26146-.0066,1.04443-.11328c.11524-.03223.19727.03125.24463.19043.04785.1582.01318.2539-.10205.28613l-7.73193,1.41455q-.17286.04761-.22364-.2124c-.03271-.17383.0083-.27735.12305-.3086a3.99393,3.99393,0,0,0,1.38428-.49267,1.70313,1.70313,0,0,0,.63183-.91065,14.5034,14.5034,0,0,0,.42871-2.06152l3.189-20.85107q-.25708.18164-1.96924,1.53271l-.08594.0459a.28037.28037,0,0,1-.2666-.18945c-.062-.1294-.04931-.22412.03662-.28467a27.347,27.347,0,0,1,2.437-2.02442l.48633-3.24169q-.00219-.08643.72559-.65088a8.77261,8.77261,0,0,0,1.30029-1.23243,3.16063,3.16063,0,0,0,.72705-1.458c.02588-.1167.11963-.1626.28028-.1377.16015.0249.22754.09619.20166.21289l-.67286,4.51172a11.99806,11.99806,0,0,1,5.58545-1.75391A4.305,4.305,0,0,1,260.14844,150.23193Zm-1.73242,4.90918q-.10548-4.27368-3.72559-4.18359a8.49113,8.49113,0,0,0-3.5542.96143l-1.95361,12.65966a8.26388,8.26388,0,0,0,3.332.61524,4.66527,4.66527,0,0,0,4.021-2.36963,14.179,14.179,0,0,0,1.83155-6.15479Q258.42871,155.6206,258.416,155.14111Z" transform="translate(-36.29897 -55.19989)"/><path d="M277.56641,151.49658a1.67712,1.67712,0,0,1,.61132,1.56494q-.29442,2.03028-3.49218,3.26368a22.65362,22.65362,0,0,1-7.49219,1.36132,13.82845,13.82845,0,0,0-.49707,2.22022,7.17937,7.17937,0,0,0,.53125,4.397,3.895,3.895,0,0,0,3.11426,2.08154,6.65794,6.65794,0,0,0,4.39453-.81836l.043.00635a.3101.3101,0,0,1,.21875.16358.2014.2014,0,0,1-.01563.2622,9.867,9.867,0,0,1-6.81445,1.70264,5.21062,5.21062,0,0,1-4.01758-2.38916,7.144,7.144,0,0,1-.76269-4.78271,12.55757,12.55757,0,0,1,.52832-2.12745,11.87854,11.87854,0,0,1,2.51269-4.11035,12.2113,12.2113,0,0,1,4.11133-2.9751,8.53212,8.53212,0,0,1,4.77344-.69726A4.28013,4.28013,0,0,1,277.56641,151.49658Zm-2.81348,1.7749a1.31032,1.31032,0,0,0-.37695-1.20068,2.21492,2.21492,0,0,0-1.26075-.57959,3.68737,3.68737,0,0,0-3.27539,1.311,11.81194,11.81194,0,0,0-2.47265,4.29248q6.12012-.25928,7.21875-3.27491A3.89883,3.89883,0,0,0,274.75293,153.27148Z" transform="translate(-36.29897 -55.19989)"/><path d="M294.8125,170.85645a.29749.29749,0,0,1,.06543.48339,15.2077,15.2077,0,0,1-3.34863,1.57715,4.02364,4.02364,0,0,1-2.45606.03809,1.51129,1.51129,0,0,1-1.03613-.88281,2.68059,2.68059,0,0,1,.15723-1.6753,14.84491,14.84491,0,0,1,.8955-1.95263l3.43653-6.15674a11.7991,11.7991,0,0,0,.97949-2.0625q.76026-2.23023-.84961-2.77881a4.00141,4.00141,0,0,0-3.30273.76367,18.78161,18.78161,0,0,0-4.31739,4.01221,44.04091,44.04091,0,0,0-4.62793,6.94873.84071.84071,0,0,1-.67187.34717,2.91805,2.91805,0,0,1-1.17774-.19434q-1.11474-.38013-1.0166-.66943l.44629-.769q.97706-1.64868,1.22949-2.11621l4.832-8.63037a5.70021,5.70021,0,0,0,.47559-.99023q.43653-1.27881-.34766-1.54737-.9917-.33763-3.34472.8877a.17849.17849,0,0,1-.1377-.001.25109.25109,0,0,1-.15722-.21484c-.02247-.11524.00293-.19043.07714-.22705a13.56357,13.56357,0,0,1,3.43165-1.54932,4.47561,4.47561,0,0,1,2.58007.00391,1.508,1.508,0,0,1,1.03516.8833,2.59042,2.59042,0,0,1-.1416,1.63379,13.14386,13.14386,0,0,1-.83985,1.7876l-2.375,4.26025a20.99272,20.99272,0,0,1,5.61524-5.11377,5.93575,5.93575,0,0,1,4.9375-.82861,2.70816,2.70816,0,0,1,1.77637,1.48144,3.77585,3.77585,0,0,1-.13477,2.627,13.33005,13.33005,0,0,1-1.02246,2.18652l-3.86816,6.88525a5.747,5.747,0,0,0-.47657.98975q-.42187,1.23852.36231,1.50635a2.01288,2.01288,0,0,0,1.1875-.102,17.32061,17.32061,0,0,0,1.97754-.80079A.2429.2429,0,0,1,294.8125,170.85645Z" transform="translate(-36.29897 -55.19989)"/><path d="M322.10352,172.53125a.37124.37124,0,0,1-.13868.27539,2.85326,2.85326,0,0,1-1.01367.46387,1.19274,1.19274,0,0,1-1.01562-.06885c-.11914-.0835-.52637-.4541-1.21778-1.11377a23.804,23.804,0,0,0-2.23144-1.87158l-7.68164,7.67578a6.156,6.156,0,0,0-.78028.8916,2.1213,2.1213,0,0,0-.47949,1.606,2.32662,2.32662,0,0,0,1.07422,1.35889,4.45954,4.45954,0,0,0,1.89063.75781,11.29722,11.29722,0,0,0,2.48535.05615l.03613.0249a.37631.37631,0,0,1,.13965.25684c.02246.12158-.00781.18945-.08789.2041a17.36313,17.36313,0,0,1-4.31739.13135,6.27068,6.27068,0,0,1-2.8291-1.0127,3.5965,3.5965,0,0,1-1.47558-1.85107,2.7221,2.7221,0,0,1,.59179-2.37842q.14941-.21461.66993-.80908l7.13574-7.04541a6.01536,6.01536,0,0,0,.916-1.01026.84487.84487,0,0,0,.17383-.86181,2.95893,2.95893,0,0,0-.96191-.90869c-.07129-.04981-.06641-.13428.01758-.25391a.57236.57236,0,0,1,.20312-.17725q.12891-.07031.16406-.04541a4.3109,4.3109,0,0,0,2.87012.80176,5.4537,5.4537,0,0,0,2.84766-1.07422q.0747-.10766.32519.0669a.8349.8349,0,0,1,.23145.24072c.05859.09375.0664.14453.02734.15186l-2.4209,2.40771q.88477.56323,1.71,1.05713.82472.49365,1.49414.90723,1.11329.61522,1.50684.88916A.296.296,0,0,1,322.10352,172.53125Z" transform="translate(-36.29897 -55.19989)"/><path d="M314.47656,186.15283a7.55819,7.55819,0,0,1,2.28321-4.49023,15.68346,15.68346,0,0,1,1.78808-1.54883,12.23392,12.23392,0,0,1,4.53906-2.05273,10.30316,10.30316,0,0,1,4.62793-.00342,8.04732,8.04732,0,0,1,3.791,2.03515,5.27591,5.27591,0,0,1,1.84766,4.28125,7.23259,7.23259,0,0,1-2.22168,4.48877,11.85033,11.85033,0,0,1-1.84961,1.5503,12.51975,12.51975,0,0,1-4.78614,2.0581,10.42931,10.42931,0,0,1-4.6455-.10449,8.18061,8.18061,0,0,1-3.65137-1.9917A4.99429,4.99429,0,0,1,314.47656,186.15283Zm6.88477,5.42676a9.60614,9.60614,0,0,0,4.38867-1.89551,14.89884,14.89884,0,0,0,2.09082-1.80224,10.88712,10.88712,0,0,0,2.71777-4.37549,3.31342,3.31342,0,0,0-.75293-3.59424,3.901,3.901,0,0,0-3.29-.91943,9.50991,9.50991,0,0,0-4.43359,1.91211,16.34477,16.34477,0,0,0-2.24414,1.89746,9.91152,9.91152,0,0,0-2.59473,4.31152,3.37421,3.37421,0,0,0,.81348,3.53125A3.87359,3.87359,0,0,0,321.36133,191.57959Z" transform="translate(-36.29897 -55.19989)"/><path d="M351.06836,208.06982a1.91754,1.91754,0,0,1-.89356,1.49024,1.66383,1.66383,0,0,1-1.22851.19287,1.498,1.498,0,0,1-1.01953-.74072,1.42268,1.42268,0,0,1-.23047-.77588,3.31174,3.31174,0,0,1,.1748-.86279c.05079-.19971.09278-.40137.124-.605a.83932.83932,0,0,0-.1084-.56982q-.44385-.75147-3.19727-.56934a42.01308,42.01308,0,0,0-6.26953.96485,54.69068,54.69068,0,0,0-6.03515,1.66162.83782.83782,0,0,1-.73536-.17334,2.91783,2.91783,0,0,1-.76757-.91455q-.57716-.97779-.31348-1.13233.24756-.09594,1.30859-.44287,1.06054-.3479,1.8418-.65625l8.19922-3.01562a10.77011,10.77011,0,0,0,1.666-.78076q1.50294-.887,1.01563-1.71338-.46582-.78882-2.73633-1.374a.17872.17872,0,0,1-.10351-.09082.25009.25009,0,0,1,.0205-.26513c.05762-.102.126-.14258.20606-.12207a12.80356,12.80356,0,0,1,3.35644,1.0083,4.242,4.242,0,0,1,1.832,1.603,1.59763,1.59763,0,0,1,.19922,1.45263,3.2249,3.2249,0,0,1-1.43164,1.35156,18.119,18.119,0,0,1-2.46191,1.14942l-4.86133,1.80517a36.57627,36.57627,0,0,1,7.93066-1.10986q3.35157-.02856,4.19532,1.3999A2.77417,2.77417,0,0,1,351.06836,208.06982Z" transform="translate(-36.29897 -55.19989)"/><path d="M357.11133,221.88086a1.67525,1.67525,0,0,1-1.04395,1.31641q-1.90137.769-4.57812-1.3711a22.65187,22.65187,0,0,1-4.95215-5.78515,13.84325,13.84325,0,0,0-2.16895.689,7.18736,7.18736,0,0,0-3.52929,2.67529,3.896,3.896,0,0,0-.22852,3.73926,6.66236,6.66236,0,0,0,2.92188,3.38281l.0166.04053a.31666.31666,0,0,1-.03125.27149.20129.20129,0,0,1-.23438.11816,9.8617,9.8617,0,0,1-4.90527-5.02734,5.211,5.211,0,0,1,.03906-4.67432,7.14014,7.14014,0,0,1,3.7461-3.06885,12.52222,12.52222,0,0,1,2.10449-.61572,11.87074,11.87074,0,0,1,4.81543.09863,12.21992,12.21992,0,0,1,4.64258,2.05127,8.5336,8.5336,0,0,1,3.00781,3.77149A4.28347,4.28347,0,0,1,357.11133,221.88086Zm-2.95117-1.53565a1.31441,1.31441,0,0,0,.84765-.93066,2.22375,2.22375,0,0,0-.13574-1.38086,3.6848,3.6848,0,0,0-2.78223-2.168,11.80542,11.80542,0,0,0-4.9541.02735q3.30909,5.15552,6.4668,4.584A3.83057,3.83057,0,0,0,354.16016,220.34521Z" transform="translate(-36.29897 -55.19989)"/><path d="M375.65234,237.09326a1.7168,1.7168,0,0,1-1.43847,1.16992,1.68566,1.68566,0,0,1-1.18555-.33252,1.74341,1.74341,0,0,1-.625-.96777,1.398,1.398,0,0,1,.12109-1.22217,3.97091,3.97091,0,0,1,1.0625-.87353,4.367,4.367,0,0,0,.915-.74658.93487.93487,0,0,0,.1211-.86231q-.38086-1.52343-3.498-1.93408a42.53955,42.53955,0,0,0-9.083.18555l-2.71875.27685q.36036,1.259.92188,2.78174l.43457,1.37549c.0498.19677-.03809.3247-.26367.38086a1.71246,1.71246,0,0,1-1.02637-.23731q-.68849-.323-.79395-.7456a3.84105,3.84105,0,0,1-.0957-.56055c-.02246-.20459-.04688-.42334-.0752-.65576q-.05273-.75221-.24414-2.23242l-16.31445,1.66064a37.18093,37.18093,0,0,1-6.76074.21045,7.84143,7.84143,0,0,1-3.82031-1.15625,4.5947,4.5947,0,0,1-1.76856-2.75,4.095,4.095,0,0,1-.001-2.51807,1.49148,1.49148,0,0,1,1.26856-1.03759,1.39018,1.39018,0,0,1,1.14844.27441,1.893,1.893,0,0,1,.67285,1.06836,1.30636,1.30636,0,0,1-.11621,1.15332,3.44525,3.44525,0,0,1-1.01465.79395,3.32136,3.32136,0,0,0-.76172.55078.68178.68178,0,0,0-.10547.65625q.12744.50757.86231.66064a12.83232,12.83232,0,0,0,2.67187.07227q1.93653-.08057,5.92481-.49561l15.47851-1.58594c.57715-.08545.95215-.14892,1.1211-.1914q.76171-.19044.85644-.70948a5.66144,5.66144,0,0,0-.26562-1.957c-.02149-.08447.03808-.14453.17968-.17968a.57724.57724,0,0,1,.26953-.00049c.09571.021.14649.04541.15333.07422a4.27046,4.27046,0,0,0,.93261,2.01464,2.05024,2.05024,0,0,0,1.66113.43848,44.08594,44.08594,0,0,1,8.45411-.09521,8.59108,8.59108,0,0,1,4.57715,1.66357,7.27236,7.27236,0,0,1,2.19726,3.92383A4.27372,4.27372,0,0,1,375.65234,237.09326Z" transform="translate(-36.29897 -55.19989)"/><path d="M362.3457,251.36768a1.91224,1.91224,0,0,1-1.42871.98828,1.66106,1.66106,0,0,1-1.19824-.33106,1.49782,1.49782,0,0,1-.623-1.09521,1.42857,1.42857,0,0,1,.11035-.80176,3.29887,3.29887,0,0,1,.51563-.71387q.19189-.241.3623-.5a.84471.84471,0,0,0,.13672-.56347q-.09521-.86793-2.67871-1.83789a41.97075,41.97075,0,0,0-6.1084-1.70752,54.5551,54.5551,0,0,0-6.18359-.97608.83942.83942,0,0,1-.59766-.46142,2.90143,2.90143,0,0,1-.32226-1.14991c-.082-.75244-.02051-1.13867.18164-1.16064q.26367.01464,1.375.13623,1.10889.12085,1.94824.16211l8.71289.63574a10.8219,10.8219,0,0,0,1.83985-.02392q1.73438-.1875,1.63183-1.14209-.09814-.91041-1.92578-2.38038a.17575.17575,0,0,1-.05664-.12548.24976.24976,0,0,1,.12793-.23291c.09473-.06934.17383-.07813.23828-.02588a12.75868,12.75868,0,0,1,2.64063,2.30273,4.2473,4.2473,0,0,1,1.00878,2.21631,1.59938,1.59938,0,0,1-.41894,1.40576,3.224,3.224,0,0,1-1.86133.64014,18.10487,18.10487,0,0,1-2.7168.03125l-5.17285-.36133a36.58212,36.58212,0,0,1,7.68262,2.26123q3.06446,1.35719,3.24316,3.00537A2.76864,2.76864,0,0,1,362.3457,251.36768Z" transform="translate(-36.29897 -55.19989)"/><path d="M362.18262,266.4043a1.67439,1.67439,0,0,1-1.49219.77246q-2.04931-.07911-3.61231-3.12988a22.6413,22.6413,0,0,1-2.14257-7.30713,13.80722,13.80722,0,0,0-2.25977-.26123,7.18978,7.18978,0,0,0-4.3164.99023,3.89809,3.89809,0,0,0-1.74219,3.31738,6.65379,6.65379,0,0,0,1.27539,4.28321l-.001.04394a.31476.31476,0,0,1-.14062.23438.19966.19966,0,0,1-.26172.01172,9.8613,9.8613,0,0,1-2.41016-6.59668,5.21515,5.21515,0,0,1,1.95313-4.24756,7.14313,7.14313,0,0,1,4.67578-1.26075,12.48192,12.48192,0,0,1,2.17187.30176,11.88064,11.88064,0,0,1,4.35157,2.06592,12.218,12.218,0,0,1,3.39062,3.77539,8.52707,8.52707,0,0,1,1.19629,4.67383A4.27535,4.27535,0,0,1,362.18262,266.4043Zm-2.06055-2.61133a1.31368,1.31368,0,0,0,1.1543-.501,2.22467,2.22467,0,0,0,.44336-1.31445,3.68494,3.68494,0,0,0-1.64844-3.11914,11.81008,11.81008,0,0,0-4.52832-2.00781q.90234,6.05859,4.01562,6.833A3.78683,3.78683,0,0,0,360.12207,263.793Z" transform="translate(-36.29897 -55.19989)"/><path d="M345.31934,267.68359a2.16423,2.16423,0,0,1,2.00878-.88867,1.6079,1.6079,0,0,1,1.11524.67578,1.55585,1.55585,0,0,1,.22461,1.17383,1.11618,1.11618,0,0,1-.42383.71973,5.15576,5.15576,0,0,1-1.10156.54785,4.74531,4.74531,0,0,0-1.52246.7793,2.3575,2.3575,0,0,0-.76074,1.45507q-.38526,2.05811,1.873,2.793a2.63312,2.63312,0,0,0,.54981.14746,3.42452,3.42452,0,0,0,2.27636-.30566,14.93789,14.93789,0,0,0,2.50684-1.77148,15.36066,15.36066,0,0,1,2.46-1.75782,3.35518,3.35518,0,0,1,2.28027-.32617,4.29689,4.29689,0,0,1,2.37305,1.31055,5.83993,5.83993,0,0,1,1.4043,2.57129,6.85439,6.85439,0,0,1,.11328,3.06152,5.362,5.362,0,0,1-1.15723,2.623,1.63628,1.63628,0,0,1-1.80664.63769,1.74191,1.74191,0,0,1-.90234-.74609,1.44882,1.44882,0,0,1-.1875-1.01172,1.4731,1.4731,0,0,1,.48437-.92969,4.367,4.367,0,0,1,1.03711-.56054,4.291,4.291,0,0,0,1.21582-.68164,1.99621,1.99621,0,0,0,.60157-1.19629,2.13376,2.13376,0,0,0-.17579-1.43164,1.69254,1.69254,0,0,0-1.041-.83789,2.53637,2.53637,0,0,0-.54883-.14747,3.29227,3.29227,0,0,0-2.19141.32129,15.11952,15.11952,0,0,0-2.44824,1.69336,16.85037,16.85037,0,0,1-2.67285,1.8291,3.63092,3.63092,0,0,1-2.3916.32813,4.98575,4.98575,0,0,1-2.459-1.32715A6.78582,6.78582,0,0,1,344.293,273.749a6.213,6.213,0,0,1-.25879-3.35449A5.43861,5.43861,0,0,1,345.31934,267.68359Z" transform="translate(-36.29897 -55.19989)"/><path d="M340.17773,296.76465a.30354.30354,0,0,1-.22656.17187.2001.2001,0,0,1-.25879-.12011A15.24073,15.24073,0,0,1,338.21,293.4248a4.01847,4.01847,0,0,1,.03125-2.45605,1.50959,1.50959,0,0,1,.91211-1.01074,2.6772,2.6772,0,0,1,1.66992.20312,15.01317,15.01317,0,0,1,1.92676.95117l6.05762,3.6084a11.84174,11.84174,0,0,0,2.03418,1.03711q2.20752.82324,2.80175-.77148a4.00392,4.00392,0,0,0-.67089-3.32227,18.79519,18.79519,0,0,0-3.88965-4.42968,44.14882,44.14882,0,0,0-6.81543-4.82129.84016.84016,0,0,1-.32813-.68067,2.929,2.929,0,0,1,.22754-1.17285q.41163-1.103.69727-.99707l.75683.46875q1.62012,1.02246,2.08008,1.28711l20.38672,12.25391a4.81655,4.81655,0,0,0,.91016.43261q1.144.42627,1.46484-.43164a5.03341,5.03341,0,0,0,.08691-2.10937l.01563-.041a.285.285,0,0,1,.2959-.16894c.15625-.00391.24121.05859.25586.18847l.63574,6.66211-.03027.08106a.41848.41848,0,0,1-.2295.24121c-.1123.05078-.19043.05273-.23437.00488l-19.93164-11.85059a21.02857,21.02857,0,0,1,4.90039,5.7129,5.88789,5.88789,0,0,1,.67578,4.93164,2.67415,2.67415,0,0,1-1.502,1.7207,3.85264,3.85264,0,0,1-2.63575-.23731,12.77534,12.77534,0,0,1-2.17187-1.042l-6.77344-4.06054a5.7268,5.7268,0,0,0-.97656-.50391q-1.22607-.457-1.51563.31934a2.0041,2.0041,0,0,0,.06934,1.18945,17.08531,17.08531,0,0,0,.74414,2A.248.248,0,0,1,340.17773,296.76465Z" transform="translate(-36.29897 -55.19989)"/><path d="M336.81152,298.7832a10.30618,10.30618,0,0,1,1.73243,1.2793l7.0205,6.02051a5.86939,5.86939,0,0,0,.92285.67187q1.13966.64306,1.54786-.07812a2.3857,2.3857,0,0,0,.16406-1.30957,10.226,10.226,0,0,0-.44043-2.10352.17361.17361,0,0,1,.02637-.13476.29953.29953,0,0,1,.251-.13379c.124-.01367.18946.03222.19825.13672q1.54541,4.18066.45117,6.11718a1.57357,1.57357,0,0,1-1.06934.874,2.40207,2.40207,0,0,1-1.55273-.40137,9.46092,9.46092,0,0,1-1.63965-1.17676l-7.21-6.12793a5.93261,5.93261,0,0,0-.92285-.67187q-1.103-.62256-1.48829.06152-.49365.873.24317,3.29395a.17783.17783,0,0,1-.02637.13574.28413.28413,0,0,1-.26172.15234c-.11719,0-.17969-.05176-.1875-.15625a14.35033,14.35033,0,0,1-.90429-3.542,4.11971,4.11971,0,0,1,.42675-2.43945Q334.95117,297.73046,336.81152,298.7832Zm16.79688,12.97168a2.03386,2.03386,0,0,1,1.57812.26563,1.89952,1.89952,0,0,1,.98536,1.18359,2.4238,2.4238,0,0,1-1.48047,2.62012,1.90087,1.90087,0,0,1-1.52149-.2334,2.08028,2.08028,0,0,1-1.05273-1.19629,2.37984,2.37984,0,0,1,1.49121-2.63965Z" transform="translate(-36.29897 -55.19989)"/><path d="M322.90723,321.376a.2561.2561,0,0,1-.25586.07422.25052.25052,0,0,1-.22071-.17676,15.21325,15.21325,0,0,1-.3457-3.68653,4.02552,4.02552,0,0,1,.79883-2.32226,1.50744,1.50744,0,0,1,1.18262-.67383,2.673,2.673,0,0,1,1.52246.71582,14.9859,14.9859,0,0,1,1.53125,1.50684l4.623,5.32422a11.74617,11.74617,0,0,0,1.60645,1.62207q1.83839,1.47363,2.90234.1455a4.0027,4.0027,0,0,0,.4043-3.36523,18.80475,18.80475,0,0,0-2.30566-5.42481,44.08219,44.08219,0,0,0-4.96289-6.71386.84085.84085,0,0,1-.09766-.75,2.91649,2.91649,0,0,1,.583-1.042q.73682-.91846.97461-.72754l.57226.68164q1.21729,1.478,1.57227,1.874l6.47363,7.47852a5.8398,5.8398,0,0,0,.76953.78418q1.0547.84375,1.57422.19824.65332-.81738.30176-3.44727a.17538.17538,0,0,1,.04785-.1289.25235.25235,0,0,1,.25586-.0752c.11523.01758.17773.06738.18652.15039a13.56066,13.56066,0,0,1,.291,3.75391,4.4784,4.4784,0,0,1-.88086,2.4248,1.51279,1.51279,0,0,1-1.18262.67383,2.59267,2.59267,0,0,1-1.48828-.68945,13.11764,13.11764,0,0,1-1.39551-1.39746l-3.19922-3.68164a20.99994,20.99994,0,0,1,2.90039,7.01953,5.93849,5.93849,0,0,1-.89843,4.92578,2.7094,2.7094,0,0,1-1.99707,1.167,3.78487,3.78487,0,0,1-2.42481-1.02051,13.34324,13.34324,0,0,1-1.709-1.7041l-5.16016-5.97852a5.7812,5.7812,0,0,0-.76953-.78417q-1.021-.8174-1.54-.1709a2.0136,2.0136,0,0,0-.30664,1.15039,17.2578,17.2578,0,0,0,.08008,2.13281A.24571.24571,0,0,1,322.90723,321.376Z" transform="translate(-36.29897 -55.19989)"/><path d="M318.33789,342.50977a4.16187,4.16187,0,0,1-.6582-1.07227q-.26221-.60937-.07227-.65625a5.63931,5.63931,0,0,0,2.94043-1.59473,5.34,5.34,0,0,1-2.7373-1.793,7.28652,7.28652,0,0,1-.94434-1.373,8.19241,8.19241,0,0,1-.46973-7.0293,6.77358,6.77358,0,0,1,1.87989-2.66894,7.39838,7.39838,0,0,1,.81933-.585,2.56713,2.56713,0,0,0-.59863-1.43945,2.13376,2.13376,0,0,0-1.81543-.71484,18.71792,18.71792,0,0,0-3.30859.56054,17.828,17.828,0,0,1-4.3711.69336,3.66177,3.66177,0,0,1-2.91015-1.35742,4.83827,4.83827,0,0,1-1.11914-3.29,8.89412,8.89412,0,0,1,1.07324-4.01562,12.12019,12.12019,0,0,1,2.94824-3.667,8.3304,8.3304,0,0,1,4.53613-2.21289,3.71005,3.71005,0,0,1,3.37207,1.19238,4.625,4.625,0,0,1,1,3.62109,21.37692,21.37692,0,0,1-1.4248,5.34961,3.01393,3.01393,0,0,1,2.75293.80371,1.52488,1.52488,0,0,1,.25.36035,3.7578,3.7578,0,0,1,.38574,1.59278,12.185,12.185,0,0,1-.15918,2.23047,3.89657,3.89657,0,0,1,2.73047-.09473,5.51628,5.51628,0,0,1,2.46191,1.74023,10.24009,10.24009,0,0,1,.8877,1.30664,7.73587,7.73587,0,0,1,.95605,5.18067,7.15436,7.15436,0,0,1-2.45605,4.47949,4.54192,4.54192,0,0,1-2.87793,1.19727,10.35659,10.35659,0,0,1-2.53711,3.54492C318.76172,342.89355,318.583,342.79688,318.33789,342.50977Zm-8.82422-20.835a21.2767,21.2767,0,0,0,4.13379-.63476,17.731,17.731,0,0,1,2.26758-.50293,12.33555,12.33555,0,0,0,.64062-3.44629,3.97022,3.97022,0,0,0-1.02441-2.71,3.81214,3.81214,0,0,0-3.29883-1.3418,6.83754,6.83754,0,0,0-4.041,1.81836,5.19526,5.19526,0,0,0-1.95118,2.98731,3.24371,3.24371,0,0,0,3.27344,3.83007Zm9.77735,13.01954a8.56143,8.56143,0,0,0,2.77929,2.24511,2.12824,2.12824,0,0,0,2.47461-.19336,2.80667,2.80667,0,0,0,.8125-2.47363,7.40016,7.40016,0,0,0-1.1875-3.40332,10.44969,10.44969,0,0,0-.97754-1.3457,7.0381,7.0381,0,0,0-2.75976-2.08789,2.23721,2.23721,0,0,0-2.418.25879,2.78561,2.78561,0,0,0-.85352,2.39257,7.11585,7.11585,0,0,0,1.23242,3.42286A9.14535,9.14535,0,0,0,319.291,334.69434Z" transform="translate(-36.29897 -55.19989)"/><path d="M298.69238,336.85938a10.39213,10.39213,0,0,1,.71387,2.03124l2.42676,8.92481a5.92178,5.92178,0,0,0,.38574,1.07422q.58155,1.17188,1.32422.80469a2.37649,2.37649,0,0,0,.87109-.99219,10.20119,10.20119,0,0,0,.81739-1.98633.17314.17314,0,0,1,.09765-.09766.30028.30028,0,0,1,.2832.03028c.11036.05859.13868.13379.08692.22461q-1.06934,4.32714-3.0625,5.31543a1.57586,1.57586,0,0,1-1.376.12109,2.40424,2.40424,0,0,1-1.05957-1.20312,9.46749,9.46749,0,0,1-.69531-1.89454l-2.52246-9.12011a5.96423,5.96423,0,0,0-.38672-1.07422q-.5625-1.13526-1.26563-.78516-.89795.44532-1.64843,2.86133a.18109.18109,0,0,1-.09864.09766.28392.28392,0,0,1-.30175-.02051.15915.15915,0,0,1-.06739-.23438,14.30808,14.30808,0,0,1,1.24121-3.43945,4.12146,4.12146,0,0,1,1.72364-1.77832Q297.74267,334.94385,298.69238,336.85938Zm6.60938,20.167a2.03219,2.03219,0,0,1,1.15625,1.10644,1.9004,1.9004,0,0,1,.15137,1.53223,2.42615,2.42615,0,0,1-2.69727,1.33594,1.90156,1.90156,0,0,1-1.12793-1.04786,2.08284,2.08284,0,0,1-.19922-1.58105,2.38035,2.38035,0,0,1,2.7168-1.3457Z" transform="translate(-36.29897 -55.19989)"/><path d="M278.791,346.8877a5.87192,5.87192,0,0,0-.21387-1.12208q-.37647-1.20849-1.126-.97363a2.01555,2.01555,0,0,0-.89844.78321,17.262,17.262,0,0,0-1.124,1.81347.25123.25123,0,0,1-.14062.13574.25451.25451,0,0,1-.25391-.08105.21429.21429,0,0,1-.043-.2832,17.54871,17.54871,0,0,1,1.77246-3.25,3.83691,3.83691,0,0,1,1.91895-1.46778,1.57049,1.57049,0,0,1,1.37793.09571,2.48084,2.48084,0,0,1,.87011,1.3955,11.57484,11.57484,0,0,1,.40039,2.16016l.44922,3.92773a23.70646,23.70646,0,0,1,2.09375-7.05273,6.30671,6.30671,0,0,1,3.584-3.4502,3.59672,3.59672,0,0,1,2.80371.19825,4.31956,4.31956,0,0,1,1.956,2.749,9.26255,9.26255,0,0,1,.37891,1.80078,16.10786,16.10786,0,0,1-3.39746,11.80078,9.06329,9.06329,0,0,1-4.25293,3.06543,3.94932,3.94932,0,0,1-2.05859.13965l1.17968,9.77734a4.71906,4.71906,0,0,0,.21582.98438q.36328,1.16455,1.23828.89258a5.6093,5.6093,0,0,0,1.7627-1.23633l.041-.0127c.11132-.03418.21093.01758.30078.15723.08886.13965.083.24121-.01953.30371l-4.875,4.584-.083.02636a.42052.42052,0,0,1-.33106-.03418c-.10937-.05664-.1582-.11816-.14843-.18164Zm4.90722-1.55567a17.18026,17.18026,0,0,0-1.38574,5.36817,11.77422,11.77422,0,0,0,.17188,4.35644,2.80047,2.80047,0,0,0,1.38769,1.80664,2.92786,2.92786,0,0,0,2.21973.084,5.9824,5.9824,0,0,0,3.74121-3.38575,13.85761,13.85761,0,0,0,.21094-8.543,4.6332,4.6332,0,0,0-1.43067-2.38671,2.12232,2.12232,0,0,0-2.02246-.32813A5.00115,5.00115,0,0,0,283.69824,345.332Z" transform="translate(-36.29897 -55.19989)"/><path d="M262.9541,362.46289a1.67557,1.67557,0,0,1-1.001-1.34863q-.25194-2.03613,2.50782-4.06836a22.68007,22.68007,0,0,1,6.86914-3.28809,13.69176,13.69176,0,0,0-.10547-2.27246,7.18823,7.18823,0,0,0-1.6709-4.10156A3.89629,3.89629,0,0,0,266,346.19629a6.65641,6.65641,0,0,0-4.02246,1.94824l-.04395.00488a.3109.3109,0,0,1-.2539-.10058.2013.2013,0,0,1-.05371-.25684,9.86087,9.86087,0,0,1,6.125-3.4375,5.20906,5.20906,0,0,1,4.50488,1.24512,7.14166,7.14166,0,0,1,1.99609,4.41309,12.53725,12.53725,0,0,1,.05078,2.1914,11.86756,11.86756,0,0,1-1.34082,4.627,12.214,12.214,0,0,1-3.18164,3.95313,8.52339,8.52339,0,0,1-4.42089,1.93066A4.27954,4.27954,0,0,1,262.9541,362.46289Zm2.24707-2.45312a1.31124,1.31124,0,0,0,.67969,1.05859,2.2197,2.2197,0,0,0,1.36914.22656,3.68549,3.68549,0,0,0,2.81348-2.12793,11.813,11.813,0,0,0,1.25488-4.792q-5.83594,1.86329-6.10059,5.06152A3.88,3.88,0,0,0,265.20117,360.00977Z" transform="translate(-36.29897 -55.19989)"/><path d="M242.80811,348.50879a.25688.25688,0,0,1-.21045-.16309q-.07911-.15821.0122-.24023a15.5428,15.5428,0,0,1,2.74024-2.419,3.9083,3.9083,0,0,1,2.30761-.73828,1.54272,1.54272,0,0,1,1.25977.58692,2.6706,2.6706,0,0,1,.332,1.67578,14.89259,14.89259,0,0,1-.32178,2.08105l-.90185,4.10449a20.74852,20.74852,0,0,1,4.624-6.06054,7.09432,7.09432,0,0,1,4.86377-2.07422A2.57943,2.57943,0,0,1,259.5,346.168a3.61844,3.61844,0,0,1,.59668,2.49707q-.019.39258-.14941,1.25976a16.70435,16.70435,0,0,1-2.63672,6.04981,19.19226,19.19226,0,0,1-4.72364,4.98535,7.95485,7.95485,0,0,1-4.9375,1.80859,3.931,3.931,0,0,1-2.90478-1.32324,3.68442,3.68442,0,0,0-1.208,1.46875.2497.2497,0,0,1-.17871.0791.58761.58761,0,0,1-.2583-.07812c-.085-.04785-.11182-.08594-.08154-.11328l3.20849-13.64356a6.04122,6.04122,0,0,0,.189-1.16992q.06006-1.22022-.68018-1.25683-.91553-.04542-2.79443,1.74023A.17688.17688,0,0,1,242.80811,348.50879Zm9.43115.51074a15.492,15.492,0,0,0-3.10938,3.68945,15.6625,15.6625,0,0,0-1.94092,4.3584A5.60646,5.60646,0,0,0,247,358.2373a2.92762,2.92762,0,0,0,.5542,2.03711,2.37234,2.37234,0,0,0,1.83691.833,4.72508,4.72508,0,0,0,3.02246-1.05078,10.24348,10.24348,0,0,0,2.7334-3.16309,14.90833,14.90833,0,0,0,1.71436-4.63183q.24316-1.38722.26465-1.82129.13329-2.70264-1.69629-2.792A4.72438,4.72438,0,0,0,252.23926,349.01953Z" transform="translate(-36.29897 -55.19989)"/><path d="M241.50586,344.90918a2.16241,2.16241,0,0,1,.82422,2.03613,1.60405,1.60405,0,0,1-.71045,1.09375,1.55593,1.55593,0,0,1-1.18018.18653,1.10707,1.10707,0,0,1-.70556-.44629,5.12192,5.12192,0,0,1-.5127-1.11817,4.72622,4.72622,0,0,0-.73144-1.5459,2.35114,2.35114,0,0,0-1.43018-.80664q-2.04492-.45117-2.8501,1.78321a2.62961,2.62961,0,0,0-.165.54492,3.42323,3.42323,0,0,0,.2334,2.28516,14.89514,14.89514,0,0,0,1.69092,2.56152,15.36784,15.36784,0,0,1,1.67871,2.51465,3.35784,3.35784,0,0,1,.2544,2.29,4.3014,4.3014,0,0,1-1.38526,2.33007,5.82633,5.82633,0,0,1-2.61426,1.32129,6.847,6.847,0,0,1-3.064.0166,5.35794,5.35794,0,0,1-2.58545-1.24023,1.63567,1.63567,0,0,1-.58008-1.8252,1.74758,1.74758,0,0,1,.77442-.8789,1.44961,1.44961,0,0,1,1.01709-.15527,1.475,1.475,0,0,1,.91406.51367,4.31635,4.31635,0,0,1,.52685,1.05468,4.30887,4.30887,0,0,0,.64307,1.23633,2.00045,2.00045,0,0,0,1.17725.63965,2.1319,2.1319,0,0,0,1.43554-.12988,1.69686,1.69686,0,0,0,.87158-1.01465,2.56259,2.56259,0,0,0,.16456-.54395,3.29438,3.29438,0,0,0-.252-2.20019,15.09571,15.09571,0,0,0-1.61474-2.5,16.77619,16.77619,0,0,1-1.74317-2.73047,3.622,3.622,0,0,1-.25244-2.40039,4.98373,4.98373,0,0,1,1.40381-2.416,6.78321,6.78321,0,0,1,2.7373-1.67382,6.21635,6.21635,0,0,1,3.36133-.15235A5.43544,5.43544,0,0,1,241.50586,344.90918Z" transform="translate(-36.29897 -55.19989)"/><path d="M229.3374,341.794a2.10917,2.10917,0,0,1,.01758,1.62109,1.84156,1.84156,0,0,1-.9707,1.1416,2.43263,2.43263,0,0,1-2.832-.95312,1.871,1.871,0,0,1-.03272-1.51075,2.14732,2.14732,0,0,1,1-1.29394,1.9601,1.9601,0,0,1,1.58008-.03125A1.98723,1.98723,0,0,1,229.3374,341.794Z" transform="translate(-36.29897 -55.19989)"/></svg>