<?xml version="1.0" encoding="UTF-8"?>
<svg width="15px" height="10px" viewBox="0 0 15 10" version="1.1" xmlns="http://www.w3.org/2000/svg" xmlns:xlink="http://www.w3.org/1999/xlink">
    <title>Send Contact Form Icon</title>
    <g id="Contact-Form" stroke="none" stroke-width="1" fill="none" fill-rule="evenodd">
        <g id="Contact-Full-Lenght" transform="translate(-1154.000000, -2208.000000)" fill="#8A23B7" fill-rule="nonzero">
            <g id="Form" transform="translate(138.000000, 1542.000000)">
                <g id="Input-Fields-+-Buttons---Contact" transform="translate(602.000000, 114.001000)">
                    <g id="Send-Button" transform="translate(343.000000, 539.000000)">
                        <g id="Send-Button-Content" transform="translate(24.371622, 4.000000)">
                            <path d="M61.6053819,14.7129573 L58.2326207,11.1299103 C58.2326207,11.1299103 58.2019592,11.1299103 58.2019592,11.1299103 L57.4967455,11.8790928 C57.466084,11.911666 57.466084,11.911666 57.4967455,11.9442392 L59.6737096,14.2569331 C59.704371,14.2895063 59.6737096,14.3220794 59.6430481,14.3220794 L48.4516131,14.3220794 C48.114337,14.3220794 47.8383838,14.028921 47.8383838,13.6706163 L47.8383838,9.92470359 C47.8383838,9.89213044 47.8077224,9.82698413 47.7463994,9.82698413 L46.8572169,9.82698413 C46.8265555,9.82698413 46.795894,9.85955728 46.795894,9.92470359 L46.795894,13.9963479 C46.795894,14.8106767 47.4091233,15.4621398 48.17566,15.4621398 L59.5510637,15.4621398 C59.5817252,15.4621398 59.6123866,15.494713 59.5817252,15.5272861 L57.527407,17.7096874 C57.4967455,17.7422606 57.4967455,17.7748338 57.527407,17.8074069 L58.1712978,18.4914432 C58.2019592,18.5240163 58.2326207,18.5240163 58.2632822,18.4914432 L61.6053819,14.9409693 C61.6360434,14.875823 61.6360434,14.7781036 61.6053819,14.7129573 Z" id="Send-Contact-Form-Icon"></path>
                        </g>
                    </g>
                </g>
            </g>
        </g>
    </g>
</svg>